;TYPE=PLATED
;Layer: PTH_Through_Via
;EasyEDA Pro v2.2.27.1, 2024-09-03 10:08:37
;Gerber Generator version 0.3
M48
METRIC,LZ,000.00000
;Hole size 1 = 0.30480 METRIC
T01C0.30480
;Hole size 2 = 0.30500 METRIC
T02C0.30500
%
G05
G90
T01
X29.7848Y55.6152
X39.9448Y55.6152
X9.4648Y50.5352
X14.5448Y50.5352
X19.6248Y50.5352
X24.7048Y50.5352
X39.9448Y50.5352
X9.4648Y45.4552
X14.5448Y45.4552
X19.6248Y45.4552
X34.8648Y45.4552
X4.3848Y40.3752
X9.4648Y40.3752
X34.8648Y40.3752
X39.9448Y40.3752
X45.0248Y40.3752
X14.5448Y35.2952
X19.6248Y35.2952
X24.7048Y35.2952
X34.8648Y35.2952
X39.9448Y35.2952
X4.3848Y30.2152
X14.5448Y30.2152
X19.6248Y30.2152
X24.7048Y30.2152
X34.8648Y30.2152
X39.9448Y30.2152
X45.0248Y30.2152
X34.8648Y25.1352
X45.0248Y25.1352
X4.3848Y14.9752
X34.8648Y14.9752
X39.9448Y14.9752
X45.0248Y14.9752
X4.3848Y9.8952
X14.5448Y9.8952
X24.7048Y9.8952
X14.5448Y4.8152
X24.7048Y4.8152
X34.8648Y4.8152
X39.9448Y4.8152
T02
X20.5Y47.0
X10.75Y30.0
X30.0Y50.0
X35.75Y50.0
X30.5Y27.0
X30.5Y37.75
X20.75Y15.75
X16.75Y6.9626
X12.75Y10.0
X10.875Y28.875
X11.25Y24.5
X7.25Y39.5
X13.75Y25.5
X20.0Y15.0
X45.00146Y12.25
X5.0Y28.75
X37.25Y55.0
X47.25Y29.5
X39.25Y22.75
X14.5Y17.5
X18.25Y23.0
X19.25Y14.25
X15.25Y13.5
X5.0Y17.75
X10.25Y41.5
M30