G04 Layer: TopSilkscreenLayer*
G04 EasyEDA Pro v2.2.27.1, 2024-09-03 10:08:37*
G04 Gerber Generator version 0.3*
G04 Scale: 100 percent, Rotated: No, Reflected: No*
G04 Dimensions in millimeters*
G04 Leading zeros omitted, absolute positions, 3 integers and 5 decimals*
%FSLAX35Y35*%
%MOMM*%
%ADD10C,0.1524*%
%ADD11C,0.15999*%
%ADD12C,0.2032*%
%ADD13C,0.1*%
%ADD14C,0.15011*%
%ADD15C,0.2570*%
%ADD16C,0.254*%
G75*


G04 Image Start*
G36*
G01X2948259Y4922605D02*
G01X2814655Y4922605D01*
G01X2814655Y5009092D01*
G01X2840055Y5009092D01*
G01X2840055Y4989280D01*
G01X2922859Y5015188D01*
G01X2922859Y5037540D01*
G01X2840055Y5063448D01*
G01X2840055Y5044398D01*
G01X2859867Y5039064D01*
G01X2859867Y5014172D01*
G01X2859867Y5014172D01*
G01X2840055Y5009092D01*
G01X2814655Y5009092D01*
G01X2814655Y5131774D01*
G01X2840055Y5131774D01*
G01X2840055Y5107898D01*
G01X2840690Y5099578D01*
G01X2842595Y5091896D01*
G01X2844025Y5088466D01*
G01X2845771Y5085291D01*
G01X2847835Y5082370D01*
G01X2850215Y5079704D01*
G01X2852946Y5077307D01*
G01X2856057Y5075195D01*
G01X2859550Y5073369D01*
G01X2863423Y5071830D01*
G01X2867535Y5070608D01*
G01X2871996Y5069734D01*
G01X2871996Y5069734D01*
G01X2881965Y5069036D01*
G01X2891744Y5069734D01*
G01X2896157Y5070608D01*
G01X2900253Y5071830D01*
G01X2904000Y5073385D01*
G01X2907365Y5075258D01*
G01X2910350Y5077449D01*
G01X2912953Y5079958D01*
G01X2915334Y5082656D01*
G01X2917398Y5085672D01*
G01X2919144Y5089006D01*
G01X2920573Y5092658D01*
G01X2922288Y5100278D01*
G01X2922859Y5108914D01*
G01X2922859Y5131774D01*
G01X2840055Y5131774D01*
G01X2814655Y5131774D01*
G01X2814655Y5179018D01*
G01X2838531Y5179018D01*
G01X2839040Y5171779D01*
G01X2840563Y5165302D01*
G01X2842976Y5159714D01*
G01X2846151Y5155142D01*
G01X2849961Y5151713D01*
G01X2854279Y5149046D01*
G01X2859042Y5147522D01*
G01X2859042Y5147522D01*
G01X2864185Y5147014D01*
G01X2868313Y5147299D01*
G01X2872059Y5148157D01*
G01X2875425Y5149585D01*
G01X2878409Y5151586D01*
G01X2880918Y5154205D01*
G01X2883109Y5157238D01*
G01X2884982Y5160682D01*
G01X2886537Y5164540D01*
G01X2890855Y5174700D01*
G01X2895173Y5184606D01*
G01X2896284Y5186161D01*
G01X2897586Y5187272D01*
G01X2899079Y5187939D01*
G01X2900761Y5188162D01*
G01X2902539Y5187987D01*
G01X2904063Y5187463D01*
G01X2905333Y5186590D01*
G01X2906349Y5185368D01*
G01X2907873Y5182066D01*
G01X2908381Y5177748D01*
G01X2907937Y5172096D01*
G01X2906603Y5167334D01*
G01X2904507Y5163016D01*
G01X2901777Y5158698D01*
G01X2913461Y5149300D01*
G01X2918161Y5155269D01*
G01X2921589Y5162000D01*
G01X2923684Y5169302D01*
G01X2924383Y5176986D01*
G01X2923939Y5183335D01*
G01X2922605Y5189178D01*
G01X2920256Y5194385D01*
G01X2917271Y5198830D01*
G01X2913651Y5202259D01*
G01X2909397Y5204926D01*
G01X2904698Y5206640D01*
G01X2899745Y5207212D01*
G01X2895427Y5206831D01*
G01X2891617Y5205688D01*
G01X2888252Y5204101D01*
G01X2885267Y5201878D01*
G01X2882664Y5199210D01*
G01X2880441Y5196290D01*
G01X2877139Y5189686D01*
G01X2872567Y5178764D01*
G01X2870281Y5173430D01*
G01X2867995Y5169620D01*
G01X2866852Y5168032D01*
G01X2865455Y5166826D01*
G01X2863932Y5166254D01*
G01X2861899Y5166064D01*
G01X2860343Y5166238D01*
G01X2858978Y5166762D01*
G01X2857804Y5167636D01*
G01X2856819Y5168858D01*
G01X2855931Y5170461D01*
G01X2855296Y5172477D01*
G01X2854787Y5177748D01*
G01X2855359Y5183716D01*
G01X2857073Y5189432D01*
G01X2859931Y5194766D01*
G01X2863423Y5199592D01*
G01X2850469Y5210514D01*
G01X2845326Y5203338D01*
G01X2843278Y5199512D01*
G01X2841579Y5195528D01*
G01X2839293Y5187336D01*
G01X2838722Y5183193D01*
G01X2838531Y5179018D01*
G01X2814655Y5179018D01*
G01X2814655Y5243915D01*
G01X2881457Y5277316D01*
G01X2948259Y5243915D01*
G01X2948259Y4922605D01*
G37*
G36*
G01X2895173Y5023316D02*
G01X2881965Y5020014D01*
G01X2874345Y5017982D01*
G01X2874345Y5035508D01*
G01X2881965Y5033476D01*
G01X2895173Y5030174D01*
G01X2908635Y5027126D01*
G01X2908635Y5026364D01*
G01X2895173Y5023316D01*
G37*
G36*
G01X2894157Y5089864D02*
G01X2888696Y5088721D01*
G01X2881965Y5088340D01*
G01X2874980Y5088721D01*
G01X2869265Y5089864D01*
G01X2864694Y5091705D01*
G01X2861137Y5094182D01*
G01X2858343Y5097420D01*
G01X2856565Y5101040D01*
G01X2855422Y5105294D01*
G01X2855041Y5109930D01*
G01X2855041Y5112978D01*
G01X2907873Y5112978D01*
G01X2907873Y5109930D01*
G01X2907555Y5105294D01*
G01X2906603Y5101040D01*
G01X2904761Y5097420D01*
G01X2902285Y5094182D01*
G01X2898729Y5091705D01*
G01X2894157Y5089864D01*
G37*
G36*
G01X2697231Y4925627D02*
G01X2563627Y4925627D01*
G01X2563627Y5047801D01*
G01X2589027Y5047801D01*
G01X2589027Y4992429D01*
G01X2604775Y4992429D01*
G01X2604775Y5029259D01*
G01X2671831Y5029259D01*
G01X2671831Y5047801D01*
G01X2671831Y5047801D01*
G01X2589027Y5047801D01*
G01X2563627Y5047801D01*
G01X2563627Y5092505D01*
G01X2587503Y5092505D01*
G01X2587694Y5088358D01*
G01X2588265Y5084425D01*
G01X2589218Y5080706D01*
G01X2590551Y5077202D01*
G01X2592266Y5073912D01*
G01X2594361Y5070836D01*
G01X2596838Y5067975D01*
G01X2596838Y5067975D01*
G01X2599695Y5065327D01*
G01X2610871Y5075487D01*
G01X2607950Y5078726D01*
G01X2605791Y5082345D01*
G01X2604267Y5086282D01*
G01X2603759Y5090473D01*
G01X2604188Y5094966D01*
G01X2605474Y5099046D01*
G01X2607617Y5102713D01*
G01X2610617Y5105967D01*
G01X2614539Y5108412D01*
G01X2619190Y5110158D01*
G01X2624571Y5111206D01*
G01X2630683Y5111555D01*
G01X2636525Y5111237D01*
G01X2641859Y5110285D01*
G01X2646368Y5108443D01*
G01X2650241Y5105967D01*
G01X2653162Y5102983D01*
G01X2655321Y5099617D01*
G01X2656845Y5095617D01*
G01X2657353Y5091235D01*
G01X2656909Y5087108D01*
G01X2655575Y5083361D01*
G01X2653733Y5079996D01*
G01X2651257Y5077011D01*
G01X2662941Y5066597D01*
G01X2666624Y5071423D01*
G01X2670053Y5077265D01*
G01X2671498Y5080520D01*
G01X2672530Y5083933D01*
G01X2673149Y5087505D01*
G01X2673355Y5091235D01*
G01X2672656Y5099363D01*
G01X2670561Y5106983D01*
G01X2668878Y5110428D01*
G01X2666878Y5113651D01*
G01X2664561Y5116651D01*
G01X2661925Y5119429D01*
G01X2658972Y5121953D01*
G01X2655701Y5124192D01*
G01X2652114Y5126144D01*
G01X2648209Y5127811D01*
G01X2644113Y5129145D01*
G01X2639699Y5130097D01*
G01X2634969Y5130669D01*
G01X2629921Y5130859D01*
G01X2624873Y5130669D01*
G01X2620143Y5130097D01*
G01X2615729Y5129145D01*
G01X2611633Y5127811D01*
G01X2604331Y5124064D01*
G01X2598171Y5119429D01*
G01X2595679Y5116667D01*
G01X2593536Y5113714D01*
G01X2591742Y5110571D01*
G01X2590297Y5107237D01*
G01X2588202Y5100125D01*
G01X2587503Y5092505D01*
G01X2563627Y5092505D01*
G01X2563627Y5176071D01*
G01X2587503Y5176071D01*
G01X2588011Y5168832D01*
G01X2589535Y5162355D01*
G01X2591948Y5156767D01*
G01X2595123Y5152195D01*
G01X2598933Y5148766D01*
G01X2603251Y5146099D01*
G01X2603251Y5146099D01*
G01X2608014Y5144575D01*
G01X2613157Y5144067D01*
G01X2617285Y5144353D01*
G01X2621031Y5145210D01*
G01X2624396Y5146639D01*
G01X2627381Y5148639D01*
G01X2629889Y5151259D01*
G01X2632080Y5154291D01*
G01X2633954Y5157736D01*
G01X2635509Y5161593D01*
G01X2639827Y5171753D01*
G01X2644145Y5181659D01*
G01X2645256Y5183215D01*
G01X2646558Y5184326D01*
G01X2648051Y5184993D01*
G01X2649733Y5185215D01*
G01X2651511Y5185040D01*
G01X2653035Y5184516D01*
G01X2654305Y5183643D01*
G01X2655321Y5182421D01*
G01X2656845Y5179120D01*
G01X2657353Y5174801D01*
G01X2656909Y5169149D01*
G01X2655575Y5164387D01*
G01X2653479Y5160069D01*
G01X2650749Y5155751D01*
G01X2662433Y5146353D01*
G01X2667132Y5152322D01*
G01X2670561Y5159053D01*
G01X2672656Y5166356D01*
G01X2673355Y5174039D01*
G01X2672911Y5180389D01*
G01X2671577Y5186231D01*
G01X2669228Y5191438D01*
G01X2666243Y5195883D01*
G01X2662623Y5199312D01*
G01X2658369Y5201979D01*
G01X2653670Y5203694D01*
G01X2648717Y5204265D01*
G01X2644399Y5203884D01*
G01X2640589Y5202741D01*
G01X2637224Y5201154D01*
G01X2634239Y5198931D01*
G01X2631636Y5196264D01*
G01X2629413Y5193343D01*
G01X2626111Y5186739D01*
G01X2621539Y5175817D01*
G01X2619253Y5170483D01*
G01X2616967Y5166673D01*
G01X2615824Y5165086D01*
G01X2614427Y5163879D01*
G01X2612903Y5163308D01*
G01X2610871Y5163117D01*
G01X2609315Y5163292D01*
G01X2607950Y5163816D01*
G01X2606776Y5164689D01*
G01X2605791Y5165911D01*
G01X2604902Y5167514D01*
G01X2604267Y5169530D01*
G01X2603759Y5174801D01*
G01X2604331Y5180770D01*
G01X2606045Y5186485D01*
G01X2608903Y5191819D01*
G01X2612395Y5196645D01*
G01X2599441Y5207567D01*
G01X2594298Y5200391D01*
G01X2592250Y5196565D01*
G01X2590551Y5192581D01*
G01X2588265Y5184390D01*
G01X2587694Y5180246D01*
G01X2587503Y5176071D01*
G01X2563627Y5176071D01*
G01X2563627Y5240968D01*
G01X2630429Y5274369D01*
G01X2697231Y5240968D01*
G01X2697231Y4925627D01*
G37*
G36*
G01X2439370Y4921716D02*
G01X2305766Y4921716D01*
G01X2305766Y5015696D01*
G01X2329642Y5015696D01*
G01X2329833Y5011548D01*
G01X2330404Y5007615D01*
G01X2331357Y5003896D01*
G01X2332690Y5000392D01*
G01X2334405Y4997102D01*
G01X2336500Y4994026D01*
G01X2338977Y4991165D01*
G01X2338977Y4991165D01*
G01X2341834Y4988518D01*
G01X2353010Y4998678D01*
G01X2350089Y5002044D01*
G01X2347930Y5005536D01*
G01X2346407Y5009473D01*
G01X2345898Y5013664D01*
G01X2346327Y5018157D01*
G01X2347613Y5022236D01*
G01X2349756Y5025903D01*
G01X2352756Y5029158D01*
G01X2356678Y5031603D01*
G01X2361329Y5033349D01*
G01X2366711Y5034396D01*
G01X2372822Y5034746D01*
G01X2378665Y5034428D01*
G01X2383998Y5033476D01*
G01X2388507Y5031634D01*
G01X2392380Y5029158D01*
G01X2395301Y5026173D01*
G01X2397460Y5022808D01*
G01X2398984Y5018807D01*
G01X2399492Y5014426D01*
G01X2399048Y5010298D01*
G01X2397714Y5006552D01*
G01X2395872Y5003186D01*
G01X2393396Y5000202D01*
G01X2405080Y4989788D01*
G01X2408763Y4994613D01*
G01X2412192Y5000456D01*
G01X2413637Y5003710D01*
G01X2414669Y5007123D01*
G01X2415288Y5010695D01*
G01X2415494Y5014426D01*
G01X2414795Y5022554D01*
G01X2412700Y5030174D01*
G01X2411018Y5033619D01*
G01X2409018Y5036841D01*
G01X2406700Y5039842D01*
G01X2404064Y5042620D01*
G01X2401111Y5045144D01*
G01X2397841Y5047382D01*
G01X2394253Y5049335D01*
G01X2390348Y5051002D01*
G01X2386252Y5052335D01*
G01X2381839Y5053288D01*
G01X2377108Y5053859D01*
G01X2372060Y5054050D01*
G01X2367013Y5053859D01*
G01X2362282Y5053288D01*
G01X2357869Y5052335D01*
G01X2353772Y5051002D01*
G01X2349978Y5049335D01*
G01X2346470Y5047382D01*
G01X2343247Y5045144D01*
G01X2340310Y5042620D01*
G01X2337818Y5039857D01*
G01X2335675Y5036905D01*
G01X2333881Y5033761D01*
G01X2332436Y5030428D01*
G01X2330341Y5023316D01*
G01X2329642Y5015696D01*
G01X2305766Y5015696D01*
G01X2305766Y5091896D01*
G01X2329642Y5091896D01*
G01X2329833Y5087748D01*
G01X2330404Y5083815D01*
G01X2331357Y5080096D01*
G01X2332690Y5076592D01*
G01X2334405Y5073302D01*
G01X2336500Y5070226D01*
G01X2338977Y5067365D01*
G01X2338977Y5067365D01*
G01X2341834Y5064718D01*
G01X2353010Y5074878D01*
G01X2350089Y5078116D01*
G01X2347930Y5081736D01*
G01X2346407Y5085673D01*
G01X2345898Y5089864D01*
G01X2346327Y5094357D01*
G01X2347613Y5098436D01*
G01X2349756Y5102103D01*
G01X2352756Y5105358D01*
G01X2356678Y5107803D01*
G01X2361329Y5109549D01*
G01X2366711Y5110596D01*
G01X2372822Y5110946D01*
G01X2378665Y5110628D01*
G01X2383998Y5109676D01*
G01X2388507Y5107834D01*
G01X2392380Y5105358D01*
G01X2395301Y5102373D01*
G01X2397460Y5099008D01*
G01X2398984Y5095007D01*
G01X2399492Y5090626D01*
G01X2399048Y5086498D01*
G01X2397714Y5082752D01*
G01X2395872Y5079386D01*
G01X2393396Y5076402D01*
G01X2405080Y5065988D01*
G01X2408763Y5070813D01*
G01X2412192Y5076656D01*
G01X2413637Y5079910D01*
G01X2414669Y5083323D01*
G01X2415288Y5086895D01*
G01X2415494Y5090626D01*
G01X2414795Y5098754D01*
G01X2412700Y5106374D01*
G01X2411018Y5109819D01*
G01X2409018Y5113041D01*
G01X2406700Y5116042D01*
G01X2404064Y5118820D01*
G01X2401111Y5121344D01*
G01X2397841Y5123582D01*
G01X2394253Y5125535D01*
G01X2390348Y5127202D01*
G01X2386252Y5128535D01*
G01X2381839Y5129488D01*
G01X2377108Y5130059D01*
G01X2372060Y5130250D01*
G01X2367013Y5130059D01*
G01X2362282Y5129488D01*
G01X2357869Y5128535D01*
G01X2353772Y5127202D01*
G01X2346470Y5123454D01*
G01X2340310Y5118820D01*
G01X2337818Y5116057D01*
G01X2335675Y5113105D01*
G01X2333881Y5109961D01*
G01X2332436Y5106628D01*
G01X2330341Y5099516D01*
G01X2329642Y5091896D01*
G01X2305766Y5091896D01*
G01X2305766Y5163778D01*
G01X2331166Y5163778D01*
G01X2413970Y5138886D01*
G01X2413970Y5157936D01*
G01X2375362Y5167842D01*
G01X2348946Y5174446D01*
G01X2348946Y5174954D01*
G01X2375362Y5181558D01*
G01X2413970Y5191718D01*
G01X2413970Y5211530D01*
G01X2331166Y5186384D01*
G01X2331166Y5163778D01*
G01X2331166Y5163778D01*
G01X2305766Y5163778D01*
G01X2305766Y5244804D01*
G01X2372568Y5278205D01*
G01X2439370Y5244804D01*
G01X2439370Y4921716D01*
G37*
G36*
G01X2187580Y4923976D02*
G01X2053976Y4923976D01*
G01X2053976Y5053516D01*
G01X2079376Y5053516D01*
G01X2079376Y5029640D01*
G01X2080011Y5021321D01*
G01X2081916Y5013638D01*
G01X2083345Y5010209D01*
G01X2085092Y5007034D01*
G01X2087155Y5004113D01*
G01X2089536Y5001446D01*
G01X2092266Y4999049D01*
G01X2095378Y4996938D01*
G01X2098871Y4995112D01*
G01X2102744Y4993572D01*
G01X2106856Y4992350D01*
G01X2106856Y4992350D01*
G01X2111317Y4991477D01*
G01X2121286Y4990778D01*
G01X2131064Y4991477D01*
G01X2135478Y4992350D01*
G01X2139574Y4993572D01*
G01X2143321Y4995128D01*
G01X2146686Y4997001D01*
G01X2149670Y4999192D01*
G01X2152274Y5001700D01*
G01X2154655Y5004399D01*
G01X2156718Y5007415D01*
G01X2158465Y5010749D01*
G01X2159894Y5014400D01*
G01X2161609Y5022020D01*
G01X2162180Y5030656D01*
G01X2162180Y5053516D01*
G01X2079376Y5053516D01*
G01X2053976Y5053516D01*
G01X2053976Y5070788D01*
G01X2079376Y5070788D01*
G01X2162180Y5070788D01*
G01X2162180Y5088822D01*
G01X2132716Y5088822D01*
G01X2125224Y5088568D01*
G01X2117476Y5087806D01*
G01X2102744Y5086028D01*
G01X2102744Y5086536D01*
G01X2121032Y5093648D01*
G01X2162180Y5111174D01*
G01X2162180Y5130224D01*
G01X2079376Y5130224D01*
G01X2079376Y5112190D01*
G01X2108840Y5112190D01*
G01X2116332Y5112444D01*
G01X2124080Y5113206D01*
G01X2138558Y5114984D01*
G01X2138558Y5114476D01*
G01X2120778Y5107364D01*
G01X2079376Y5089838D01*
G01X2079376Y5070788D01*
G01X2079376Y5070788D01*
G01X2053976Y5070788D01*
G01X2053976Y5171118D01*
G01X2077852Y5171118D01*
G01X2078043Y5167244D01*
G01X2078614Y5163498D01*
G01X2079567Y5159879D01*
G01X2080900Y5156386D01*
G01X2084202Y5150227D01*
G01X2088012Y5145464D01*
G01X2088012Y5145464D01*
G01X2125858Y5145464D01*
G01X2125858Y5174166D01*
G01X2110872Y5174166D01*
G01X2110872Y5161974D01*
G01X2096648Y5161974D01*
G01X2094616Y5165530D01*
G01X2094108Y5170102D01*
G01X2094537Y5174849D01*
G01X2095823Y5178929D01*
G01X2097966Y5182342D01*
G01X2100966Y5185088D01*
G01X2104888Y5187200D01*
G01X2109539Y5188708D01*
G01X2114920Y5189613D01*
G01X2121032Y5189914D01*
G01X2126874Y5189533D01*
G01X2132208Y5188390D01*
G01X2136717Y5186739D01*
G01X2140590Y5184326D01*
G01X2143511Y5181722D01*
G01X2145670Y5178484D01*
G01X2147194Y5174928D01*
G01X2147702Y5170864D01*
G01X2147258Y5166482D01*
G01X2145924Y5162990D01*
G01X2144082Y5159879D01*
G01X2141606Y5157148D01*
G01X2153290Y5146734D01*
G01X2156973Y5151243D01*
G01X2160402Y5156640D01*
G01X2161847Y5159720D01*
G01X2162879Y5163117D01*
G01X2163498Y5166832D01*
G01X2163704Y5170864D01*
G01X2163005Y5178674D01*
G01X2160910Y5185850D01*
G01X2159227Y5189280D01*
G01X2157227Y5192455D01*
G01X2154910Y5195376D01*
G01X2152274Y5198042D01*
G01X2149432Y5200455D01*
G01X2146241Y5202614D01*
G01X2138812Y5206170D01*
G01X2134605Y5207504D01*
G01X2130113Y5208456D01*
G01X2125334Y5209028D01*
G01X2120270Y5209218D01*
G01X2115222Y5209028D01*
G01X2110492Y5208456D01*
G01X2106078Y5207504D01*
G01X2101982Y5206170D01*
G01X2094680Y5202805D01*
G01X2091457Y5200693D01*
G01X2088520Y5198296D01*
G01X2086028Y5195630D01*
G01X2083885Y5192709D01*
G01X2082091Y5189534D01*
G01X2080646Y5186104D01*
G01X2078551Y5178928D01*
G01X2077852Y5171118D01*
G01X2053976Y5171118D01*
G01X2053976Y5242619D01*
G01X2120778Y5276020D01*
G01X2187580Y5242619D01*
G01X2187580Y4923976D01*
G37*
G36*
G01X2128016Y5010463D02*
G01X2121286Y5010082D01*
G01X2114301Y5010463D01*
G01X2108586Y5011606D01*
G01X2104014Y5013448D01*
G01X2100458Y5015924D01*
G01X2097663Y5019163D01*
G01X2095886Y5022782D01*
G01X2094743Y5027037D01*
G01X2094362Y5031672D01*
G01X2094362Y5034720D01*
G01X2147194Y5034720D01*
G01X2147194Y5031672D01*
G01X2146876Y5027037D01*
G01X2145924Y5022782D01*
G01X2144082Y5019163D01*
G01X2141606Y5015924D01*
G01X2138050Y5013448D01*
G01X2133478Y5011606D01*
G01X2128016Y5010463D01*
G37*
G04 Image End*

G04 Text Start*
G36*
G01X3752171Y2301386D02*
G01X3743397Y2300924D01*
G01X3735084Y2301386D01*
G01X3731851Y2302309D01*
G01X3729542Y2302771D01*
G01X3729542Y2324014D01*
G01X3732313Y2323091D01*
G01X3738317Y2321706D01*
G01X3745706Y2321706D01*
G01X3752633Y2323091D01*
G01X3756789Y2324938D01*
G01X3760484Y2327247D01*
G01X3763717Y2330018D01*
G01X3765564Y2332327D01*
G01X3767873Y2335560D01*
G01X3770182Y2339254D01*
G01X3772029Y2342949D01*
G01X3775724Y2352186D01*
G01X3779418Y2360498D01*
G01X3781266Y2365116D01*
G01X3783113Y2369273D01*
G01X3784498Y2372967D01*
G01X3784037Y2376662D01*
G01X3778495Y2390516D01*
G01X3776648Y2395596D01*
G01X3771106Y2409451D01*
G01X3769258Y2414531D01*
G01X3761869Y2433004D01*
G01X3760022Y2438084D01*
G01X3754480Y2451938D01*
G01X3752633Y2457018D01*
G01X3745244Y2475491D01*
G01X3743397Y2480571D01*
G01X3739702Y2489807D01*
G01X3737855Y2494887D01*
G01X3732313Y2508742D01*
G01X3729542Y2516131D01*
G01X3725848Y2525367D01*
G01X3724462Y2529062D01*
G01X3724000Y2530909D01*
G01X3735546Y2530909D01*
G01X3748477Y2530447D01*
G01X3750786Y2528138D01*
G01X3753557Y2520749D01*
G01X3756328Y2512436D01*
G01X3758175Y2507818D01*
G01X3761869Y2496734D01*
G01X3763717Y2492116D01*
G01X3766488Y2483804D01*
G01X3769258Y2476414D01*
G01X3772029Y2468102D01*
G01X3774800Y2460713D01*
G01X3777571Y2452400D01*
G01X3780342Y2445011D01*
G01X3783113Y2436698D01*
G01X3784960Y2432080D01*
G01X3788655Y2420996D01*
G01X3790502Y2416378D01*
G01X3793273Y2408066D01*
G01X3794658Y2403447D01*
G01X3796044Y2399291D01*
G01X3796968Y2398598D01*
G01X3797891Y2399291D01*
G01X3799277Y2403447D01*
G01X3800662Y2408066D01*
G01X3802048Y2412222D01*
G01X3810360Y2434389D01*
G01X3811746Y2438546D01*
G01X3813593Y2443164D01*
G01X3817288Y2453324D01*
G01X3819135Y2457942D01*
G01X3820520Y2462098D01*
G01X3831604Y2491654D01*
G01X3832989Y2495811D01*
G01X3835760Y2503200D01*
G01X3837608Y2507818D01*
G01X3844997Y2528138D01*
G01X3845920Y2530909D01*
G01X3869935Y2530909D01*
G01X3869011Y2528600D01*
G01X3867164Y2524444D01*
G01X3861622Y2510589D01*
G01X3859775Y2505509D01*
G01X3832066Y2436236D01*
G01X3830218Y2431156D01*
G01X3800662Y2357266D01*
G01X3798815Y2352186D01*
G01X3796968Y2347567D01*
G01X3795120Y2343873D01*
G01X3792349Y2337407D01*
G01X3790502Y2334174D01*
G01X3788193Y2330018D01*
G01X3785422Y2325862D01*
G01X3783113Y2322629D01*
G01X3779418Y2318011D01*
G01X3772491Y2311084D01*
G01X3768797Y2308313D01*
G01X3764178Y2305542D01*
G01X3760022Y2303694D01*
G01X3755866Y2302309D01*
G01X3752171Y2301386D01*
G37*
G36*
G01X2335313Y2371582D02*
G01X2318226Y2371120D01*
G01X2300677Y2371582D01*
G01X2296520Y2372506D01*
G01X2292826Y2373429D01*
G01X2288208Y2374353D01*
G01X2283128Y2375738D01*
G01X2278971Y2377124D01*
G01X2275277Y2378509D01*
G01X2266964Y2382204D01*
G01X2263731Y2384051D01*
G01X2260037Y2386360D01*
G01X2256804Y2388207D01*
G01X2249877Y2393749D01*
G01X2239717Y2403909D01*
G01X2236022Y2408527D01*
G01X2232789Y2413146D01*
G01X2230480Y2416378D01*
G01X2228633Y2419611D01*
G01X2224938Y2427000D01*
G01X2223091Y2431156D01*
G01X2221244Y2435774D01*
G01X2218011Y2445473D01*
G01X2216164Y2454709D01*
G01X2215240Y2461174D01*
G01X2214778Y2466716D01*
G01X2214317Y2475029D01*
G01X2214317Y2480571D01*
G01X2214778Y2486113D01*
G01X2215240Y2494426D01*
G01X2216164Y2501814D01*
G01X2217088Y2506433D01*
G01X2218011Y2511513D01*
G01X2219397Y2517054D01*
G01X2222168Y2525367D01*
G01X2224015Y2529986D01*
G01X2225862Y2534142D01*
G01X2230018Y2542454D01*
G01X2234637Y2549844D01*
G01X2239255Y2556309D01*
G01X2247568Y2566007D01*
G01X2249877Y2568316D01*
G01X2259113Y2575706D01*
G01X2262346Y2578476D01*
G01X2266964Y2581247D01*
G01X2270197Y2583556D01*
G01X2272968Y2584942D01*
G01X2276200Y2586327D01*
G01X2279895Y2588174D01*
G01X2284513Y2590022D01*
G01X2289593Y2591869D01*
G01X2293749Y2593254D01*
G01X2302986Y2595102D01*
G01X2309451Y2596026D01*
G01X2325153Y2596487D01*
G01X2340855Y2596026D01*
G01X2348244Y2595102D01*
G01X2353786Y2594178D01*
G01X2361175Y2592793D01*
G01X2365793Y2591407D01*
G01X2369949Y2590022D01*
G01X2375029Y2588174D01*
G01X2377338Y2587251D01*
G01X2377338Y2574782D01*
G01X2376992Y2565546D01*
G01X2375953Y2562774D01*
G01X2369488Y2566007D01*
G01X2364869Y2567854D01*
G01X2359328Y2569702D01*
G01X2353324Y2571549D01*
G01X2347320Y2572934D01*
G01X2342702Y2573858D01*
G01X2330695Y2574782D01*
G01X2325153Y2575244D01*
G01X2319611Y2574782D01*
G01X2310375Y2573858D01*
G01X2304833Y2572934D01*
G01X2298829Y2571549D01*
G01X2290517Y2568778D01*
G01X2286360Y2566931D01*
G01X2282666Y2565084D01*
G01X2278971Y2562774D01*
G01X2274815Y2560004D01*
G01X2271582Y2557694D01*
G01X2260037Y2546149D01*
G01X2257266Y2542454D01*
G01X2252648Y2535527D01*
G01X2250800Y2532294D01*
G01X2248953Y2528600D01*
G01X2246182Y2522134D01*
G01X2244797Y2517978D01*
G01X2243411Y2513360D01*
G01X2242026Y2508280D01*
G01X2241102Y2503662D01*
G01X2240178Y2497196D01*
G01X2239717Y2482880D01*
G01X2240178Y2468564D01*
G01X2241102Y2461174D01*
G01X2242026Y2456556D01*
G01X2243411Y2450091D01*
G01X2245258Y2444087D01*
G01X2247106Y2439469D01*
G01X2248953Y2435313D01*
G01X2251262Y2430694D01*
G01X2254033Y2426538D01*
G01X2255880Y2423306D01*
G01X2257728Y2420996D01*
G01X2263269Y2414531D01*
G01X2265578Y2412222D01*
G01X2270197Y2408527D01*
G01X2273429Y2405756D01*
G01X2277586Y2402986D01*
G01X2281742Y2400676D01*
G01X2285437Y2398829D01*
G01X2289131Y2397444D01*
G01X2293288Y2396058D01*
G01X2297906Y2394673D01*
G01X2302062Y2393749D01*
G01X2308528Y2392826D01*
G01X2318226Y2392364D01*
G01X2327924Y2392826D01*
G01X2331157Y2393287D01*
G01X2337160Y2393749D01*
G01X2342702Y2394673D01*
G01X2347782Y2395596D01*
G01X2353324Y2396982D01*
G01X2361637Y2399753D01*
G01X2365793Y2401600D01*
G01X2370411Y2403447D01*
G01X2373644Y2405294D01*
G01X2375953Y2406218D01*
G01X2376992Y2403447D01*
G01X2377338Y2395134D01*
G01X2376877Y2386591D01*
G01X2375491Y2383127D01*
G01X2367178Y2379433D01*
G01X2362560Y2377586D01*
G01X2356557Y2375738D01*
G01X2351938Y2374353D01*
G01X2342702Y2372506D01*
G01X2335313Y2371582D01*
G37*
G36*
G01X3648724Y2372506D02*
G01X3642258Y2371582D01*
G01X3628866Y2371120D01*
G01X3615935Y2371582D01*
G01X3612702Y2372506D01*
G01X3609008Y2373429D01*
G01X3604851Y2374353D01*
G01X3600233Y2375738D01*
G01X3596077Y2377586D01*
G01X3592382Y2379433D01*
G01X3589149Y2381280D01*
G01X3584993Y2384051D01*
G01X3580375Y2387746D01*
G01X3576680Y2390516D01*
G01X3574371Y2392826D01*
G01X3570677Y2397444D01*
G01X3566058Y2403909D01*
G01X3564211Y2406680D01*
G01X3562364Y2410374D01*
G01X3560517Y2414531D01*
G01X3557746Y2422844D01*
G01X3556360Y2427462D01*
G01X3555437Y2431618D01*
G01X3554513Y2439931D01*
G01X3554051Y2449167D01*
G01X3554305Y2454247D01*
G01X3578066Y2454247D01*
G01X3578528Y2441778D01*
G01X3579451Y2436236D01*
G01X3579913Y2433004D01*
G01X3580837Y2429309D01*
G01X3582222Y2425153D01*
G01X3583608Y2421458D01*
G01X3585455Y2417764D01*
G01X3587764Y2413607D01*
G01X3590073Y2409913D01*
G01X3592382Y2407142D01*
G01X3597924Y2401600D01*
G01X3601618Y2398829D01*
G01X3604389Y2396982D01*
G01X3608084Y2395134D01*
G01X3612702Y2393287D01*
G01X3616397Y2391902D01*
G01X3621015Y2391440D01*
G01X3621015Y2391440D01*
G01X3624709Y2390978D01*
G01X3629328Y2390516D01*
G01X3636717Y2390978D01*
G01X3643182Y2391902D01*
G01X3649186Y2393287D01*
G01X3654266Y2395134D01*
G01X3658884Y2397444D01*
G01X3662117Y2399753D01*
G01X3664426Y2401600D01*
G01X3670429Y2407604D01*
G01X3672738Y2410836D01*
G01X3675048Y2414531D01*
G01X3676895Y2417764D01*
G01X3678280Y2421458D01*
G01X3679666Y2425614D01*
G01X3681051Y2431156D01*
G01X3681975Y2436236D01*
G01X3682437Y2450091D01*
G01X3681975Y2464869D01*
G01X3681051Y2470411D01*
G01X3679666Y2476876D01*
G01X3677818Y2482880D01*
G01X3675971Y2487036D01*
G01X3674124Y2490731D01*
G01X3671353Y2495349D01*
G01X3668582Y2499044D01*
G01X3663964Y2503662D01*
G01X3661193Y2505971D01*
G01X3657498Y2508280D01*
G01X3653804Y2510127D01*
G01X3650571Y2511513D01*
G01X3645953Y2512898D01*
G01X3641335Y2513822D01*
G01X3632098Y2514284D01*
G01X3622862Y2513822D01*
G01X3618244Y2512898D01*
G01X3612702Y2511513D01*
G01X3608084Y2509666D01*
G01X3601618Y2506433D01*
G01X3597000Y2502738D01*
G01X3595153Y2500891D01*
G01X3593306Y2498582D01*
G01X3590997Y2496273D01*
G01X3588688Y2493040D01*
G01X3586378Y2489346D01*
G01X3584531Y2486113D01*
G01X3583146Y2482880D01*
G01X3581760Y2479186D01*
G01X3580375Y2474567D01*
G01X3579451Y2470411D01*
G01X3578528Y2463946D01*
G01X3578066Y2454247D01*
G01X3554305Y2454247D01*
G01X3554513Y2458404D01*
G01X3555437Y2466716D01*
G01X3557284Y2475953D01*
G01X3558208Y2480109D01*
G01X3559593Y2484727D01*
G01X3561440Y2489346D01*
G01X3563288Y2493502D01*
G01X3565135Y2497196D01*
G01X3567444Y2501353D01*
G01X3569753Y2505047D01*
G01X3572062Y2507818D01*
G01X3574833Y2511051D01*
G01X3578528Y2514746D01*
G01X3584993Y2520287D01*
G01X3588226Y2522596D01*
G01X3591458Y2524444D01*
G01X3598848Y2528138D01*
G01X3603928Y2529986D01*
G01X3608084Y2531371D01*
G01X3617320Y2533218D01*
G01X3628404Y2534142D01*
G01X3631637Y2534604D01*
G01X3634869Y2534142D01*
G01X3639026Y2533680D01*
G01X3645029Y2533218D01*
G01X3650571Y2532294D01*
G01X3657960Y2530447D01*
G01X3662117Y2529062D01*
G01X3670429Y2525367D01*
G01X3673662Y2523520D01*
G01X3676433Y2521673D01*
G01X3683822Y2516131D01*
G01X3687055Y2512898D01*
G01X3690749Y2508280D01*
G01X3693982Y2503662D01*
G01X3696291Y2499967D01*
G01X3698138Y2496273D01*
G01X3699986Y2492116D01*
G01X3702757Y2483804D01*
G01X3704142Y2479186D01*
G01X3705066Y2475029D01*
G01X3705989Y2467640D01*
G01X3706451Y2456094D01*
G01X3705989Y2441778D01*
G01X3705066Y2435313D01*
G01X3704142Y2430694D01*
G01X3703218Y2427000D01*
G01X3702295Y2422844D01*
G01X3700909Y2418687D01*
G01X3697215Y2410374D01*
G01X3695368Y2407142D01*
G01X3690749Y2399753D01*
G01X3688440Y2396982D01*
G01X3686593Y2394673D01*
G01X3684284Y2392364D01*
G01X3681513Y2390054D01*
G01X3678280Y2386822D01*
G01X3674586Y2384051D01*
G01X3671353Y2381742D01*
G01X3667197Y2379433D01*
G01X3663502Y2377586D01*
G01X3659346Y2375738D01*
G01X3653342Y2373891D01*
G01X3648724Y2372506D01*
G37*
G36*
G01X2660433Y2371582D02*
G01X2648888Y2371120D01*
G01X2637804Y2371582D01*
G01X2634571Y2372506D01*
G01X2629491Y2373891D01*
G01X2625335Y2375738D01*
G01X2621640Y2377586D01*
G01X2617484Y2379894D01*
G01X2614251Y2382204D01*
G01X2606400Y2390054D01*
G01X2604091Y2393749D01*
G01X2602244Y2395596D01*
G01X2601205Y2393287D01*
G01X2600858Y2385436D01*
G01X2600858Y2374814D01*
G01X2576844Y2374814D01*
G01X2576844Y2451476D01*
G01X2600858Y2451476D01*
G01X2601320Y2431618D01*
G01X2602244Y2426538D01*
G01X2603629Y2420996D01*
G01X2605477Y2416840D01*
G01X2608709Y2410374D01*
G01X2610557Y2408066D01*
G01X2616098Y2401600D01*
G01X2618408Y2399753D01*
G01X2621640Y2397444D01*
G01X2625335Y2395134D01*
G01X2629491Y2393287D01*
G01X2633648Y2391902D01*
G01X2637804Y2391440D01*
G01X2637804Y2391440D01*
G01X2641037Y2390978D01*
G01X2645655Y2390516D01*
G01X2651197Y2390978D01*
G01X2654429Y2391440D01*
G01X2659048Y2392364D01*
G01X2664589Y2394211D01*
G01X2669669Y2396520D01*
G01X2676135Y2401138D01*
G01X2679368Y2403909D01*
G01X2683062Y2408527D01*
G01X2685371Y2411760D01*
G01X2687680Y2415916D01*
G01X2689528Y2420073D01*
G01X2691375Y2424691D01*
G01X2692760Y2428847D01*
G01X2694608Y2438084D01*
G01X2695531Y2447320D01*
G01X2695993Y2455633D01*
G01X2695531Y2463946D01*
G01X2695069Y2467178D01*
G01X2694608Y2471334D01*
G01X2693684Y2475953D01*
G01X2691837Y2483342D01*
G01X2690451Y2487036D01*
G01X2688604Y2490731D01*
G01X2686295Y2494887D01*
G01X2684448Y2498120D01*
G01X2682600Y2500429D01*
G01X2677982Y2505047D01*
G01X2674749Y2507356D01*
G01X2671055Y2509666D01*
G01X2667360Y2511513D01*
G01X2663204Y2512898D01*
G01X2659509Y2513822D01*
G01X2651658Y2514284D01*
G01X2642884Y2513822D01*
G01X2638266Y2512898D01*
G01X2634571Y2511974D01*
G01X2631338Y2511051D01*
G01X2628106Y2509666D01*
G01X2624411Y2507356D01*
G01X2621178Y2505047D01*
G01X2618869Y2503662D01*
G01X2616098Y2500891D01*
G01X2610557Y2494426D01*
G01X2608248Y2490731D01*
G01X2606400Y2487498D01*
G01X2604553Y2483342D01*
G01X2603168Y2479647D01*
G01X2601320Y2471334D01*
G01X2600858Y2451476D01*
G01X2576844Y2451476D01*
G01X2576844Y2605724D01*
G01X2600858Y2605724D01*
G01X2600858Y2556309D01*
G01X2601320Y2505509D01*
G01X2602013Y2504816D01*
G01X2603168Y2505509D01*
G01X2605015Y2508280D01*
G01X2610557Y2515207D01*
G01X2615175Y2519826D01*
G01X2618869Y2522596D01*
G01X2623488Y2525829D01*
G01X2627182Y2528138D01*
G01X2630415Y2529524D01*
G01X2634109Y2530909D01*
G01X2638728Y2532294D01*
G01X2642884Y2533218D01*
G01X2646578Y2533680D01*
G01X2652120Y2534142D01*
G01X2656738Y2534142D01*
G01X2665975Y2533218D01*
G01X2671055Y2532294D01*
G01X2676597Y2530909D01*
G01X2680291Y2529524D01*
G01X2684448Y2527676D01*
G01X2688142Y2525367D01*
G01X2690913Y2523982D01*
G01X2693222Y2522134D01*
G01X2698764Y2517516D01*
G01X2700611Y2515207D01*
G01X2703382Y2511974D01*
G01X2706153Y2508280D01*
G01X2708000Y2505509D01*
G01X2709848Y2502276D01*
G01X2711695Y2498582D01*
G01X2713542Y2493964D01*
G01X2716775Y2484266D01*
G01X2718622Y2475029D01*
G01X2719546Y2465793D01*
G01X2720008Y2458404D01*
G01X2719546Y2451014D01*
G01X2718622Y2440854D01*
G01X2717698Y2435313D01*
G01X2716313Y2427924D01*
G01X2714928Y2423306D01*
G01X2714004Y2419611D01*
G01X2712618Y2415916D01*
G01X2708924Y2407604D01*
G01X2707077Y2404371D01*
G01X2704768Y2400676D01*
G01X2702458Y2397444D01*
G01X2698764Y2392826D01*
G01X2690913Y2384974D01*
G01X2687218Y2382204D01*
G01X2684909Y2380356D01*
G01X2681677Y2378509D01*
G01X2677982Y2376662D01*
G01X2674288Y2375276D01*
G01X2670131Y2373891D01*
G01X2665051Y2372506D01*
G01X2660433Y2371582D01*
G37*
G36*
G01X2467393Y2371582D02*
G01X2455848Y2371120D01*
G01X2444764Y2371582D01*
G01X2442455Y2372506D01*
G01X2438298Y2373429D01*
G01X2434142Y2374814D01*
G01X2426753Y2378509D01*
G01X2423982Y2380356D01*
G01X2419364Y2384051D01*
G01X2417055Y2386360D01*
G01X2414284Y2390054D01*
G01X2411513Y2394673D01*
G01X2409666Y2398829D01*
G01X2408280Y2403909D01*
G01X2407357Y2408527D01*
G01X2406895Y2413146D01*
G01X2407291Y2418687D01*
G01X2431833Y2418687D01*
G01X2432757Y2408989D01*
G01X2434604Y2404833D01*
G01X2436913Y2401138D01*
G01X2439684Y2397906D01*
G01X2442917Y2395596D01*
G01X2447073Y2393287D01*
G01X2450768Y2391902D01*
G01X2455848Y2391440D01*
G01X2461389Y2390978D01*
G01X2461389Y2390978D01*
G01X2464622Y2390978D01*
G01X2468317Y2391440D01*
G01X2473858Y2392364D01*
G01X2479400Y2394211D01*
G01X2484018Y2396520D01*
G01X2487251Y2398829D01*
G01X2489560Y2400214D01*
G01X2492793Y2402986D01*
G01X2495564Y2406680D01*
G01X2497411Y2408989D01*
G01X2499258Y2411760D01*
G01X2501106Y2414993D01*
G01X2502491Y2418687D01*
G01X2503877Y2422844D01*
G01X2504800Y2426538D01*
G01X2505262Y2429771D01*
G01X2505724Y2442240D01*
G01X2505724Y2453324D01*
G01X2503415Y2453324D01*
G01X2492331Y2451938D01*
G01X2485866Y2451014D01*
G01X2478477Y2450091D01*
G01X2462313Y2447782D01*
G01X2457233Y2446858D01*
G01X2452615Y2445473D01*
G01X2448458Y2444087D01*
G01X2444302Y2442240D01*
G01X2440608Y2439931D01*
G01X2436451Y2436236D01*
G01X2433680Y2431156D01*
G01X2432295Y2427000D01*
G01X2431833Y2418687D01*
G01X2407291Y2418687D01*
G01X2407357Y2419611D01*
G01X2408280Y2426076D01*
G01X2409666Y2432080D01*
G01X2411513Y2437160D01*
G01X2413822Y2441778D01*
G01X2418440Y2448244D01*
G01X2421211Y2451014D01*
G01X2423520Y2452862D01*
G01X2426753Y2455633D01*
G01X2430448Y2457942D01*
G01X2434142Y2459789D01*
G01X2438760Y2461636D01*
G01X2444302Y2463484D01*
G01X2448920Y2464869D01*
G01X2459080Y2466716D01*
G01X2497873Y2472258D01*
G01X2502491Y2472720D01*
G01X2504916Y2473182D01*
G01X2505724Y2474567D01*
G01X2505262Y2480571D01*
G01X2504338Y2486113D01*
G01X2503877Y2489346D01*
G01X2502953Y2493040D01*
G01X2501568Y2496734D01*
G01X2499720Y2500429D01*
G01X2497873Y2503662D01*
G01X2496026Y2505509D01*
G01X2493717Y2507356D01*
G01X2490946Y2509666D01*
G01X2487713Y2511513D01*
G01X2483095Y2512898D01*
G01X2478477Y2513822D01*
G01X2472473Y2514284D01*
G01X2466469Y2513822D01*
G01X2460004Y2512898D01*
G01X2455386Y2511974D01*
G01X2450306Y2510589D01*
G01X2446149Y2509204D01*
G01X2442455Y2507818D01*
G01X2438760Y2505971D01*
G01X2434604Y2503662D01*
G01X2430448Y2500891D01*
G01X2427215Y2498582D01*
G01X2424444Y2496734D01*
G01X2422597Y2495811D01*
G01X2422597Y2507818D01*
G01X2423058Y2517054D01*
G01X2424444Y2520749D01*
G01X2427215Y2522596D01*
G01X2430909Y2524444D01*
G01X2439222Y2528138D01*
G01X2448920Y2531371D01*
G01X2458157Y2533218D01*
G01X2469240Y2534142D01*
G01X2473397Y2534604D01*
G01X2477553Y2534142D01*
G01X2481248Y2533680D01*
G01X2486789Y2533218D01*
G01X2491408Y2532294D01*
G01X2495564Y2531371D01*
G01X2499720Y2529986D01*
G01X2509880Y2524906D01*
G01X2512189Y2523058D01*
G01X2517731Y2517516D01*
G01X2520964Y2512898D01*
G01X2523273Y2509204D01*
G01X2524658Y2505509D01*
G01X2526044Y2501353D01*
G01X2527429Y2496734D01*
G01X2528353Y2492578D01*
G01X2529277Y2482418D01*
G01X2529738Y2427924D01*
G01X2529738Y2374814D01*
G01X2505724Y2374814D01*
G01X2505724Y2386822D01*
G01X2505493Y2395712D01*
G01X2504800Y2398367D01*
G01X2502953Y2396982D01*
G01X2501106Y2393749D01*
G01X2498797Y2390516D01*
G01X2496949Y2388207D01*
G01X2494178Y2385436D01*
G01X2487713Y2379894D01*
G01X2484018Y2377586D01*
G01X2480324Y2375738D01*
G01X2476168Y2373891D01*
G01X2471549Y2372506D01*
G01X2467393Y2371582D01*
G37*
G36*
G01X3087153Y2371582D02*
G01X3072375Y2371120D01*
G01X3058520Y2371582D01*
G01X3054364Y2372506D01*
G01X3048822Y2373891D01*
G01X3044666Y2375276D01*
G01X3040971Y2376662D01*
G01X3037277Y2378509D01*
G01X3033120Y2380818D01*
G01X3029888Y2382666D01*
G01X3027578Y2384513D01*
G01X3018342Y2393749D01*
G01X3016495Y2396058D01*
G01X3012800Y2401600D01*
G01X3010953Y2404833D01*
G01X3009106Y2408527D01*
G01X3007258Y2412684D01*
G01X3004026Y2422382D01*
G01X3002178Y2432542D01*
G01X3001255Y2440854D01*
G01X3000793Y2450091D01*
G01X3001255Y2459327D01*
G01X3001717Y2462560D01*
G01X3002178Y2466716D01*
G01X3003194Y2471796D01*
G01X3026193Y2471796D01*
G01X3026193Y2467640D01*
G01X3069142Y2467178D01*
G01X3111629Y2467178D01*
G01X3111629Y2470873D01*
G01X3111168Y2475953D01*
G01X3109320Y2485189D01*
G01X3107935Y2489346D01*
G01X3106088Y2493964D01*
G01X3104240Y2497196D01*
G01X3099622Y2503662D01*
G01X3097313Y2505971D01*
G01X3095004Y2507818D01*
G01X3091771Y2509666D01*
G01X3087615Y2511513D01*
G01X3082997Y2512898D01*
G01X3078840Y2513822D01*
G01X3073760Y2514284D01*
G01X3068680Y2513822D01*
G01X3062215Y2512898D01*
G01X3058520Y2511974D01*
G01X3054826Y2510589D01*
G01X3051131Y2508742D01*
G01X3047898Y2506894D01*
G01X3040971Y2501353D01*
G01X3036353Y2495811D01*
G01X3034044Y2492578D01*
G01X3032197Y2489346D01*
G01X3030349Y2485651D01*
G01X3028502Y2480571D01*
G01X3027117Y2476876D01*
G01X3026193Y2471796D01*
G01X3026193Y2471796D01*
G01X3003194Y2471796D01*
G01X3004026Y2475953D01*
G01X3005411Y2481494D01*
G01X3007258Y2486574D01*
G01X3008644Y2490269D01*
G01X3010491Y2493964D01*
G01X3015109Y2502276D01*
G01X3017418Y2505509D01*
G01X3021113Y2510127D01*
G01X3023422Y2512436D01*
G01X3025269Y2514746D01*
G01X3027578Y2517054D01*
G01X3030349Y2519364D01*
G01X3033582Y2522134D01*
G01X3036815Y2524444D01*
G01X3040048Y2526291D01*
G01X3043742Y2528138D01*
G01X3046975Y2529524D01*
G01X3050669Y2530909D01*
G01X3055288Y2532294D01*
G01X3059444Y2533218D01*
G01X3063138Y2533680D01*
G01X3068680Y2534142D01*
G01X3073298Y2534142D01*
G01X3083458Y2533218D01*
G01X3088538Y2532294D01*
G01X3094080Y2530909D01*
G01X3098698Y2529062D01*
G01X3102855Y2527214D01*
G01X3106088Y2525367D01*
G01X3111629Y2521673D01*
G01X3114400Y2519364D01*
G01X3119018Y2514746D01*
G01X3120866Y2512436D01*
G01X3123175Y2509204D01*
G01X3125484Y2505509D01*
G01X3129178Y2498120D01*
G01X3130564Y2494426D01*
G01X3131949Y2490269D01*
G01X3133335Y2485651D01*
G01X3134258Y2481494D01*
G01X3135182Y2475029D01*
G01X3135644Y2460251D01*
G01X3135644Y2446858D01*
G01X3080226Y2446858D01*
G01X3038778Y2446627D01*
G01X3025269Y2445934D01*
G01X3025731Y2441778D01*
G01X3026193Y2436236D01*
G01X3028040Y2427000D01*
G01X3029426Y2422382D01*
G01X3031273Y2417764D01*
G01X3033582Y2413146D01*
G01X3036815Y2408527D01*
G01X3039586Y2404833D01*
G01X3041895Y2402524D01*
G01X3044204Y2400676D01*
G01X3049746Y2396982D01*
G01X3052517Y2395596D01*
G01X3055749Y2394211D01*
G01X3059444Y2392826D01*
G01X3063138Y2391902D01*
G01X3070528Y2390978D01*
G01X3075146Y2390516D01*
G01X3089000Y2391902D01*
G01X3093618Y2392826D01*
G01X3098698Y2394211D01*
G01X3102855Y2395596D01*
G01X3106549Y2396982D01*
G01X3113938Y2400676D01*
G01X3117171Y2402524D01*
G01X3119942Y2404371D01*
G01X3123175Y2406680D01*
G01X3125484Y2408066D01*
G01X3125484Y2397444D01*
G01X3125138Y2389131D01*
G01X3124098Y2385436D01*
G01X3120866Y2383127D01*
G01X3117633Y2381280D01*
G01X3112091Y2378509D01*
G01X3107935Y2376662D01*
G01X3101931Y2374814D01*
G01X3097313Y2373429D01*
G01X3087153Y2371582D01*
G37*
G36*
G01X3232164Y2371582D02*
G01X3222928Y2371120D01*
G01X3212306Y2372044D01*
G01X3208149Y2373429D01*
G01X3204917Y2374353D01*
G01X3201684Y2375738D01*
G01X3198451Y2377586D01*
G01X3195680Y2379894D01*
G01X3191062Y2384513D01*
G01X3189215Y2387284D01*
G01X3187368Y2390978D01*
G01X3185520Y2395134D01*
G01X3184135Y2400214D01*
G01X3183211Y2404833D01*
G01X3182749Y2458404D01*
G01X3182749Y2510589D01*
G01X3155964Y2510589D01*
G01X3155964Y2530909D01*
G01X3182749Y2530909D01*
G01X3182749Y2547996D01*
G01X3183211Y2567393D01*
G01X3184135Y2569240D01*
G01X3185982Y2570164D01*
G01X3190138Y2571549D01*
G01X3199375Y2574320D01*
G01X3203531Y2575706D01*
G01X3205840Y2576167D01*
G01X3205840Y2530909D01*
G01X3245557Y2530909D01*
G01X3245557Y2510589D01*
G01X3205840Y2510589D01*
G01X3205840Y2463484D01*
G01X3206302Y2414993D01*
G01X3207226Y2408527D01*
G01X3208149Y2404833D01*
G01X3209535Y2401138D01*
G01X3210920Y2398367D01*
G01X3212768Y2396058D01*
G01X3216462Y2393749D01*
G01X3220157Y2391902D01*
G01X3227546Y2390978D01*
G01X3230778Y2390978D01*
G01X3235858Y2391902D01*
G01X3240477Y2393287D01*
G01X3243709Y2394673D01*
G01X3245557Y2395134D01*
G01X3245557Y2385898D01*
G01X3245210Y2378740D01*
G01X3244171Y2375738D01*
G01X3240938Y2373891D01*
G01X3236320Y2372506D01*
G01X3232164Y2371582D01*
G37*
G36*
G01X3427513Y2374814D02*
G01X3390568Y2374814D01*
G01X3390568Y2437622D01*
G01X3413658Y2437622D01*
G01X3414120Y2397444D01*
G01X3437211Y2396982D01*
G01X3463073Y2397906D01*
G01X3468615Y2399291D01*
G01X3472771Y2400676D01*
G01X3476928Y2402524D01*
G01X3481084Y2404833D01*
G01X3485240Y2407604D01*
G01X3489397Y2411298D01*
G01X3492629Y2415916D01*
G01X3494938Y2420073D01*
G01X3496324Y2423767D01*
G01X3497248Y2427000D01*
G01X3497709Y2435774D01*
G01X3497248Y2444549D01*
G01X3496324Y2448706D01*
G01X3494938Y2453324D01*
G01X3493553Y2457018D01*
G01X3491706Y2459789D01*
G01X3488011Y2464407D01*
G01X3485702Y2466254D01*
G01X3482469Y2468564D01*
G01X3478775Y2470873D01*
G01X3475080Y2472258D01*
G01X3470924Y2473644D01*
G01X3465844Y2475029D01*
G01X3461226Y2475953D01*
G01X3448295Y2476876D01*
G01X3430284Y2477338D01*
G01X3413658Y2477338D01*
G01X3413658Y2437622D01*
G01X3413658Y2437622D01*
G01X3390568Y2437622D01*
G01X3390568Y2535066D01*
G01X3413658Y2535066D01*
G01X3414120Y2499044D01*
G01X3426589Y2498582D01*
G01X3439982Y2499044D01*
G01X3451066Y2499967D01*
G01X3456146Y2500891D01*
G01X3461688Y2502276D01*
G01X3465382Y2503662D01*
G01X3469077Y2505509D01*
G01X3473233Y2508280D01*
G01X3476466Y2511051D01*
G01X3478775Y2513360D01*
G01X3481084Y2516131D01*
G01X3482931Y2519364D01*
G01X3484778Y2523520D01*
G01X3486164Y2527676D01*
G01X3486626Y2536913D01*
G01X3485702Y2547534D01*
G01X3484317Y2551691D01*
G01X3482931Y2554924D01*
G01X3481084Y2557694D01*
G01X3479237Y2560004D01*
G01X3476928Y2562313D01*
G01X3473695Y2564622D01*
G01X3470000Y2566469D01*
G01X3466768Y2567854D01*
G01X3462149Y2569240D01*
G01X3457531Y2570164D01*
G01X3434902Y2570626D01*
G01X3413658Y2570626D01*
G01X3413658Y2535066D01*
G01X3413658Y2535066D01*
G01X3390568Y2535066D01*
G01X3390568Y2593716D01*
G01X3421048Y2593716D01*
G01X3452913Y2593254D01*
G01X3456608Y2592793D01*
G01X3463073Y2592331D01*
G01X3468615Y2591407D01*
G01X3472771Y2590484D01*
G01X3477389Y2589098D01*
G01X3481084Y2587713D01*
G01X3485240Y2585866D01*
G01X3488935Y2583556D01*
G01X3491706Y2582171D01*
G01X3494015Y2580324D01*
G01X3499557Y2575706D01*
G01X3505098Y2568778D01*
G01X3506946Y2565546D01*
G01X3508793Y2561389D01*
G01X3510178Y2557233D01*
G01X3511102Y2553538D01*
G01X3511564Y2545687D01*
G01X3511102Y2535066D01*
G01X3509717Y2528138D01*
G01X3507869Y2522596D01*
G01X3505560Y2517516D01*
G01X3503251Y2513822D01*
G01X3501866Y2511051D01*
G01X3500018Y2508742D01*
G01X3493091Y2501814D01*
G01X3489858Y2499044D01*
G01X3485240Y2496273D01*
G01X3481084Y2493964D01*
G01X3477389Y2492578D01*
G01X3475080Y2491193D01*
G01X3475542Y2490384D01*
G01X3477851Y2489807D01*
G01X3484317Y2488422D01*
G01X3489858Y2486574D01*
G01X3494477Y2484727D01*
G01X3498633Y2482418D01*
G01X3501866Y2480571D01*
G01X3504175Y2478724D01*
G01X3511102Y2471796D01*
G01X3513873Y2468564D01*
G01X3516182Y2464869D01*
G01X3518029Y2461174D01*
G01X3519877Y2457018D01*
G01X3521262Y2452400D01*
G01X3522186Y2448244D01*
G01X3522648Y2439469D01*
G01X3522186Y2428847D01*
G01X3521262Y2423306D01*
G01X3520338Y2419611D01*
G01X3519415Y2416378D01*
G01X3518029Y2413146D01*
G01X3512949Y2402986D01*
G01X3511102Y2400676D01*
G01X3508793Y2398367D01*
G01X3506484Y2395596D01*
G01X3503713Y2393287D01*
G01X3501404Y2390978D01*
G01X3498171Y2388207D01*
G01X3494938Y2385898D01*
G01X3491706Y2384051D01*
G01X3484317Y2380356D01*
G01X3479237Y2378509D01*
G01X3475080Y2377124D01*
G01X3465844Y2375276D01*
G01X3427513Y2374814D01*
G37*
G36*
G01X2963848Y2374814D02*
G01X2939833Y2374814D01*
G01X2939833Y2424229D01*
G01X2939371Y2475953D01*
G01X2938448Y2481494D01*
G01X2937524Y2486113D01*
G01X2936600Y2489807D01*
G01X2935215Y2493502D01*
G01X2933368Y2497196D01*
G01X2931520Y2500429D01*
G01X2929673Y2503200D01*
G01X2926440Y2506894D01*
G01X2922284Y2509666D01*
G01X2919051Y2511513D01*
G01X2915357Y2512898D01*
G01X2911662Y2513822D01*
G01X2903349Y2514284D01*
G01X2893189Y2513360D01*
G01X2887186Y2511513D01*
G01X2882106Y2509204D01*
G01X2875640Y2504586D01*
G01X2871484Y2500891D01*
G01X2868713Y2497196D01*
G01X2866866Y2494887D01*
G01X2865018Y2491654D01*
G01X2863171Y2487498D01*
G01X2861324Y2482418D01*
G01X2859938Y2477800D01*
G01X2859015Y2471334D01*
G01X2858553Y2422382D01*
G01X2858553Y2374814D01*
G01X2835462Y2374814D01*
G01X2835462Y2530909D01*
G01X2858553Y2530909D01*
G01X2858553Y2518440D01*
G01X2859477Y2505509D01*
G01X2860516Y2505740D01*
G01X2861786Y2507356D01*
G01X2864095Y2510589D01*
G01X2865942Y2513360D01*
G01X2868251Y2516131D01*
G01X2873793Y2521673D01*
G01X2878411Y2524906D01*
G01X2882106Y2527214D01*
G01X2885800Y2529062D01*
G01X2889957Y2530909D01*
G01X2894113Y2532294D01*
G01X2897808Y2533218D01*
G01X2901040Y2533680D01*
G01X2907044Y2534142D01*
G01X2912586Y2534142D01*
G01X2920898Y2533218D01*
G01X2925517Y2532294D01*
G01X2930597Y2530909D01*
G01X2934753Y2529062D01*
G01X2939371Y2526753D01*
G01X2942604Y2524444D01*
G01X2944913Y2522596D01*
G01X2949531Y2517978D01*
G01X2952302Y2514746D01*
G01X2954611Y2511051D01*
G01X2957382Y2505509D01*
G01X2958768Y2501814D01*
G01X2960153Y2497658D01*
G01X2961538Y2492578D01*
G01X2962462Y2487960D01*
G01X2963386Y2479647D01*
G01X2963848Y2426538D01*
G01X2963848Y2374814D01*
G37*
G36*
G01X2783738Y2374814D02*
G01X2760648Y2374814D01*
G01X2760648Y2530909D01*
G01X2783738Y2530909D01*
G01X2783738Y2374814D01*
G37*
G36*
G01X2778197Y2572473D02*
G01X2772655Y2571549D01*
G01X2767113Y2572473D01*
G01X2763418Y2574782D01*
G01X2760648Y2577091D01*
G01X2758800Y2579862D01*
G01X2757415Y2583094D01*
G01X2756953Y2586327D01*
G01X2757877Y2590946D01*
G01X2760186Y2596026D01*
G01X2762957Y2599258D01*
G01X2765728Y2601106D01*
G01X2770346Y2602491D01*
G01X2776349Y2602029D01*
G01X2781429Y2599720D01*
G01X2784662Y2596949D01*
G01X2786509Y2594178D01*
G01X2787895Y2590022D01*
G01X2787433Y2584018D01*
G01X2785586Y2579400D01*
G01X2783738Y2576629D01*
G01X2781429Y2574320D01*
G01X2778197Y2572473D01*
G37*
G54D10*
G01X357620Y4166732D02*
G01X357620Y4066148D01*
G01X357620Y4166732D02*
G01X400800Y4166732D01*
G01X415024Y4161906D01*
G01X419850Y4157080D01*
G01X424676Y4147682D01*
G01X424676Y4138030D01*
G01X419850Y4128378D01*
G01X415024Y4123552D01*
G01X400800Y4118980D01*
G01X357620Y4118980D02*
G01X400800Y4118980D01*
G01X415024Y4114154D01*
G01X419850Y4109328D01*
G01X424676Y4099676D01*
G01X424676Y4085198D01*
G01X419850Y4075800D01*
G01X415024Y4070974D01*
G01X400800Y4066148D01*
G01X357620Y4066148D01*
G01X463030Y4166732D02*
G01X463030Y4094850D01*
G01X467602Y4080626D01*
G01X477254Y4070974D01*
G01X491732Y4066148D01*
G01X501130Y4066148D01*
G01X515608Y4070974D01*
G01X525260Y4080626D01*
G01X530086Y4094850D01*
G01X530086Y4166732D01*
G01X635496Y4166732D02*
G01X568440Y4066148D01*
G01X568440Y4166732D02*
G01X635496Y4166732D01*
G01X568440Y4066148D02*
G01X635496Y4066148D01*
G01X740906Y4166732D02*
G01X673850Y4066148D01*
G01X673850Y4166732D02*
G01X740906Y4166732D01*
G01X673850Y4066148D02*
G01X740906Y4066148D01*
G01X779260Y4166732D02*
G01X779260Y4066148D01*
G01X779260Y4166732D02*
G01X841490Y4166732D01*
G01X779260Y4118980D02*
G01X817360Y4118980D01*
G01X779260Y4066148D02*
G01X841490Y4066148D01*
G01X879844Y4166732D02*
G01X879844Y4066148D01*
G01X879844Y4166732D02*
G01X922770Y4166732D01*
G01X937248Y4161906D01*
G01X942074Y4157080D01*
G01X946900Y4147682D01*
G01X946900Y4138030D01*
G01X942074Y4128378D01*
G01X937248Y4123552D01*
G01X922770Y4118980D01*
G01X879844Y4118980D01*
G01X913372Y4118980D02*
G01X946900Y4066148D01*
G01X332620Y1141732D02*
G01X332620Y1041148D01*
G01X332620Y1041148D02*
G01X390024Y1041148D01*
G01X428378Y1141732D02*
G01X428378Y1041148D01*
G01X428378Y1141732D02*
G01X490608Y1141732D01*
G01X428378Y1093980D02*
G01X466478Y1093980D01*
G01X428378Y1041148D02*
G01X490608Y1041148D01*
G01X528962Y1141732D02*
G01X528962Y1041148D01*
G01X528962Y1141732D02*
G01X591192Y1141732D01*
G01X528962Y1093980D02*
G01X567062Y1093980D01*
G01X663074Y1141732D02*
G01X663074Y1041148D01*
G01X629546Y1141732D02*
G01X696602Y1141732D01*
G01X1057620Y2641732D02*
G01X1057620Y2569850D01*
G01X1062446Y2555626D01*
G01X1072098Y2545974D01*
G01X1086322Y2541148D01*
G01X1095974Y2541148D01*
G01X1110198Y2545974D01*
G01X1119850Y2555626D01*
G01X1124676Y2569850D01*
G01X1124676Y2641732D01*
G01X1163030Y2641732D02*
G01X1163030Y2541148D01*
G01X1163030Y2641732D02*
G01X1205956Y2641732D01*
G01X1220434Y2636906D01*
G01X1225260Y2632080D01*
G01X1230086Y2622682D01*
G01X1230086Y2608204D01*
G01X1225260Y2598552D01*
G01X1220434Y2593980D01*
G01X1205956Y2589154D01*
G01X1163030Y2589154D01*
G01X2357620Y4791732D02*
G01X2357620Y4691148D01*
G01X2357620Y4691148D02*
G01X2415024Y4691148D01*
G01X2525006Y4767856D02*
G01X2520434Y4777508D01*
G01X2510782Y4786906D01*
G01X2501130Y4791732D01*
G01X2482080Y4791732D01*
G01X2472428Y4786906D01*
G01X2462776Y4777508D01*
G01X2457950Y4767856D01*
G01X2453378Y4753378D01*
G01X2453378Y4729502D01*
G01X2457950Y4715024D01*
G01X2462776Y4705626D01*
G01X2472428Y4695974D01*
G01X2482080Y4691148D01*
G01X2501130Y4691148D01*
G01X2510782Y4695974D01*
G01X2520434Y4705626D01*
G01X2525006Y4715024D01*
G01X2563360Y4791732D02*
G01X2563360Y4691148D01*
G01X2563360Y4791732D02*
G01X2596888Y4791732D01*
G01X2611112Y4786906D01*
G01X2620764Y4777508D01*
G01X2625590Y4767856D01*
G01X2630416Y4753378D01*
G01X2630416Y4729502D01*
G01X2625590Y4715024D01*
G01X2620764Y4705626D01*
G01X2611112Y4695974D01*
G01X2596888Y4691148D01*
G01X2563360Y4691148D01*
G01X4195974Y841732D02*
G01X4157620Y741148D01*
G01X4195974Y841732D02*
G01X4234328Y741148D01*
G01X4172098Y774676D02*
G01X4219850Y774676D01*
G01X4344310Y817856D02*
G01X4339738Y827508D01*
G01X4330086Y836906D01*
G01X4320434Y841732D01*
G01X4301384Y841732D01*
G01X4291732Y836906D01*
G01X4282080Y827508D01*
G01X4277254Y817856D01*
G01X4272682Y803378D01*
G01X4272682Y779502D01*
G01X4277254Y765024D01*
G01X4282080Y755626D01*
G01X4291732Y745974D01*
G01X4301384Y741148D01*
G01X4320434Y741148D01*
G01X4330086Y745974D01*
G01X4339738Y755626D01*
G01X4344310Y765024D01*
G01X4416192Y841732D02*
G01X4416192Y741148D01*
G01X4382664Y841732D02*
G01X4449720Y841732D01*
G01X2757620Y1641732D02*
G01X2757620Y1541148D01*
G01X2824676Y1641732D02*
G01X2824676Y1541148D01*
G01X2757620Y1593980D02*
G01X2824676Y1593980D01*
G01X2901130Y1641732D02*
G01X2863030Y1541148D01*
G01X2901130Y1641732D02*
G01X2939484Y1541148D01*
G01X2877254Y1574676D02*
G01X2925260Y1574676D01*
G01X2977838Y1641732D02*
G01X2977838Y1541148D01*
G01X2977838Y1641732D02*
G01X3044894Y1541148D01*
G01X3044894Y1641732D02*
G01X3044894Y1541148D01*
G01X3083248Y1641732D02*
G01X3083248Y1541148D01*
G01X3083248Y1641732D02*
G01X3116776Y1641732D01*
G01X3131000Y1636906D01*
G01X3140652Y1627508D01*
G01X3145478Y1617856D01*
G01X3150304Y1603378D01*
G01X3150304Y1579502D01*
G01X3145478Y1565024D01*
G01X3140652Y1555626D01*
G01X3131000Y1545974D01*
G01X3116776Y1541148D01*
G01X3083248Y1541148D01*
G01X3188658Y1641732D02*
G01X3188658Y1541148D01*
G01X3188658Y1541148D02*
G01X3246062Y1541148D01*
G01X3284416Y1641732D02*
G01X3284416Y1541148D01*
G01X3284416Y1641732D02*
G01X3346646Y1641732D01*
G01X3284416Y1593980D02*
G01X3322516Y1593980D01*
G01X3284416Y1541148D02*
G01X3346646Y1541148D01*
G01X3385000Y1641732D02*
G01X3385000Y1541148D01*
G01X3385000Y1641732D02*
G01X3427926Y1641732D01*
G01X3442404Y1636906D01*
G01X3447230Y1632080D01*
G01X3452056Y1622682D01*
G01X3452056Y1613030D01*
G01X3447230Y1603378D01*
G01X3442404Y1598552D01*
G01X3427926Y1593980D01*
G01X3385000Y1593980D01*
G01X3418528Y1593980D02*
G01X3452056Y1541148D01*
G54D11*
G01X875001Y4605482D02*
G01X870937Y4613864D01*
G01X862809Y4621992D01*
G01X854427Y4626056D01*
G01X842235Y4630374D01*
G01X821661Y4630374D01*
G01X809469Y4626056D01*
G01X801087Y4621992D01*
G01X792959Y4613864D01*
G01X788895Y4605482D01*
G01X788895Y4589226D01*
G01X792959Y4580844D01*
G01X801087Y4572716D01*
G01X809469Y4568652D01*
G01X821661Y4564588D01*
G01X842235Y4564588D01*
G01X854427Y4568652D01*
G01X862809Y4572716D01*
G01X870937Y4580844D01*
G01X875001Y4589226D01*
G01X875001Y4605482D01*
G01X875001Y4528774D02*
G01X788895Y4528774D01*
G01X875001Y4528774D02*
G01X788895Y4471370D01*
G01X875001Y4471370D02*
G01X788895Y4471370D01*
G01X875001Y5212029D02*
G01X870937Y5220411D01*
G01X862809Y5228539D01*
G01X854427Y5232603D01*
G01X842235Y5236921D01*
G01X821661Y5236921D01*
G01X809469Y5232603D01*
G01X801087Y5228539D01*
G01X792959Y5220411D01*
G01X788895Y5212029D01*
G01X788895Y5195773D01*
G01X792959Y5187391D01*
G01X801087Y5179263D01*
G01X809469Y5175199D01*
G01X821661Y5171135D01*
G01X842235Y5171135D01*
G01X854427Y5175199D01*
G01X862809Y5179263D01*
G01X870937Y5187391D01*
G01X875001Y5195773D01*
G01X875001Y5212029D01*
G01X875001Y5135321D02*
G01X788895Y5135321D01*
G01X875001Y5135321D02*
G01X875001Y5081981D01*
G01X834107Y5135321D02*
G01X834107Y5102555D01*
G01X875001Y5046167D02*
G01X788895Y5046167D01*
G01X875001Y5046167D02*
G01X875001Y4992827D01*
G01X834107Y5046167D02*
G01X834107Y5013401D01*
G54D12*
G01X4483951Y4252244D02*
G01X4300817Y4252244D01*
G01X4483951Y4252244D02*
G01X4483951Y4173758D01*
G01X4475315Y4147596D01*
G01X4466425Y4138706D01*
G01X4449153Y4130070D01*
G01X4431627Y4130070D01*
G01X4414101Y4138706D01*
G01X4405465Y4147596D01*
G01X4396829Y4173758D01*
G01X4396829Y4252244D02*
G01X4396829Y4173758D01*
G01X4387939Y4147596D01*
G01X4379303Y4138706D01*
G01X4361777Y4130070D01*
G01X4335615Y4130070D01*
G01X4318089Y4138706D01*
G01X4309453Y4147596D01*
G01X4300817Y4173758D01*
G01X4300817Y4252244D01*
G01X4449153Y4067840D02*
G01X4457789Y4050314D01*
G01X4483951Y4024152D01*
G01X4300817Y4024152D01*
G01X4483951Y3909598D02*
G01X4475315Y3935760D01*
G01X4449153Y3953286D01*
G01X4405465Y3961922D01*
G01X4379303Y3961922D01*
G01X4335615Y3953286D01*
G01X4309453Y3935760D01*
G01X4300817Y3909598D01*
G01X4300817Y3892072D01*
G01X4309453Y3865910D01*
G01X4335615Y3848384D01*
G01X4379303Y3839748D01*
G01X4405465Y3839748D01*
G01X4449153Y3848384D01*
G01X4475315Y3865910D01*
G01X4483951Y3892072D01*
G01X4483951Y3909598D01*
G01X4483951Y3777518D02*
G01X4300817Y3777518D01*
G01X4483951Y3655344D02*
G01X4361777Y3777518D01*
G01X4405465Y3733830D02*
G01X4300817Y3655344D01*
G54D13*
G01X4544021Y5044905D02*
G01X4545799Y5041095D01*
G01X4551641Y5035253D01*
G01X4510747Y5035253D01*
G01X4273969Y5054888D02*
G01X4275747Y5051078D01*
G01X4281589Y5045236D01*
G01X4240695Y5045236D01*
G01X4286948Y2968074D02*
G01X4288980Y2968074D01*
G01X4292790Y2966042D01*
G01X4294822Y2964010D01*
G01X4296600Y2960200D01*
G01X4296600Y2952326D01*
G01X4294822Y2948516D01*
G01X4292790Y2946484D01*
G01X4288980Y2944452D01*
G01X4284916Y2944452D01*
G01X4281106Y2946484D01*
G01X4275264Y2950294D01*
G01X4255706Y2969852D01*
G01X4255706Y2942420D01*
G01X4541634Y2971122D02*
G01X4541634Y2949532D01*
G01X4526140Y2961216D01*
G01X4526140Y2955374D01*
G01X4524108Y2951564D01*
G01X4522076Y2949532D01*
G01X4516234Y2947500D01*
G01X4512424Y2947500D01*
G01X4506582Y2949532D01*
G01X4502518Y2953596D01*
G01X4500740Y2959438D01*
G01X4500740Y2965280D01*
G01X4502518Y2971122D01*
G01X4504550Y2973154D01*
G01X4508360Y2974932D01*
G54D10*
G01X4322582Y4474176D02*
G01X4322582Y4402294D01*
G01X4327408Y4388070D01*
G01X4337060Y4378418D01*
G01X4351284Y4373592D01*
G01X4360936Y4373592D01*
G01X4375160Y4378418D01*
G01X4384812Y4388070D01*
G01X4389638Y4402294D01*
G01X4389638Y4474176D01*
G01X4485396Y4474176D02*
G01X4437390Y4474176D01*
G01X4432564Y4430996D01*
G01X4437390Y4435822D01*
G01X4451868Y4440648D01*
G01X4466092Y4440648D01*
G01X4480570Y4435822D01*
G01X4490222Y4426424D01*
G01X4495048Y4411946D01*
G01X4495048Y4402294D01*
G01X4490222Y4388070D01*
G01X4480570Y4378418D01*
G01X4466092Y4373592D01*
G01X4451868Y4373592D01*
G01X4437390Y4378418D01*
G01X4432564Y4383244D01*
G01X4427992Y4392642D01*
G01X1082620Y441732D02*
G01X1082620Y341148D01*
G01X1082620Y441732D02*
G01X1116148Y441732D01*
G01X1130626Y436906D01*
G01X1140024Y427508D01*
G01X1144850Y417856D01*
G01X1149676Y403378D01*
G01X1149676Y379502D01*
G01X1144850Y365024D01*
G01X1140024Y355626D01*
G01X1130626Y345974D01*
G01X1116148Y341148D01*
G01X1082620Y341148D01*
G01X1216732Y441732D02*
G01X1207080Y436906D01*
G01X1197428Y427508D01*
G01X1192602Y417856D01*
G01X1188030Y403378D01*
G01X1188030Y379502D01*
G01X1192602Y365024D01*
G01X1197428Y355626D01*
G01X1207080Y345974D01*
G01X1216732Y341148D01*
G01X1235782Y341148D01*
G01X1245434Y345974D01*
G01X1255086Y355626D01*
G01X1259658Y365024D01*
G01X1264484Y379502D01*
G01X1264484Y403378D01*
G01X1259658Y417856D01*
G01X1255086Y427508D01*
G01X1245434Y436906D01*
G01X1235782Y441732D01*
G01X1216732Y441732D01*
G01X1302838Y441732D02*
G01X1326714Y341148D01*
G01X1350590Y441732D02*
G01X1326714Y341148D01*
G01X1350590Y441732D02*
G01X1374466Y341148D01*
G01X1398596Y441732D02*
G01X1374466Y341148D01*
G01X1436950Y441732D02*
G01X1436950Y341148D01*
G01X1436950Y441732D02*
G01X1504006Y341148D01*
G01X1504006Y441732D02*
G01X1504006Y341148D01*
G54D13*
G01X2522860Y2282914D02*
G01X2522860Y2182076D01*
G01X2528702Y2164296D01*
G01X2540640Y2158200D01*
G01X2552578Y2158200D01*
G01X2505080Y2241512D02*
G01X2546482Y2241512D01*
G01X2591186Y2282914D02*
G01X2591186Y2158200D01*
G01X2591186Y2217636D02*
G01X2608966Y2235416D01*
G01X2620650Y2241512D01*
G01X2638684Y2241512D01*
G01X2650368Y2235416D01*
G01X2656464Y2217636D01*
G01X2656464Y2158200D01*
G01X2695072Y2205698D02*
G01X2766192Y2205698D01*
G01X2766192Y2217636D01*
G01X2760350Y2229574D01*
G01X2754254Y2235416D01*
G01X2742570Y2241512D01*
G01X2724536Y2241512D01*
G01X2712852Y2235416D01*
G01X2700914Y2223478D01*
G01X2695072Y2205698D01*
G01X2695072Y2194014D01*
G01X2700914Y2175980D01*
G01X2712852Y2164296D01*
G01X2724536Y2158200D01*
G01X2742570Y2158200D01*
G01X2754254Y2164296D01*
G01X2766192Y2175980D01*
G01X2979298Y2282914D02*
G01X2979298Y2158200D01*
G01X2937642Y2282914D02*
G01X3020700Y2282914D01*
G01X3059308Y2205698D02*
G01X3130428Y2205698D01*
G01X3130428Y2217636D01*
G01X3124586Y2229574D01*
G01X3118490Y2235416D01*
G01X3106806Y2241512D01*
G01X3088772Y2241512D01*
G01X3077088Y2235416D01*
G01X3065150Y2223478D01*
G01X3059308Y2205698D01*
G01X3059308Y2194014D01*
G01X3065150Y2175980D01*
G01X3077088Y2164296D01*
G01X3088772Y2158200D01*
G01X3106806Y2158200D01*
G01X3118490Y2164296D01*
G01X3130428Y2175980D01*
G01X3169036Y2241512D02*
G01X3169036Y2158200D01*
G01X3169036Y2205698D02*
G01X3174878Y2223478D01*
G01X3186816Y2235416D01*
G01X3198500Y2241512D01*
G01X3216534Y2241512D01*
G01X3255142Y2241512D02*
G01X3255142Y2158200D01*
G01X3255142Y2205698D02*
G01X3260984Y2223478D01*
G01X3272922Y2235416D01*
G01X3284606Y2241512D01*
G01X3302640Y2241512D01*
G01X3341248Y2282914D02*
G01X3347090Y2277072D01*
G01X3352932Y2282914D01*
G01X3347090Y2289010D01*
G01X3341248Y2282914D01*
G01X3347090Y2241512D02*
G01X3347090Y2158200D01*
G01X3391540Y2282914D02*
G01X3391540Y2158200D01*
G01X3391540Y2223478D02*
G01X3403224Y2235416D01*
G01X3415162Y2241512D01*
G01X3432942Y2241512D01*
G01X3444880Y2235416D01*
G01X3456818Y2223478D01*
G01X3462660Y2205698D01*
G01X3462660Y2194014D01*
G01X3456818Y2175980D01*
G01X3444880Y2164296D01*
G01X3432942Y2158200D01*
G01X3415162Y2158200D01*
G01X3403224Y2164296D01*
G01X3391540Y2175980D01*
G01X3501268Y2282914D02*
G01X3501268Y2158200D01*
G01X3539876Y2205698D02*
G01X3610996Y2205698D01*
G01X3610996Y2217636D01*
G01X3605154Y2229574D01*
G01X3599058Y2235416D01*
G01X3587374Y2241512D01*
G01X3569340Y2241512D01*
G01X3557656Y2235416D01*
G01X3545718Y2223478D01*
G01X3539876Y2205698D01*
G01X3539876Y2194014D01*
G01X3545718Y2175980D01*
G01X3557656Y2164296D01*
G01X3569340Y2158200D01*
G01X3587374Y2158200D01*
G01X3599058Y2164296D01*
G01X3610996Y2175980D01*
G01X3853820Y2241512D02*
G01X3853820Y2146516D01*
G01X3847724Y2128482D01*
G01X3841882Y2122640D01*
G01X3829944Y2116798D01*
G01X3812164Y2116798D01*
G01X3800226Y2122640D01*
G01X3853820Y2223478D02*
G01X3841882Y2235416D01*
G01X3829944Y2241512D01*
G01X3812164Y2241512D01*
G01X3800226Y2235416D01*
G01X3788542Y2223478D01*
G01X3782446Y2205698D01*
G01X3782446Y2194014D01*
G01X3788542Y2175980D01*
G01X3800226Y2164296D01*
G01X3812164Y2158200D01*
G01X3829944Y2158200D01*
G01X3841882Y2164296D01*
G01X3853820Y2175980D01*
G01X3963548Y2241512D02*
G01X3963548Y2158200D01*
G01X3963548Y2223478D02*
G01X3951610Y2235416D01*
G01X3939926Y2241512D01*
G01X3921892Y2241512D01*
G01X3910208Y2235416D01*
G01X3898270Y2223478D01*
G01X3892428Y2205698D01*
G01X3892428Y2194014D01*
G01X3898270Y2175980D01*
G01X3910208Y2164296D01*
G01X3921892Y2158200D01*
G01X3939926Y2158200D01*
G01X3951610Y2164296D01*
G01X3963548Y2175980D01*
G01X4002156Y2241512D02*
G01X4002156Y2158200D01*
G01X4002156Y2217636D02*
G01X4019936Y2235416D01*
G01X4031620Y2241512D01*
G01X4049654Y2241512D01*
G01X4061338Y2235416D01*
G01X4067434Y2217636D01*
G01X4067434Y2158200D01*
G01X4067434Y2217636D02*
G01X4085214Y2235416D01*
G01X4097152Y2241512D01*
G01X4114932Y2241512D01*
G01X4126616Y2235416D01*
G01X4132712Y2217636D01*
G01X4132712Y2158200D01*
G01X4171320Y2205698D02*
G01X4242440Y2205698D01*
G01X4242440Y2217636D01*
G01X4236598Y2229574D01*
G01X4230502Y2235416D01*
G01X4218818Y2241512D01*
G01X4200784Y2241512D01*
G01X4189100Y2235416D01*
G01X4177162Y2223478D01*
G01X4171320Y2205698D01*
G01X4171320Y2194014D01*
G01X4177162Y2175980D01*
G01X4189100Y2164296D01*
G01X4200784Y2158200D01*
G01X4218818Y2158200D01*
G01X4230502Y2164296D01*
G01X4242440Y2175980D01*
G01X1855080Y5671196D02*
G01X1884798Y5546482D01*
G01X1914262Y5671196D02*
G01X1884798Y5546482D01*
G01X1914262Y5671196D02*
G01X1943980Y5546482D01*
G01X1973698Y5671196D02*
G01X1943980Y5546482D01*
G01X2012306Y5671196D02*
G01X2012306Y5546482D01*
G01X2050914Y5671196D02*
G01X2050914Y5546482D01*
G01X2050914Y5671196D02*
G01X2092316Y5671196D01*
G01X2110096Y5665354D01*
G01X2122034Y5653416D01*
G01X2127876Y5641478D01*
G01X2133972Y5623698D01*
G01X2133972Y5593980D01*
G01X2127876Y5576200D01*
G01X2122034Y5564262D01*
G01X2110096Y5552578D01*
G01X2092316Y5546482D01*
G01X2050914Y5546482D01*
G01X2172580Y5671196D02*
G01X2172580Y5546482D01*
G01X2172580Y5671196D02*
G01X2249542Y5671196D01*
G01X2172580Y5611760D02*
G01X2220078Y5611760D01*
G01X2172580Y5546482D02*
G01X2249542Y5546482D01*
G01X2504050Y5653416D02*
G01X2492366Y5665354D01*
G01X2474586Y5671196D01*
G01X2450710Y5671196D01*
G01X2432930Y5665354D01*
G01X2420992Y5653416D01*
G01X2420992Y5641478D01*
G01X2427088Y5629794D01*
G01X2432930Y5623698D01*
G01X2444868Y5617856D01*
G01X2480428Y5605918D01*
G01X2492366Y5600076D01*
G01X2498208Y5593980D01*
G01X2504050Y5582296D01*
G01X2504050Y5564262D01*
G01X2492366Y5552578D01*
G01X2474586Y5546482D01*
G01X2450710Y5546482D01*
G01X2432930Y5552578D01*
G01X2420992Y5564262D01*
G01X2631558Y5641478D02*
G01X2625716Y5653416D01*
G01X2613778Y5665354D01*
G01X2601840Y5671196D01*
G01X2578218Y5671196D01*
G01X2566280Y5665354D01*
G01X2554342Y5653416D01*
G01X2548500Y5641478D01*
G01X2542658Y5623698D01*
G01X2542658Y5593980D01*
G01X2548500Y5576200D01*
G01X2554342Y5564262D01*
G01X2566280Y5552578D01*
G01X2578218Y5546482D01*
G01X2601840Y5546482D01*
G01X2613778Y5552578D01*
G01X2625716Y5564262D01*
G01X2631558Y5576200D01*
G01X2670166Y5671196D02*
G01X2670166Y5546482D01*
G01X2670166Y5671196D02*
G01X2723506Y5671196D01*
G01X2741286Y5665354D01*
G01X2747128Y5659258D01*
G01X2753224Y5647574D01*
G01X2753224Y5635636D01*
G01X2747128Y5623698D01*
G01X2741286Y5617856D01*
G01X2723506Y5611760D01*
G01X2670166Y5611760D01*
G01X2711568Y5611760D02*
G01X2753224Y5546482D01*
G01X2791832Y5671196D02*
G01X2791832Y5546482D01*
G01X2791832Y5671196D02*
G01X2868794Y5671196D01*
G01X2791832Y5611760D02*
G01X2839330Y5611760D01*
G01X2791832Y5546482D02*
G01X2868794Y5546482D01*
G01X2907402Y5671196D02*
G01X2907402Y5546482D01*
G01X2907402Y5671196D02*
G01X2984364Y5671196D01*
G01X2907402Y5611760D02*
G01X2954900Y5611760D01*
G01X2907402Y5546482D02*
G01X2984364Y5546482D01*
G01X3022972Y5671196D02*
G01X3022972Y5546482D01*
G01X3022972Y5671196D02*
G01X3106030Y5546482D01*
G01X3106030Y5671196D02*
G01X3106030Y5546482D01*
G54D10*
G01X108268Y4557620D02*
G01X208852Y4557620D01*
G01X108268Y4557620D02*
G01X108268Y4600800D01*
G01X113094Y4615024D01*
G01X117920Y4619850D01*
G01X127318Y4624676D01*
G01X141796Y4624676D01*
G01X151448Y4619850D01*
G01X156020Y4615024D01*
G01X160846Y4600800D01*
G01X160846Y4557620D01*
G01X108268Y4691732D02*
G01X113094Y4682080D01*
G01X122492Y4672428D01*
G01X132144Y4667602D01*
G01X146622Y4663030D01*
G01X170498Y4663030D01*
G01X184976Y4667602D01*
G01X194374Y4672428D01*
G01X204026Y4682080D01*
G01X208852Y4691732D01*
G01X208852Y4710782D01*
G01X204026Y4720434D01*
G01X194374Y4730086D01*
G01X184976Y4734658D01*
G01X170498Y4739484D01*
G01X146622Y4739484D01*
G01X132144Y4734658D01*
G01X122492Y4730086D01*
G01X113094Y4720434D01*
G01X108268Y4710782D01*
G01X108268Y4691732D01*
G01X108268Y4777838D02*
G01X208852Y4801714D01*
G01X108268Y4825590D02*
G01X208852Y4801714D01*
G01X108268Y4825590D02*
G01X208852Y4849466D01*
G01X108268Y4873596D02*
G01X208852Y4849466D01*
G01X108268Y4911950D02*
G01X208852Y4911950D01*
G01X108268Y4911950D02*
G01X108268Y4974180D01*
G01X156020Y4911950D02*
G01X156020Y4950050D01*
G01X208852Y4911950D02*
G01X208852Y4974180D01*
G01X108268Y5012534D02*
G01X208852Y5012534D01*
G01X108268Y5012534D02*
G01X108268Y5055460D01*
G01X113094Y5069938D01*
G01X117920Y5074764D01*
G01X127318Y5079590D01*
G01X136970Y5079590D01*
G01X146622Y5074764D01*
G01X151448Y5069938D01*
G01X156020Y5055460D01*
G01X156020Y5012534D01*
G01X156020Y5046062D02*
G01X208852Y5079590D01*
G04 Text End*

G04 PolygonModel Start*
G54D13*
G01X925800Y4026600D02*
G01X419700Y4025000D01*
G01X925800Y3467800D02*
G01X506700Y3467800D01*
G01X925800Y3467800D02*
G01X925800Y3493200D01*
G54D14*
G01X949600Y3810400D02*
G01X1000400Y3810400D01*
G01X975000Y3785000D02*
G01X975000Y3835800D01*
G54D13*
G01X925800Y3645600D02*
G01X925800Y3848800D01*
G54D14*
G01X367000Y3785300D02*
G01X367000Y3823400D01*
G54D13*
G01X392400Y3848800D02*
G01X392400Y3568801D01*
G01X506700Y3467800D02*
G01X392400Y3569400D01*
G54D16*
G01X332900Y1767100D02*
G01X332900Y1182900D01*
G01X332900Y1182900D02*
G01X917100Y1182900D01*
G01X917100Y1182900D02*
G01X917100Y1767100D01*
G01X917100Y1767100D02*
G01X332900Y1767100D01*
G01X1082900Y2492100D02*
G01X1082900Y1907900D01*
G01X1082900Y1907900D02*
G01X1667100Y1907900D01*
G01X1667100Y1907900D02*
G01X1667100Y2492100D01*
G01X1667100Y2492100D02*
G01X1082900Y2492100D01*
G01X1412801Y4643200D02*
G01X1412801Y3556801D01*
G01X3587199Y4643200D02*
G01X3587199Y3556801D01*
G01X1412801Y3556801D02*
G01X3587199Y3556801D01*
G01X1412801Y4643200D02*
G01X3587199Y4643200D01*
G01X1124999Y5490000D02*
G01X3875001Y5490000D01*
G01X1124999Y5490000D02*
G01X1124999Y2710000D01*
G01X3875001Y5490000D02*
G01X3875001Y2710000D01*
G01X1124999Y2710000D02*
G01X3875001Y2710000D01*
G01X4567100Y1767100D02*
G01X3982900Y1767100D01*
G01X3982900Y1767100D02*
G01X3982900Y1182900D01*
G01X3982900Y1182900D02*
G01X4567100Y1182900D01*
G01X4567100Y1182900D02*
G01X4567100Y1767100D01*
G01X2619851Y504998D02*
G03X2500166Y505144I-59843J-89D01*
G03X2619848Y504351I59842J-235D01*
G01X3469837Y1194989D02*
G03X3350151Y1195135I-59843J-89D01*
G03X3469834Y1194342I59842J-235D01*
G01X3530009Y1324986D02*
G01X3530009Y374976D01*
G01X3530009Y374976D02*
G01X2400014Y374976D01*
G01X2400014Y374976D02*
G01X2400014Y1324986D01*
G01X2400014Y1324986D02*
G01X3530009Y1324986D01*
G01X754000Y4336004D02*
G01X246000Y4336004D01*
G01X246000Y4336004D02*
G01X246000Y5352004D01*
G01X246000Y5352004D02*
G01X754000Y5352004D01*
G01X754000Y5352004D02*
G01X754000Y4336004D01*
G01X4551432Y4909998D02*
G01X4650000Y4909998D01*
G01X4650000Y4909998D02*
G01X4650000Y5068667D01*
G01X4250000Y4909998D02*
G01X4150001Y4909998D01*
G01X4150001Y4909998D02*
G01X4150001Y5068670D01*
G01X4551432Y4779999D02*
G01X4551432Y4909998D01*
G01X4551432Y4909998D02*
G01X4250000Y4909998D01*
G01X4250000Y4909998D02*
G01X4250000Y4779999D01*
G01X4550566Y3090002D02*
G01X4650000Y3090002D01*
G01X4650000Y3090002D02*
G01X4650000Y2931328D01*
G01X4150001Y3090002D02*
G01X4150001Y2931313D01*
G01X4250000Y3090002D02*
G01X4150001Y3090002D01*
G01X4550566Y3220002D02*
G01X4550566Y3090002D01*
G01X4550566Y3090002D02*
G01X4250000Y3090002D01*
G01X4250000Y3090002D02*
G01X4250000Y3220002D01*
G01X4400000Y3220002D02*
G01X4550566Y3220002D01*
G01X4650000Y3268691D02*
G01X4650000Y3220002D01*
G01X4650000Y3220002D02*
G01X4400000Y3220002D01*
G01X4650000Y4538688D02*
G01X4650000Y3461309D01*
G01X4150001Y4731307D02*
G01X4150001Y4779999D01*
G01X4150001Y4779999D02*
G01X4650000Y4779999D01*
G01X4650000Y4779999D02*
G01X4650000Y4731307D01*
G01X4150001Y3461309D02*
G01X4150001Y4538688D01*
G01X4400000Y3220002D02*
G01X4150001Y3220002D01*
G01X4150001Y3220002D02*
G01X4150001Y3268691D01*
G01X1082900Y1067100D02*
G01X1082900Y482900D01*
G01X1082900Y482900D02*
G01X1667100Y482900D01*
G01X1667100Y482900D02*
G01X1667100Y1067100D01*
G01X1667100Y1067100D02*
G01X1082900Y1067100D01*
G54D10*
G01X400000Y5600000D02*
G01X532080Y5732080D01*
G01X537160Y5732080D01*
G01X400000Y5600000D02*
G01X267920Y5467920D01*
G01X262840Y5467920D01*
G01X400000Y5600000D02*
G01X535692Y5464308D01*
G01X400000Y5608742D02*
G01X273000Y5735742D01*
G01X273000Y5737160D01*
G01X4550000Y5600000D02*
G01X4682080Y5732080D01*
G01X4687160Y5732080D01*
G01X4550000Y5600000D02*
G01X4417920Y5467920D01*
G01X4412840Y5467920D01*
G01X4550000Y5600000D02*
G01X4685692Y5464308D01*
G01X4550000Y5608742D02*
G01X4423000Y5735742D01*
G01X4423000Y5737160D01*
G01X400000Y350000D02*
G01X532080Y482080D01*
G01X537160Y482080D01*
G01X400000Y350000D02*
G01X267920Y217920D01*
G01X262840Y217920D01*
G01X400000Y350000D02*
G01X535692Y214308D01*
G01X400000Y358742D02*
G01X273000Y485742D01*
G01X273000Y487160D01*
G01X4550000Y350000D02*
G01X4682080Y482080D01*
G01X4687160Y482080D01*
G01X4550000Y350000D02*
G01X4417920Y217920D01*
G01X4412840Y217920D01*
G01X4550000Y350000D02*
G01X4685692Y214308D01*
G01X4550000Y358742D02*
G01X4423000Y485742D01*
G01X4423000Y487160D01*

G04 Circle Start*
G54D13*
G01X634792Y3586240D02*
G03X694787Y3586240I29997J0D01*
G03X634792Y3586240I-29997J0D01*
G54D16*
G01X550083Y1475000D02*
G03X699943Y1475000I74930J0D01*
G03X550083Y1475000I-74930J0D01*
G01X450007Y1475000D02*
G03X800019Y1475000I175006J0D01*
G03X450007Y1475000I-175006J0D01*
G01X1300083Y2200000D02*
G03X1449943Y2200000I74930J0D01*
G03X1300083Y2200000I-74930J0D01*
G01X1200007Y2200000D02*
G03X1550019Y2200000I175006J0D01*
G03X1200007Y2200000I-175006J0D01*
G01X4200070Y1474987D02*
G03X4349930Y1474987I74930J0D01*
G03X4200070Y1474987I-74930J0D01*
G01X4099994Y1474987D02*
G03X4450006Y1474987I175006J0D01*
G03X4099994Y1474987I-175006J0D01*
G01X1300083Y775000D02*
G03X1449943Y775000I74930J0D01*
G03X1300083Y775000I-74930J0D01*
G01X1200007Y775000D02*
G03X1550019Y775000I175006J0D01*
G03X1200007Y775000I-175006J0D01*
G54D10*
G01X210008Y5600000D02*
G03X589992Y5600000I189992J0D01*
G03X210008Y5600000I-189992J0D01*
G01X4360008Y5600000D02*
G03X4739992Y5600000I189992J0D01*
G03X4360008Y5600000I-189992J0D01*
G01X210008Y350000D02*
G03X589992Y350000I189992J0D01*
G03X210008Y350000I-189992J0D01*
G01X4360008Y350000D02*
G03X4739992Y350000I189992J0D01*
G03X4360008Y350000I-189992J0D01*
G04 Circle End*

M02*

