G04 Layer: BottomPasteMaskLayer*
G04 EasyEDA Pro v2.2.27.1, 2024-09-03 10:08:37*
G04 Gerber Generator version 0.3*
G04 Scale: 100 percent, Rotated: No, Reflected: No*
G04 Dimensions in millimeters*
G04 Leading zeros omitted, absolute positions, 3 integers and 5 decimals*
%FSLAX35Y35*%
%MOMM*%
%ADD10R,1.0922X0.8128*%
%ADD11R,1.0922X0.8128*%
%ADD12R,0.9X0.8*%
%ADD13R,1.016X0.8128*%
%ADD14R,1.0922X0.8128*%
%ADD15R,0.8128X1.0922*%
%ADD16O,1.97099X0.60201*%
%ADD17R,2.99999X3.49999*%
%ADD18R,2.99999X4.99999*%
%ADD19O,0.63X1.865*%
G75*


G04 PolygonModel Start*
G36*
G01X2919999Y5794502D02*
G01X2919999Y5714502D01*
G01X2914997Y5709501D01*
G01X2892201Y5709501D01*
G01X2892201Y5746501D01*
G01X2859201Y5746501D01*
G01X2859201Y5709501D01*
G01X2834998Y5709501D01*
G01X2829999Y5714502D01*
G01X2829999Y5794502D01*
G01X2834998Y5799501D01*
G01X2914997Y5799501D01*
G01X2919999Y5794502D01*
G37*
G36*
G01X2830001Y5555498D02*
G01X2830001Y5635498D01*
G01X2835003Y5640500D01*
G01X2857799Y5640500D01*
G01X2857799Y5603499D01*
G01X2890799Y5603499D01*
G01X2890799Y5640500D01*
G01X2915003Y5640500D01*
G01X2920001Y5635498D01*
G01X2920001Y5555498D01*
G01X2915003Y5550500D01*
G01X2835003Y5550500D01*
G01X2830001Y5555498D01*
G37*
G36*
G01X2669999Y5794502D02*
G01X2669999Y5714502D01*
G01X2664997Y5709501D01*
G01X2642201Y5709501D01*
G01X2642201Y5746501D01*
G01X2609201Y5746501D01*
G01X2609201Y5709501D01*
G01X2584998Y5709501D01*
G01X2579999Y5714502D01*
G01X2579999Y5794502D01*
G01X2584998Y5799501D01*
G01X2664997Y5799501D01*
G01X2669999Y5794502D01*
G37*
G36*
G01X2580001Y5555498D02*
G01X2580001Y5635498D01*
G01X2585003Y5640500D01*
G01X2607799Y5640500D01*
G01X2607799Y5603499D01*
G01X2640799Y5603499D01*
G01X2640799Y5640500D01*
G01X2665003Y5640500D01*
G01X2670001Y5635498D01*
G01X2670001Y5555498D01*
G01X2665003Y5550500D01*
G01X2585003Y5550500D01*
G01X2580001Y5555498D01*
G37*
G36*
G01X4155002Y2080498D02*
G01X4155002Y2160498D01*
G01X4160003Y2165499D01*
G01X4182799Y2165499D01*
G01X4182799Y2128499D01*
G01X4215799Y2128499D01*
G01X4215799Y2165499D01*
G01X4240003Y2165499D01*
G01X4245001Y2160498D01*
G01X4245001Y2080498D01*
G01X4240003Y2075500D01*
G01X4160003Y2075500D01*
G01X4155002Y2080498D01*
G37*
G36*
G01X4244999Y2319502D02*
G01X4244999Y2239502D01*
G01X4239998Y2234501D01*
G01X4217201Y2234501D01*
G01X4217201Y2271501D01*
G01X4184201Y2271501D01*
G01X4184201Y2234501D01*
G01X4159998Y2234501D01*
G01X4154999Y2239502D01*
G01X4154999Y2319502D01*
G01X4159998Y2324501D01*
G01X4239998Y2324501D01*
G01X4244999Y2319502D01*
G37*
G36*
G01X4355001Y2080498D02*
G01X4355001Y2160498D01*
G01X4360003Y2165499D01*
G01X4382799Y2165499D01*
G01X4382799Y2128499D01*
G01X4415799Y2128499D01*
G01X4415799Y2165499D01*
G01X4440003Y2165499D01*
G01X4445001Y2160498D01*
G01X4445001Y2080498D01*
G01X4440003Y2075500D01*
G01X4360003Y2075500D01*
G01X4355001Y2080498D01*
G37*
G36*
G01X4444999Y2319502D02*
G01X4444999Y2239502D01*
G01X4439997Y2234501D01*
G01X4417201Y2234501D01*
G01X4417201Y2271501D01*
G01X4384201Y2271501D01*
G01X4384201Y2234501D01*
G01X4359998Y2234501D01*
G01X4354999Y2239502D01*
G01X4354999Y2319502D01*
G01X4359998Y2324501D01*
G01X4439997Y2324501D01*
G01X4444999Y2319502D01*
G37*
G36*
G01X4555002Y2080498D02*
G01X4555002Y2160498D01*
G01X4560003Y2165499D01*
G01X4582799Y2165499D01*
G01X4582799Y2128499D01*
G01X4615799Y2128499D01*
G01X4615799Y2165499D01*
G01X4640003Y2165499D01*
G01X4645001Y2160498D01*
G01X4645001Y2080498D01*
G01X4640003Y2075500D01*
G01X4560003Y2075500D01*
G01X4555002Y2080498D01*
G37*
G36*
G01X4644999Y2319502D02*
G01X4644999Y2239502D01*
G01X4639998Y2234501D01*
G01X4617201Y2234501D01*
G01X4617201Y2271501D01*
G01X4584201Y2271501D01*
G01X4584201Y2234501D01*
G01X4559998Y2234501D01*
G01X4554999Y2239502D01*
G01X4554999Y2319502D01*
G01X4559998Y2324501D01*
G01X4639998Y2324501D01*
G01X4644999Y2319502D01*
G37*
G36*
G01X455498Y3494999D02*
G01X535498Y3494999D01*
G01X540499Y3489998D01*
G01X540499Y3467201D01*
G01X503499Y3467201D01*
G01X503499Y3434201D01*
G01X540499Y3434201D01*
G01X540499Y3409998D01*
G01X535498Y3404999D01*
G01X455498Y3404999D01*
G01X450499Y3409998D01*
G01X450499Y3489998D01*
G01X455498Y3494999D01*
G37*
G36*
G01X694502Y3405002D02*
G01X614502Y3405002D01*
G01X609501Y3410003D01*
G01X609501Y3432799D01*
G01X646501Y3432799D01*
G01X646501Y3465799D01*
G01X609501Y3465799D01*
G01X609501Y3490003D01*
G01X614502Y3495001D01*
G01X694502Y3495001D01*
G01X699501Y3490003D01*
G01X699501Y3410003D01*
G01X694502Y3405002D01*
G37*

G04 Pad Start*
G54D10*
G01X1525000Y1096260D03*
G01X1525000Y1253740D03*
G54D11*
G01X1525000Y853740D03*
G01X1525000Y696260D03*
G01X4275000Y1628740D03*
G01X4275000Y1471260D03*
G54D12*
G01X775000Y5529998D03*
G01X775000Y5670003D03*
G01X1000000Y5529998D03*
G01X1000000Y5670003D03*
G54D13*
G01X721920Y4154750D03*
G01X478080Y4250000D03*
G01X721920Y4345250D03*
G54D14*
G01X1275000Y696260D03*
G01X1275000Y853740D03*
G54D15*
G01X653740Y3725000D03*
G01X496260Y3725000D03*
G54D16*
G01X873558Y2944500D03*
G01X873558Y2817500D03*
G01X873558Y2690500D03*
G01X873558Y2563500D03*
G01X873558Y2436500D03*
G01X873558Y2309500D03*
G01X873558Y2182500D03*
G01X873558Y2055500D03*
G01X326442Y2944500D03*
G01X326442Y2817500D03*
G01X326442Y2690500D03*
G01X326442Y2563500D03*
G01X326442Y2436500D03*
G01X326442Y2309500D03*
G01X326442Y2182500D03*
G01X326442Y2055500D03*
G54D17*
G01X3693400Y4250000D03*
G54D18*
G01X1356600Y4250000D03*
G54D17*
G01X3668400Y2150000D03*
G54D18*
G01X1331600Y2150000D03*
G54D19*
G01X4590500Y3781751D03*
G01X4463500Y3781751D03*
G01X4336500Y3781751D03*
G01X4209500Y3781751D03*
G01X4590500Y4318249D03*
G01X4463500Y4318249D03*
G01X4336500Y4318249D03*
G01X4209500Y4318249D03*
G04 Pad End*

M02*

