G04 Layer: TopLayer*
G04 EasyEDA Pro v2.2.27.1, 2024-09-03 10:08:37*
G04 Gerber Generator version 0.3*
G04 Scale: 100 percent, Rotated: No, Reflected: No*
G04 Dimensions in millimeters*
G04 Leading zeros omitted, absolute positions, 3 integers and 5 decimals*
%FSLAX35Y35*%
%MOMM*%
%ADD10C,0.2032*%
%ADD11C,0.90508*%
%ADD12C,0.50508*%
%ADD13C,1.00508*%
%ADD14C,1.45508*%
%ADD15C,0.76708*%
%ADD16C,0.7801*%
%ADD17C,0.78008*%
%ADD18C,0.79248*%
%ADD19R,1.8X1.0*%
%ADD20R,2.1X1.40005*%
%ADD21R,1.524X1.524*%
%ADD22C,1.524*%
%ADD23R,1.40005X2.1*%
%ADD24R,1.55001X1.55001*%
%ADD25C,1.55001*%
%ADD26O,3.99999X2.4*%
%ADD27C,2.49999*%
%ADD28O,2.49999X1.8*%
%ADD29R,2.0X2.89999*%
%ADD30C,1.5748*%
%ADD31R,1.5748X1.5748*%
%ADD32C,2.0*%
%ADD33C,1.0*%
%ADD34C,0.61001*%
%ADD35C,0.6096*%
%ADD36C,0.254*%
%ADD37C,0.6*%
G75*


G04 Copper Start*
G36*
G01X25654Y5500000D02*
G02X500000Y5974346I474346J0D01*
G01X4450000Y5974346D01*
G02X4924346Y5500000I0J-474346D01*
G01X4924346Y500000D01*
G02X4450000Y25654I-474346J0D01*
G01X505310Y25654D01*
G03X499282Y26372I-6028J-24936D01*
G02X25654Y500000I0J473628D01*
G01X25654Y5500000D01*
G37*
%LPC*%
G36*
G01X39064Y1179852D02*
G03X64718Y1154198I25654J0D01*
G01X274718Y1154198D01*
G03X300372Y1179852I0J25654D01*
G01X300372Y1319857D01*
G03X274718Y1345511I-25654J0D01*
G01X64718Y1345511D01*
G03X39064Y1319857I0J-25654D01*
G01X39064Y1179852D01*
G37*
G36*
G01X39064Y1630143D02*
G03X64718Y1604489I25654J0D01*
G01X274718Y1604489D01*
G03X300372Y1630143I0J25654D01*
G01X300372Y1770148D01*
G03X274718Y1795802I-25654J0D01*
G01X64718Y1795802D01*
G03X39064Y1770148I0J-25654D01*
G01X39064Y1630143D01*
G37*
G36*
G01X274346Y5600000D02*
G03X525654Y5600000I125654J0D01*
G03X274346Y5600000I-125654J0D01*
G37*
G36*
G01X274346Y350000D02*
G03X525654Y350000I125654J0D01*
G03X274346Y350000I-125654J0D01*
G37*
G36*
G01X534698Y3839237D02*
G03X570512Y3875051I0J35814D01*
G01X570512Y3975051D01*
G03X534698Y4010865I-35814J0D01*
G01X354699Y4010865D01*
G03X318885Y3975051I0J-35814D01*
G01X318885Y3875051D01*
G03X354699Y3839237I35814J0D01*
G01X534698Y3839237D01*
G37*
G36*
G01X555292Y4957866D02*
G03X500000Y5248661I-55292J140140D01*
G03X444708Y4957866I0J-150654D01*
G03X465000Y4728353I20292J-113860D01*
G01X509640Y4728353D01*
G01X486947Y4705661D01*
G01X465000Y4705661D01*
G03X465000Y4474353I0J-115654D01*
G01X535000Y4474353D01*
G03X637093Y4644346I0J115654D01*
G01X2042520Y4644346D01*
G03X2106154Y4700000I7480J55654D01*
G03X2042520Y4755654I-56154J0D01*
G01X609630Y4755654D01*
G03X555292Y4957866I-74630J88353D01*
G37*
G36*
G01X448120Y2896489D02*
G03X461646Y2833985I51880J-21489D01*
G01X461646Y1816016D01*
G03X500000Y1718846I38354J-41016D01*
G03X538354Y1816016I0J56154D01*
G01X538354Y2833985D01*
G03X556123Y2876882I-38354J41016D01*
G01X1052120Y3372880D01*
G03X1063354Y3400000I-27120J27120D01*
G01X1063354Y4108984D01*
G03X1025000Y4206154I-38354J41016D01*
G03X986646Y4108984I0J-56154D01*
G01X986646Y3997848D01*
G03X974880Y4000705I-11766J-22797D01*
G01X794881Y4000705D01*
G03X770473Y3982948I0J-25654D01*
G03X674412Y3974376I-45473J-32948D01*
G03X727567Y3893905I50588J-24376D01*
G03X749949Y3886697I22382J31146D01*
G01X769227Y3886697D01*
G01X769227Y3875051D01*
G03X794881Y3849397I25654J0D01*
G01X974880Y3849397D01*
G03X986646Y3852254I0J25654D01*
G01X986646Y3628749D01*
G03X965000Y3640634I-21646J-13769D01*
G01X785000Y3640634D01*
G03X759346Y3614980I0J-25654D01*
G01X759346Y3514981D01*
G03X785000Y3489327I25654J0D01*
G01X965000Y3489327D01*
G03X986646Y3501212I0J25654D01*
G01X986646Y3415887D01*
G01X501882Y2931123D01*
G03X448120Y2896489I-1882J-56123D01*
G37*
G36*
G01X789064Y1904852D02*
G03X814718Y1879198I25654J0D01*
G01X1024718Y1879198D01*
G03X1050372Y1904852I0J25654D01*
G01X1050372Y2044857D01*
G03X1024718Y2070511I-25654J0D01*
G01X814718Y2070511D01*
G03X789064Y2044857I0J-25654D01*
G01X789064Y1904852D01*
G37*
G36*
G01X789064Y930143D02*
G03X814718Y904489I25654J0D01*
G01X1024718Y904489D01*
G03X1050372Y930143I0J25654D01*
G01X1050372Y1070148D01*
G03X1024718Y1095802I-25654J0D01*
G01X814718Y1095802D01*
G03X789064Y1070148I0J-25654D01*
G01X789064Y930143D01*
G37*
G36*
G01X789064Y479852D02*
G03X814718Y454198I25654J0D01*
G01X1024718Y454198D01*
G03X1050372Y479852I0J25654D01*
G01X1050372Y619857D01*
G03X1024718Y645511I-25654J0D01*
G01X814718Y645511D01*
G03X789064Y619857I0J-25654D01*
G01X789064Y479852D01*
G37*
G36*
G01X789064Y2355143D02*
G03X814718Y2329489I25654J0D01*
G01X1024718Y2329489D01*
G03X1050372Y2355143I0J25654D01*
G01X1050372Y2495148D01*
G03X1024718Y2520802I-25654J0D01*
G01X814718Y2520802D01*
G03X789064Y2495148I0J-25654D01*
G01X789064Y2355143D01*
G37*
G36*
G01X1236646Y1041016D02*
G03X1275000Y943846I38354J-41016D01*
G03X1313354Y1041016I0J56154D01*
G01X1313354Y1090160D01*
G03X1302120Y1117280I-38354J0D01*
G01X1210962Y1208439D01*
G01X1210962Y1319857D01*
G03X1185308Y1345511I-25654J0D01*
G01X975308Y1345511D01*
G03X949654Y1319857I0J-25654D01*
G01X949654Y1179852D01*
G03X975308Y1154198I25654J0D01*
G01X1156721Y1154198D01*
G01X1236646Y1074273D01*
G01X1236646Y1041016D01*
G37*
G36*
G01X1311646Y1449564D02*
G01X1311646Y1400000D01*
G03X1322880Y1372880I38354J0D01*
G01X1699654Y996105D01*
G01X1699654Y930143D01*
G03X1725308Y904489I25654J0D01*
G01X1935308Y904489D01*
G03X1960962Y930143I0J25654D01*
G01X1960962Y1070148D01*
G03X1935308Y1095802I-25654J0D01*
G01X1725308Y1095802D01*
G03X1712100Y1092141I0J-25654D01*
G01X1507646Y1296594D01*
G03X1573364Y1321466I17354J53406D01*
G03X1563354Y1391016I-48364J28534D01*
G01X1563354Y1688657D01*
G01X1753895Y1879198D01*
G01X1935308Y1879198D01*
G03X1960962Y1904852I0J25654D01*
G01X1960962Y2044857D01*
G03X1935308Y2070511I-25654J0D01*
G01X1725308Y2070511D01*
G03X1699654Y2044857I0J-25654D01*
G01X1699654Y1933439D01*
G01X1505029Y1738814D01*
G03X1454684Y1805959I-55029J11186D01*
G03X1393877Y1748118I-4684J-55959D01*
G01X1384259Y1738500D01*
G01X1210962Y1738500D01*
G01X1210962Y1770148D01*
G03X1185308Y1795802I-25654J0D01*
G01X975308Y1795802D01*
G03X949654Y1770148I0J-25654D01*
G01X949654Y1630143D01*
G03X975308Y1604489I25654J0D01*
G01X1156721Y1604489D01*
G01X1311646Y1449564D01*
G37*
G36*
G01X1019398Y2992146D02*
G03X1092353Y2946594I55602J7854D01*
G01X1089382Y2943623D01*
G03X1047793Y2847793I-1882J-56123D01*
G03X1143623Y2889382I39707J39707D01*
G01X1204163Y2949923D01*
G03X1414978Y2820028I120833J-39913D01*
G03X1285084Y3030843I-89982J89982D01*
G01X3027120Y4772880D01*
G03X3038354Y4800000I-27120J27120D01*
G01X3038354Y4958985D01*
G03X3041016Y4961646I-38354J41016D01*
G01X3533985Y4961646D01*
G03X3565427Y4944668I41016J38354D01*
G01X1126882Y2506123D01*
G03X1085293Y2410293I-1882J-56123D01*
G03X1181123Y2451882I39707J39707D01*
G01X3977121Y5247880D01*
G03X3988354Y5275000I-27120J27120D01*
G01X3988354Y5475000D01*
G03X3977121Y5502121I-38354J0D01*
G01X3875908Y5603333D01*
G03X3758599Y5770833I-75908J71667D01*
G03X3800153Y5570606I41402J-95833D01*
G01X3911646Y5459113D01*
G01X3911646Y5290887D01*
G01X3630333Y5009573D01*
G03X3533985Y5038354I-55332J-9573D01*
G01X3041016Y5038354D01*
G03X2960293Y5039707I-41016J-38354D01*
G03X2961646Y4958985I39707J-39707D01*
G01X2961646Y4815887D01*
G01X1128406Y2982647D01*
G03X1130602Y2992146I-53406J17353D01*
G03X1131123Y3001882I-55602J7854D01*
G01X2908120Y4778880D01*
G03X2919354Y4806000I-27120J27120D01*
G01X2919354Y5275643D01*
G03X2881000Y5471854I-38354J94357D01*
G03X2842646Y5275643I0J-101854D01*
G01X2842646Y4821887D01*
G01X1076882Y3056123D01*
G03X1019398Y2992146I-1882J-56123D01*
G37*
G36*
G01X1452250Y5289990D02*
G03X1197742Y5289990I-127254J0D01*
G03X1452250Y5289990I127254J0D01*
G37*
G36*
G01X1699654Y2466561D02*
G01X1699654Y2355143D01*
G03X1725308Y2329489I25654J0D01*
G01X1777212Y2329489D01*
G03X1825000Y2243846I47788J-29489D01*
G03X1872788Y2329489I0J56154D01*
G01X1935308Y2329489D01*
G03X1960962Y2355143I0J25654D01*
G01X1960962Y2495148D01*
G03X1935308Y2520802I-25654J0D01*
G01X1753895Y2520802D01*
G01X1697577Y2577120D01*
G03X1670456Y2588354I-27120J-27120D01*
G01X1416016Y2588354D01*
G03X1318846Y2550000I-41016J-38354D01*
G03X1416016Y2511646I56154J0D01*
G01X1654569Y2511646D01*
G01X1699654Y2466561D01*
G37*
G36*
G01X1699654Y619857D02*
G01X1699654Y479852D01*
G03X1725308Y454198I25654J0D01*
G01X1935308Y454198D01*
G03X1960962Y479852I0J25654D01*
G01X1960962Y619857D01*
G03X1935308Y645511I-25654J0D01*
G01X1788892Y645511D01*
G01X1730652Y703750D01*
G03X1629613Y729325I-55653J-7490D01*
G03X1684931Y640991I45387J-33065D01*
G01X1700308Y625613D01*
G03X1699654Y619857I25000J-5756D01*
G37*
G36*
G01X2116016Y1613354D02*
G03X2043240Y1621310I-41016J-38354D01*
G03X2024446Y1550554I31760J-46310D01*
G03X1949446Y1475554I-24446J-50554D01*
G03X1869796Y1414712I-24446J-50554D01*
G03X1966016Y1386646I55204J10288D01*
G01X2259102Y1386646D01*
G01X2261635Y1384113D01*
G01X2261635Y1228141D01*
G01X2222488Y1228141D01*
G03X2196834Y1202487I0J-25654D01*
G01X2196834Y1047486D01*
G03X2222488Y1021832I25654J0D01*
G01X2377489Y1021832D01*
G03X2403143Y1047486I0J25654D01*
G01X2403143Y1202487D01*
G03X2377489Y1228141I-25654J0D01*
G01X2338343Y1228141D01*
G01X2338343Y1400000D01*
G03X2327109Y1427120I-38354J0D01*
G01X2302109Y1452120D01*
G03X2286307Y1461646I-27120J-27120D01*
G01X2434113Y1461646D01*
G01X2903187Y992572D01*
G03X2930308Y981338I27120J27120D01*
G01X3954198Y981338D01*
G01X3954198Y914693D01*
G03X3979852Y889039I25654J0D01*
G01X4119857Y889039D01*
G03X4145511Y914693I0J25654D01*
G01X4145511Y1124692D01*
G03X4119857Y1150346I-25654J0D01*
G01X3979852Y1150346D01*
G03X3954198Y1124692I0J-25654D01*
G01X3954198Y1058046D01*
G01X2946195Y1058046D01*
G01X2477121Y1527120D01*
G03X2461318Y1536646I-27120J-27120D01*
G01X3050000Y1536646D01*
G03X3077120Y1547880I0J38354D01*
G01X4147302Y2618061D01*
G03X4170003Y2604355I22702J11949D01*
G01X4370003Y2604355D01*
G03X4395657Y2630009I0J25654D01*
G01X4395657Y2920009D01*
G03X4370003Y2945663I-25654J0D01*
G01X4170003Y2945663D01*
G03X4144349Y2920009I0J-25654D01*
G01X4144349Y2723590D01*
G01X3034113Y1613354D01*
G01X2116016Y1613354D01*
G37*
G36*
G01X2195200Y5257986D02*
G03X2231014Y5293800I0J35814D01*
G01X2231014Y5446200D01*
G03X2195200Y5482014I-35814J0D01*
G01X2042800Y5482014D01*
G03X2006986Y5446200I0J-35814D01*
G01X2006986Y5293800D01*
G03X2042800Y5257986I35814J0D01*
G01X2195200Y5257986D01*
G37*
G36*
G01X2299989Y738302D02*
G03X2299989Y511673I0J-113314D01*
G03X2299989Y738302I0J113314D01*
G37*
G36*
G01X2299989Y978155D02*
G03X2299989Y771846I0J-103154D01*
G03X2299989Y978155I0J103154D01*
G37*
G36*
G01X2271146Y5370000D02*
G03X2474854Y5370000I101854J0D01*
G03X2271146Y5370000I-101854J0D01*
G37*
G36*
G01X2525146Y5370000D02*
G03X2728854Y5370000I101854J0D01*
G03X2525146Y5370000I-101854J0D01*
G37*
G36*
G01X2970000Y1229345D02*
G01X3130000Y1229345D01*
G03X3130000Y1520653I0J145654D01*
G01X2970000Y1520653D01*
G03X2970000Y1229345I0J-145654D01*
G37*
G36*
G01X2970000Y229347D02*
G01X3130000Y229347D01*
G03X3130000Y520655I0J145654D01*
G01X2970000Y520655D01*
G03X2970000Y229347I0J-145654D01*
G37*
G36*
G01X3050000Y2643846D02*
G03X3105654Y2707480I0J56154D01*
G01X3105654Y3767520D01*
G03X3050000Y3831154I-55654J7480D01*
G03X2994346Y3767520I0J-56154D01*
G01X2994346Y2707480D01*
G03X3050000Y2643846I55654J-7480D01*
G37*
G36*
G01X3668886Y5497873D02*
G03X3767356Y5463132I56114J2127D01*
G03X3719370Y5555871I-42356J36868D01*
G01X3650394Y5624847D01*
G01X3650394Y5753740D01*
G03X3624740Y5779394I-25654J0D01*
G01X3467260Y5779394D01*
G03X3441606Y5753740I0J-25654D01*
G01X3441606Y5596260D01*
G03X3467260Y5570606I25654J0D01*
G01X3596153Y5570606D01*
G01X3668886Y5497873D01*
G37*
G36*
G01X3802258Y5289990D02*
G03X3547750Y5289990I-127254J0D01*
G03X3802258Y5289990I127254J0D01*
G37*
G36*
G01X3802258Y2910010D02*
G03X3547750Y2910010I-127254J0D01*
G03X3802258Y2910010I127254J0D01*
G37*
G36*
G01X3868846Y2275000D02*
G03X3981154Y2275000I56154J0D01*
G03X3868846Y2275000I-56154J0D01*
G37*
G36*
G01X3939446Y5675000D02*
G03X4168554Y5675000I114554J0D01*
G03X3939446Y5675000I-114554J0D01*
G37*
G36*
G01X3979852Y2060936D02*
G03X3954198Y2035282I0J-25654D01*
G01X3954198Y1825283D01*
G03X3979852Y1799629I25654J0D01*
G01X4119857Y1799629D01*
G03X4145511Y1825283I0J25654D01*
G01X4145511Y2035282D01*
G03X4119857Y2060936I-25654J0D01*
G01X3979852Y2060936D01*
G37*
G36*
G01X4300648Y3365000D02*
G03X4079338Y3365000I-110655J0D01*
G03X4300648Y3365000I110655J0D01*
G37*
G36*
G01X4300648Y4635000D02*
G03X4079338Y4635000I-110655J0D01*
G03X4300648Y4635000I110655J0D01*
G37*
G36*
G01X4370003Y5405805D02*
G01X4170003Y5405805D01*
G03X4134189Y5369991I0J-35814D01*
G01X4134189Y5079992D01*
G03X4170003Y5044178I35814J0D01*
G01X4370003Y5044178D01*
G03X4400000Y5060426I0J35814D01*
G03X4429997Y5044178I29997J19565D01*
G01X4629997Y5044178D01*
G03X4665811Y5079992I0J35814D01*
G01X4665811Y5369991D01*
G03X4629997Y5405805I-35814J0D01*
G01X4429997Y5405805D01*
G03X4400000Y5389556I0J-35814D01*
G03X4370003Y5405805I-29997J-19565D01*
G37*
G36*
G01X4629997Y2945663D02*
G01X4429997Y2945663D01*
G03X4404343Y2920009I0J-25654D01*
G01X4404343Y2630009D01*
G03X4429997Y2604355I25654J0D01*
G01X4629997Y2604355D01*
G03X4655651Y2630009I0J25654D01*
G01X4655651Y2826410D01*
G01X4723118Y2893877D01*
G03X4764707Y2989707I1882J56123D01*
G03X4668877Y2948118I-39707J-39707D01*
G01X4652705Y2931946D01*
G03X4629997Y2945663I-22708J-11937D01*
G37*
G36*
G01X4430143Y2060936D02*
G03X4404489Y2035282I0J-25654D01*
G01X4404489Y1825283D01*
G03X4430143Y1799629I25654J0D01*
G01X4570148Y1799629D01*
G03X4595802Y1825283I0J25654D01*
G01X4595802Y2035282D01*
G03X4570148Y2060936I-25654J0D01*
G01X4430143Y2060936D01*
G37*
G36*
G01X4538500Y1183985D02*
G03X4500146Y1281154I-38354J41016D01*
G03X4461792Y1183985I0J-56154D01*
G01X4461792Y1150346D01*
G01X4430143Y1150346D01*
G03X4404489Y1124692I0J-25654D01*
G01X4404489Y914693D01*
G03X4430143Y889039I25654J0D01*
G01X4570148Y889039D01*
G03X4595802Y914693I0J25654D01*
G01X4595802Y1124692D01*
G03X4570148Y1150346I-25654J0D01*
G01X4538500Y1150346D01*
G01X4538500Y1183985D01*
G37*
G36*
G01X4424346Y5600000D02*
G03X4675654Y5600000I125654J0D01*
G03X4424346Y5600000I-125654J0D01*
G37*
G36*
G01X4424346Y350000D02*
G03X4675654Y350000I125654J0D01*
G03X4424346Y350000I-125654J0D01*
G37*
G36*
G01X4720662Y3365000D02*
G03X4499352Y3365000I-110655J0D01*
G03X4720662Y3365000I110655J0D01*
G37*
G36*
G01X4720662Y4635000D02*
G03X4499352Y4635000I-110655J0D01*
G03X4720662Y4635000I110655J0D01*
G37*
G36*
G01X4674346Y700000D02*
G03X4825654Y700000I75654J0D01*
G03X4674346Y700000I-75654J0D01*
G37*
%LPD*%
G54D10*
G01X25654Y5500000D02*
G02X500000Y5974346I474346J0D01*
G01X4450000Y5974346D01*
G02X4924346Y5500000I0J-474346D01*
G01X4924346Y500000D01*
G02X4450000Y25654I-474346J0D01*
G01X505310Y25654D01*
G03X499282Y26372I-6028J-24936D01*
G02X25654Y500000I0J473628D01*
G01X25654Y5500000D01*
G01X39064Y1179852D02*
G03X64718Y1154198I25654J0D01*
G01X274718Y1154198D01*
G03X300372Y1179852I0J25654D01*
G01X300372Y1319857D01*
G03X274718Y1345511I-25654J0D01*
G01X64718Y1345511D01*
G03X39064Y1319857I0J-25654D01*
G01X39064Y1179852D01*
G01X39064Y1630143D02*
G03X64718Y1604489I25654J0D01*
G01X274718Y1604489D01*
G03X300372Y1630143I0J25654D01*
G01X300372Y1770148D01*
G03X274718Y1795802I-25654J0D01*
G01X64718Y1795802D01*
G03X39064Y1770148I0J-25654D01*
G01X39064Y1630143D01*
G01X274346Y5600000D02*
G03X525654Y5600000I125654J0D01*
G03X274346Y5600000I-125654J0D01*
G01X274346Y350000D02*
G03X525654Y350000I125654J0D01*
G03X274346Y350000I-125654J0D01*
G01X534698Y3839237D02*
G03X570512Y3875051I0J35814D01*
G01X570512Y3975051D01*
G03X534698Y4010865I-35814J0D01*
G01X354699Y4010865D01*
G03X318885Y3975051I0J-35814D01*
G01X318885Y3875051D01*
G03X354699Y3839237I35814J0D01*
G01X534698Y3839237D01*
G01X555292Y4957866D02*
G03X500000Y5248661I-55292J140140D01*
G03X444708Y4957866I0J-150654D01*
G03X465000Y4728353I20292J-113860D01*
G01X509640Y4728353D01*
G01X486947Y4705661D01*
G01X465000Y4705661D01*
G03X465000Y4474353I0J-115654D01*
G01X535000Y4474353D01*
G03X637093Y4644346I0J115654D01*
G01X2042520Y4644346D01*
G03X2106154Y4700000I7480J55654D01*
G03X2042520Y4755654I-56154J0D01*
G01X609630Y4755654D01*
G03X555292Y4957866I-74630J88353D01*
G01X448120Y2896489D02*
G03X461646Y2833985I51880J-21489D01*
G01X461646Y1816016D01*
G03X500000Y1718846I38354J-41016D01*
G03X538354Y1816016I0J56154D01*
G01X538354Y2833985D01*
G03X556123Y2876882I-38354J41016D01*
G01X1052120Y3372880D01*
G03X1063354Y3400000I-27120J27120D01*
G01X1063354Y4108984D01*
G03X1025000Y4206154I-38354J41016D01*
G03X986646Y4108984I0J-56154D01*
G01X986646Y3997848D01*
G03X974880Y4000705I-11766J-22797D01*
G01X794881Y4000705D01*
G03X770473Y3982948I0J-25654D01*
G03X674412Y3974376I-45473J-32948D01*
G03X727567Y3893905I50588J-24376D01*
G03X749949Y3886697I22382J31146D01*
G01X769227Y3886697D01*
G01X769227Y3875051D01*
G03X794881Y3849397I25654J0D01*
G01X974880Y3849397D01*
G03X986646Y3852254I0J25654D01*
G01X986646Y3628749D01*
G03X965000Y3640634I-21646J-13769D01*
G01X785000Y3640634D01*
G03X759346Y3614980I0J-25654D01*
G01X759346Y3514981D01*
G03X785000Y3489327I25654J0D01*
G01X965000Y3489327D01*
G03X986646Y3501212I0J25654D01*
G01X986646Y3415887D01*
G01X501882Y2931123D01*
G03X448120Y2896489I-1882J-56123D01*
G01X789064Y1904852D02*
G03X814718Y1879198I25654J0D01*
G01X1024718Y1879198D01*
G03X1050372Y1904852I0J25654D01*
G01X1050372Y2044857D01*
G03X1024718Y2070511I-25654J0D01*
G01X814718Y2070511D01*
G03X789064Y2044857I0J-25654D01*
G01X789064Y1904852D01*
G01X789064Y930143D02*
G03X814718Y904489I25654J0D01*
G01X1024718Y904489D01*
G03X1050372Y930143I0J25654D01*
G01X1050372Y1070148D01*
G03X1024718Y1095802I-25654J0D01*
G01X814718Y1095802D01*
G03X789064Y1070148I0J-25654D01*
G01X789064Y930143D01*
G01X789064Y479852D02*
G03X814718Y454198I25654J0D01*
G01X1024718Y454198D01*
G03X1050372Y479852I0J25654D01*
G01X1050372Y619857D01*
G03X1024718Y645511I-25654J0D01*
G01X814718Y645511D01*
G03X789064Y619857I0J-25654D01*
G01X789064Y479852D01*
G01X789064Y2355143D02*
G03X814718Y2329489I25654J0D01*
G01X1024718Y2329489D01*
G03X1050372Y2355143I0J25654D01*
G01X1050372Y2495148D01*
G03X1024718Y2520802I-25654J0D01*
G01X814718Y2520802D01*
G03X789064Y2495148I0J-25654D01*
G01X789064Y2355143D01*
G01X1236646Y1041016D02*
G03X1275000Y943846I38354J-41016D01*
G03X1313354Y1041016I0J56154D01*
G01X1313354Y1090160D01*
G03X1302120Y1117280I-38354J0D01*
G01X1210962Y1208439D01*
G01X1210962Y1319857D01*
G03X1185308Y1345511I-25654J0D01*
G01X975308Y1345511D01*
G03X949654Y1319857I0J-25654D01*
G01X949654Y1179852D01*
G03X975308Y1154198I25654J0D01*
G01X1156721Y1154198D01*
G01X1236646Y1074273D01*
G01X1236646Y1041016D01*
G01X1311646Y1449564D02*
G01X1311646Y1400000D01*
G03X1322880Y1372880I38354J0D01*
G01X1699654Y996105D01*
G01X1699654Y930143D01*
G03X1725308Y904489I25654J0D01*
G01X1935308Y904489D01*
G03X1960962Y930143I0J25654D01*
G01X1960962Y1070148D01*
G03X1935308Y1095802I-25654J0D01*
G01X1725308Y1095802D01*
G03X1712100Y1092141I0J-25654D01*
G01X1507646Y1296594D01*
G03X1573364Y1321466I17354J53406D01*
G03X1563354Y1391016I-48364J28534D01*
G01X1563354Y1688657D01*
G01X1753895Y1879198D01*
G01X1935308Y1879198D01*
G03X1960962Y1904852I0J25654D01*
G01X1960962Y2044857D01*
G03X1935308Y2070511I-25654J0D01*
G01X1725308Y2070511D01*
G03X1699654Y2044857I0J-25654D01*
G01X1699654Y1933439D01*
G01X1505029Y1738814D01*
G03X1454684Y1805959I-55029J11186D01*
G03X1393877Y1748118I-4684J-55959D01*
G01X1384259Y1738500D01*
G01X1210962Y1738500D01*
G01X1210962Y1770148D01*
G03X1185308Y1795802I-25654J0D01*
G01X975308Y1795802D01*
G03X949654Y1770148I0J-25654D01*
G01X949654Y1630143D01*
G03X975308Y1604489I25654J0D01*
G01X1156721Y1604489D01*
G01X1311646Y1449564D01*
G01X1019398Y2992146D02*
G03X1092353Y2946594I55602J7854D01*
G01X1089382Y2943623D01*
G03X1047793Y2847793I-1882J-56123D01*
G03X1143623Y2889382I39707J39707D01*
G01X1204163Y2949923D01*
G03X1414978Y2820028I120833J-39913D01*
G03X1285084Y3030843I-89982J89982D01*
G01X3027120Y4772880D01*
G03X3038354Y4800000I-27120J27120D01*
G01X3038354Y4958985D01*
G03X3041016Y4961646I-38354J41016D01*
G01X3533985Y4961646D01*
G03X3565427Y4944668I41016J38354D01*
G01X1126882Y2506123D01*
G03X1085293Y2410293I-1882J-56123D01*
G03X1181123Y2451882I39707J39707D01*
G01X3977121Y5247880D01*
G03X3988354Y5275000I-27120J27120D01*
G01X3988354Y5475000D01*
G03X3977121Y5502121I-38354J0D01*
G01X3875908Y5603333D01*
G03X3758599Y5770833I-75908J71667D01*
G03X3800153Y5570606I41402J-95833D01*
G01X3911646Y5459113D01*
G01X3911646Y5290887D01*
G01X3630333Y5009573D01*
G03X3533985Y5038354I-55332J-9573D01*
G01X3041016Y5038354D01*
G03X2960293Y5039707I-41016J-38354D01*
G03X2961646Y4958985I39707J-39707D01*
G01X2961646Y4815887D01*
G01X1128406Y2982647D01*
G03X1130602Y2992146I-53406J17353D01*
G03X1131123Y3001882I-55602J7854D01*
G01X2908120Y4778880D01*
G03X2919354Y4806000I-27120J27120D01*
G01X2919354Y5275643D01*
G03X2881000Y5471854I-38354J94357D01*
G03X2842646Y5275643I0J-101854D01*
G01X2842646Y4821887D01*
G01X1076882Y3056123D01*
G03X1019398Y2992146I-1882J-56123D01*
G01X1452250Y5289990D02*
G03X1197742Y5289990I-127254J0D01*
G03X1452250Y5289990I127254J0D01*
G01X1699654Y2466561D02*
G01X1699654Y2355143D01*
G03X1725308Y2329489I25654J0D01*
G01X1777212Y2329489D01*
G03X1825000Y2243846I47788J-29489D01*
G03X1872788Y2329489I0J56154D01*
G01X1935308Y2329489D01*
G03X1960962Y2355143I0J25654D01*
G01X1960962Y2495148D01*
G03X1935308Y2520802I-25654J0D01*
G01X1753895Y2520802D01*
G01X1697577Y2577120D01*
G03X1670456Y2588354I-27120J-27120D01*
G01X1416016Y2588354D01*
G03X1318846Y2550000I-41016J-38354D01*
G03X1416016Y2511646I56154J0D01*
G01X1654569Y2511646D01*
G01X1699654Y2466561D01*
G01X1699654Y619857D02*
G01X1699654Y479852D01*
G03X1725308Y454198I25654J0D01*
G01X1935308Y454198D01*
G03X1960962Y479852I0J25654D01*
G01X1960962Y619857D01*
G03X1935308Y645511I-25654J0D01*
G01X1788892Y645511D01*
G01X1730652Y703750D01*
G03X1629613Y729325I-55653J-7490D01*
G03X1684931Y640991I45387J-33065D01*
G01X1700308Y625613D01*
G03X1699654Y619857I25000J-5756D01*
G01X2116016Y1613354D02*
G03X2043240Y1621310I-41016J-38354D01*
G03X2024446Y1550554I31760J-46310D01*
G03X1949446Y1475554I-24446J-50554D01*
G03X1869796Y1414712I-24446J-50554D01*
G03X1966016Y1386646I55204J10288D01*
G01X2259102Y1386646D01*
G01X2261635Y1384113D01*
G01X2261635Y1228141D01*
G01X2222488Y1228141D01*
G03X2196834Y1202487I0J-25654D01*
G01X2196834Y1047486D01*
G03X2222488Y1021832I25654J0D01*
G01X2377489Y1021832D01*
G03X2403143Y1047486I0J25654D01*
G01X2403143Y1202487D01*
G03X2377489Y1228141I-25654J0D01*
G01X2338343Y1228141D01*
G01X2338343Y1400000D01*
G03X2327109Y1427120I-38354J0D01*
G01X2302109Y1452120D01*
G03X2286307Y1461646I-27120J-27120D01*
G01X2434113Y1461646D01*
G01X2903187Y992572D01*
G03X2930308Y981338I27120J27120D01*
G01X3954198Y981338D01*
G01X3954198Y914693D01*
G03X3979852Y889039I25654J0D01*
G01X4119857Y889039D01*
G03X4145511Y914693I0J25654D01*
G01X4145511Y1124692D01*
G03X4119857Y1150346I-25654J0D01*
G01X3979852Y1150346D01*
G03X3954198Y1124692I0J-25654D01*
G01X3954198Y1058046D01*
G01X2946195Y1058046D01*
G01X2477121Y1527120D01*
G03X2461318Y1536646I-27120J-27120D01*
G01X3050000Y1536646D01*
G03X3077120Y1547880I0J38354D01*
G01X4147302Y2618061D01*
G03X4170003Y2604355I22702J11949D01*
G01X4370003Y2604355D01*
G03X4395657Y2630009I0J25654D01*
G01X4395657Y2920009D01*
G03X4370003Y2945663I-25654J0D01*
G01X4170003Y2945663D01*
G03X4144349Y2920009I0J-25654D01*
G01X4144349Y2723590D01*
G01X3034113Y1613354D01*
G01X2116016Y1613354D01*
G01X2195200Y5257986D02*
G03X2231014Y5293800I0J35814D01*
G01X2231014Y5446200D01*
G03X2195200Y5482014I-35814J0D01*
G01X2042800Y5482014D01*
G03X2006986Y5446200I0J-35814D01*
G01X2006986Y5293800D01*
G03X2042800Y5257986I35814J0D01*
G01X2195200Y5257986D01*
G01X2299989Y738302D02*
G03X2299989Y511673I0J-113314D01*
G03X2299989Y738302I0J113314D01*
G01X2299989Y978155D02*
G03X2299989Y771846I0J-103154D01*
G03X2299989Y978155I0J103154D01*
G01X2271146Y5370000D02*
G03X2474854Y5370000I101854J0D01*
G03X2271146Y5370000I-101854J0D01*
G01X2525146Y5370000D02*
G03X2728854Y5370000I101854J0D01*
G03X2525146Y5370000I-101854J0D01*
G01X2970000Y1229345D02*
G01X3130000Y1229345D01*
G03X3130000Y1520653I0J145654D01*
G01X2970000Y1520653D01*
G03X2970000Y1229345I0J-145654D01*
G01X2970000Y229347D02*
G01X3130000Y229347D01*
G03X3130000Y520655I0J145654D01*
G01X2970000Y520655D01*
G03X2970000Y229347I0J-145654D01*
G01X3050000Y2643846D02*
G03X3105654Y2707480I0J56154D01*
G01X3105654Y3767520D01*
G03X3050000Y3831154I-55654J7480D01*
G03X2994346Y3767520I0J-56154D01*
G01X2994346Y2707480D01*
G03X3050000Y2643846I55654J-7480D01*
G01X3668886Y5497873D02*
G03X3767356Y5463132I56114J2127D01*
G03X3719370Y5555871I-42356J36868D01*
G01X3650394Y5624847D01*
G01X3650394Y5753740D01*
G03X3624740Y5779394I-25654J0D01*
G01X3467260Y5779394D01*
G03X3441606Y5753740I0J-25654D01*
G01X3441606Y5596260D01*
G03X3467260Y5570606I25654J0D01*
G01X3596153Y5570606D01*
G01X3668886Y5497873D01*
G01X3802258Y5289990D02*
G03X3547750Y5289990I-127254J0D01*
G03X3802258Y5289990I127254J0D01*
G01X3802258Y2910010D02*
G03X3547750Y2910010I-127254J0D01*
G03X3802258Y2910010I127254J0D01*
G01X3868846Y2275000D02*
G03X3981154Y2275000I56154J0D01*
G03X3868846Y2275000I-56154J0D01*
G01X3939446Y5675000D02*
G03X4168554Y5675000I114554J0D01*
G03X3939446Y5675000I-114554J0D01*
G01X3979852Y2060936D02*
G03X3954198Y2035282I0J-25654D01*
G01X3954198Y1825283D01*
G03X3979852Y1799629I25654J0D01*
G01X4119857Y1799629D01*
G03X4145511Y1825283I0J25654D01*
G01X4145511Y2035282D01*
G03X4119857Y2060936I-25654J0D01*
G01X3979852Y2060936D01*
G01X4300648Y3365000D02*
G03X4079338Y3365000I-110655J0D01*
G03X4300648Y3365000I110655J0D01*
G01X4300648Y4635000D02*
G03X4079338Y4635000I-110655J0D01*
G03X4300648Y4635000I110655J0D01*
G01X4370003Y5405805D02*
G01X4170003Y5405805D01*
G03X4134189Y5369991I0J-35814D01*
G01X4134189Y5079992D01*
G03X4170003Y5044178I35814J0D01*
G01X4370003Y5044178D01*
G03X4400000Y5060426I0J35814D01*
G03X4429997Y5044178I29997J19565D01*
G01X4629997Y5044178D01*
G03X4665811Y5079992I0J35814D01*
G01X4665811Y5369991D01*
G03X4629997Y5405805I-35814J0D01*
G01X4429997Y5405805D01*
G03X4400000Y5389556I0J-35814D01*
G03X4370003Y5405805I-29997J-19565D01*
G01X4629997Y2945663D02*
G01X4429997Y2945663D01*
G03X4404343Y2920009I0J-25654D01*
G01X4404343Y2630009D01*
G03X4429997Y2604355I25654J0D01*
G01X4629997Y2604355D01*
G03X4655651Y2630009I0J25654D01*
G01X4655651Y2826410D01*
G01X4723118Y2893877D01*
G03X4764707Y2989707I1882J56123D01*
G03X4668877Y2948118I-39707J-39707D01*
G01X4652705Y2931946D01*
G03X4629997Y2945663I-22708J-11937D01*
G01X4430143Y2060936D02*
G03X4404489Y2035282I0J-25654D01*
G01X4404489Y1825283D01*
G03X4430143Y1799629I25654J0D01*
G01X4570148Y1799629D01*
G03X4595802Y1825283I0J25654D01*
G01X4595802Y2035282D01*
G03X4570148Y2060936I-25654J0D01*
G01X4430143Y2060936D01*
G01X4538500Y1183985D02*
G03X4500146Y1281154I-38354J41016D01*
G03X4461792Y1183985I0J-56154D01*
G01X4461792Y1150346D01*
G01X4430143Y1150346D01*
G03X4404489Y1124692I0J-25654D01*
G01X4404489Y914693D01*
G03X4430143Y889039I25654J0D01*
G01X4570148Y889039D01*
G03X4595802Y914693I0J25654D01*
G01X4595802Y1124692D01*
G03X4570148Y1150346I-25654J0D01*
G01X4538500Y1150346D01*
G01X4538500Y1183985D01*
G01X4424346Y5600000D02*
G03X4675654Y5600000I125654J0D01*
G03X4424346Y5600000I-125654J0D01*
G01X4424346Y350000D02*
G03X4675654Y350000I125654J0D01*
G03X4424346Y350000I-125654J0D01*
G01X4720662Y3365000D02*
G03X4499352Y3365000I-110655J0D01*
G03X4720662Y3365000I110655J0D01*
G01X4720662Y4635000D02*
G03X4499352Y4635000I-110655J0D01*
G03X4720662Y4635000I110655J0D01*
G01X4674346Y700000D02*
G03X4825654Y700000I75654J0D01*
G03X4674346Y700000I-75654J0D01*
G54D11*
G01X444699Y3875305D02*
G01X444699Y3849397D01*
G01X444699Y3974797D02*
G01X444699Y4000705D01*
G54D12*
G01X354953Y3925051D02*
G01X329045Y3925051D01*
G01X534444Y3925051D02*
G01X560352Y3925051D01*
G54D13*
G01X4270003Y5369737D02*
G01X4270003Y5395645D01*
G01X4270003Y5080246D02*
G01X4270003Y5054338D01*
G54D14*
G01X4170257Y5224991D02*
G01X4144349Y5224991D01*
G54D13*
G01X4529997Y5369737D02*
G01X4529997Y5395645D01*
G01X4529997Y5080246D02*
G01X4529997Y5054338D01*
G54D14*
G01X4629743Y5224991D02*
G01X4655651Y5224991D01*
G54D15*
G01X2043054Y5370000D02*
G01X2017146Y5370000D01*
G01X2194946Y5370000D02*
G01X2220854Y5370000D01*
G01X2119000Y5445946D02*
G01X2119000Y5471854D01*
G01X2119000Y5294054D02*
G01X2119000Y5268146D01*
G54D17*
G01X2299989Y702234D02*
G01X2299989Y728142D01*
G01X2299989Y547741D02*
G01X2299989Y521833D01*
G01X2377235Y624988D02*
G01X2403143Y624988D01*
G01X2222742Y624988D02*
G01X2196834Y624988D01*
G54D18*
G01X3975514Y5675000D02*
G01X3949606Y5675000D01*
G01X4132486Y5675000D02*
G01X4158394Y5675000D01*
G01X4054000Y5753486D02*
G01X4054000Y5779394D01*
G01X4054000Y5596514D02*
G01X4054000Y5570606D01*
G04 Copper End*

G04 Pad Start*
G54D19*
G01X444699Y3925051D03*
G01X884881Y3925051D03*
G01X875000Y3564980D03*
G54D20*
G01X169718Y1249854D03*
G01X1080308Y1249854D03*
G01X1080308Y1700146D03*
G01X169718Y1700146D03*
G01X919718Y1974855D03*
G01X1830308Y1974855D03*
G01X1830308Y2425146D03*
G01X919718Y2425146D03*
G54D21*
G01X2119000Y5370000D03*
G54D22*
G01X2373000Y5370000D03*
G01X2627000Y5370000D03*
G01X2881000Y5370000D03*
G54D23*
G01X4049854Y1930282D03*
G01X4049854Y1019692D03*
G01X4500146Y1019692D03*
G01X4500146Y1930282D03*
G54D24*
G01X2299989Y1124987D03*
G54D25*
G01X2299989Y875000D03*
G01X2299989Y624988D03*
G54D26*
G01X3050000Y375001D03*
G01X3050000Y1374999D03*
G54D27*
G01X500000Y5098007D03*
G54D28*
G01X500000Y4844007D03*
G01X500000Y4590007D03*
G54D29*
G01X4529997Y2775009D03*
G01X4270003Y2775009D03*
G01X4529997Y5224991D03*
G01X4270003Y5224991D03*
G54D20*
G01X919718Y549854D03*
G01X1830308Y549854D03*
G01X1830308Y1000146D03*
G01X919718Y1000146D03*
G54D30*
G01X4054000Y5675000D03*
G01X3800000Y5675000D03*
G54D31*
G01X3546000Y5675000D03*
G54D32*
G01X400000Y5600000D03*
G01X4550000Y5600000D03*
G01X400000Y350000D03*
G01X4550000Y350000D03*
G54D33*
G01X4750000Y700000D03*
G04 Pad End*

G04 Via Start*
G54D34*
G01X2050000Y4700000D03*
G01X1075000Y3000000D03*
G01X3000000Y5000000D03*
G01X3575000Y5000000D03*
G01X3050000Y2700000D03*
G01X3050000Y3775000D03*
G01X2075000Y1575000D03*
G01X1675000Y696260D03*
G01X1275000Y1000000D03*
G01X1087500Y2887500D03*
G01X1125000Y2450000D03*
G01X725000Y3950000D03*
G01X1375000Y2550000D03*
G01X2000000Y1500000D03*
G01X4500146Y1225000D03*
G01X500000Y2875000D03*
G01X3725000Y5500000D03*
G01X4725000Y2950000D03*
G01X3925000Y2275000D03*
G01X1450000Y1750000D03*
G01X1825000Y2300000D03*
G01X1925000Y1425000D03*
G01X1525000Y1350000D03*
G01X500000Y1775000D03*
G01X1025000Y4150000D03*
G54D35*
G01X2978480Y5561520D03*
G01X3994480Y5561520D03*
G01X946480Y5053520D03*
G01X1454480Y5053520D03*
G01X1962480Y5053520D03*
G01X2470480Y5053520D03*
G01X3994480Y5053520D03*
G01X946480Y4545520D03*
G01X1454480Y4545520D03*
G01X1962480Y4545520D03*
G01X3486480Y4545520D03*
G01X438480Y4037520D03*
G01X946480Y4037520D03*
G01X3486480Y4037520D03*
G01X3994480Y4037520D03*
G01X4502480Y4037520D03*
G01X1454480Y3529520D03*
G01X1962480Y3529520D03*
G01X2470480Y3529520D03*
G01X3486480Y3529520D03*
G01X3994480Y3529520D03*
G01X438480Y3021520D03*
G01X1454480Y3021520D03*
G01X1962480Y3021520D03*
G01X2470480Y3021520D03*
G01X3486480Y3021520D03*
G01X3994480Y3021520D03*
G01X4502480Y3021520D03*
G01X3486480Y2513520D03*
G01X4502480Y2513520D03*
G01X438480Y1497520D03*
G01X3486480Y1497520D03*
G01X3994480Y1497520D03*
G01X4502480Y1497520D03*
G01X438480Y989520D03*
G01X1454480Y989520D03*
G01X2470480Y989520D03*
G01X1454480Y481520D03*
G01X2470480Y481520D03*
G01X3486480Y481520D03*
G01X3994480Y481520D03*
G04 Via End*

G04 Track Start*
G54D36*
G01X1075000Y3000000D02*
G01X2881000Y4806000D01*
G01X2881000Y5370000D01*
G01X3000000Y5000000D02*
G01X3000000Y4800000D01*
G01X3575000Y5000000D02*
G01X3000000Y5000000D01*
G54D37*
G01X3050000Y2700000D02*
G01X3050000Y3775000D01*
G54D36*
G01X3800000Y5625000D02*
G01X3800000Y5675000D01*
G01X3950000Y5475000D02*
G01X3800000Y5625000D01*
G01X3950000Y5275000D02*
G01X3950000Y5475000D01*
G01X1675000Y696260D02*
G01X1683902Y696260D01*
G01X1830308Y549854D01*
G01X1275000Y1000000D02*
G01X1275000Y1090160D01*
G01X1115305Y1249854D02*
G01X1080308Y1249854D01*
G01X1275000Y1090160D02*
G01X1115305Y1249854D01*
G01X1830308Y1974855D02*
G01X1795310Y1974855D01*
G01X1525000Y1704544D01*
G01X3000000Y4800000D02*
G01X1087500Y2887500D01*
G01X1125000Y2450000D02*
G01X3950000Y5275000D01*
G01X884881Y3925051D02*
G01X749949Y3925051D01*
G01X725000Y3950000D01*
G01X1795310Y2425146D02*
G01X1670456Y2550000D01*
G01X1375000Y2550000D01*
G01X1830308Y2425146D02*
G01X1795310Y2425146D01*
G01X4049854Y1019692D02*
G01X2930308Y1019692D01*
G01X2450000Y1500000D01*
G01X2000000Y1500000D01*
G01X4500146Y1019692D02*
G01X4500146Y1225000D01*
G01X3546000Y5675000D02*
G01X3721000Y5500000D01*
G01X3725000Y5500000D01*
G01X1080308Y1700146D02*
G01X1115305Y1700146D01*
G01X1350000Y1465451D01*
G01X1350000Y1400000D01*
G01X1749855Y1000146D02*
G01X1830308Y1000146D01*
G01X1350000Y1400000D02*
G01X1749855Y1000146D01*
G01X1400146Y1700146D02*
G01X1450000Y1750000D01*
G01X1825000Y2300000D02*
G01X1830308Y2305308D01*
G01X1115305Y1700146D02*
G01X1400146Y1700146D01*
G01X1830308Y2305308D02*
G01X1830308Y2425146D01*
G01X2299989Y1124987D02*
G01X2299989Y1400000D01*
G01X2274989Y1425000D01*
G01X1925000Y1425000D01*
G01X1525000Y1350000D02*
G01X1525000Y1704544D01*
G01X500000Y1775000D02*
G01X500000Y2875000D01*
G01X1025000Y3400000D01*
G01X1025000Y4150000D01*
G01X2075000Y1575000D02*
G01X3050000Y1575000D01*
G01X4250009Y2775009D02*
G01X4270003Y2775009D01*
G01X3050000Y1575000D02*
G01X4250009Y2775009D01*
G01X4529997Y2775009D02*
G01X4550009Y2775009D01*
G01X4725000Y2950000D01*
G54D37*
G01X559993Y4700000D02*
G01X2050000Y4700000D01*
G01X500000Y4590007D02*
G01X500000Y4640007D01*
G01X559993Y4700000D01*
G04 Track End*

M02*

