G04 Layer: TopSolderMaskLayer*
G04 EasyEDA Pro v2.2.27.1, 2024-09-03 10:08:37*
G04 Gerber Generator version 0.3*
G04 Scale: 100 percent, Rotated: No, Reflected: No*
G04 Dimensions in millimeters*
G04 Leading zeros omitted, absolute positions, 3 integers and 5 decimals*
%FSLAX35Y35*%
%MOMM*%
%AMRoundRect*1,1,$1,$2,$3*1,1,$1,$4,$5*1,1,$1,0-$2,0-$3*1,1,$1,0-$4,0-$5*20,1,$1,$2,$3,$4,$5,0*20,1,$1,$4,$5,0-$2,0-$3,0*20,1,$1,0-$2,0-$3,0-$4,0-$5,0*20,1,$1,0-$4,0-$5,$2,$3,0*4,1,4,$2,$3,$4,$5,0-$2,0-$3,0-$4,0-$5,$2,$3,0*%
%ADD10RoundRect,0.17384X-0.91468X-0.51468X-0.91468X0.51468*%
%ADD11RoundRect,0.18034X-1.06143X0.71145X1.06143X0.71145*%
%ADD12RoundRect,0.18181X-0.77269X0.77269X0.77269X0.77269*%
%ADD13C,1.7272*%
%ADD14RoundRect,0.18034X0.71145X1.06143X0.71145X-1.06143*%
%ADD15RoundRect,0.09571X0.77795X0.77795X0.77795X-0.77795*%
%ADD16C,1.65161*%
%ADD17O,4.10159X2.5016*%
%ADD18C,2.6016*%
%ADD19O,2.6016X1.9016*%
%ADD20RoundRect,0.09691X1.00234X1.45234X1.00234X-1.45234*%
%ADD21C,1.6764*%
%ADD22RoundRect,0.09579X-0.7903X0.7903X0.7903X0.7903*%
%ADD23C,2.1016*%
%ADD24C,2.0*%
G75*


G04 Pad Start*
G54D10*
G01X444699Y3925051D03*
G01X884881Y3925051D03*
G01X875000Y3564980D03*
G54D11*
G01X169718Y1249854D03*
G01X1080308Y1249854D03*
G01X1080308Y1700146D03*
G01X169718Y1700146D03*
G01X919718Y1974855D03*
G01X1830308Y1974855D03*
G01X1830308Y2425146D03*
G01X919718Y2425146D03*
G54D12*
G01X2119000Y5370000D03*
G54D13*
G01X2373000Y5370000D03*
G01X2627000Y5370000D03*
G01X2881000Y5370000D03*
G54D14*
G01X4049854Y1930282D03*
G01X4049854Y1019692D03*
G01X4500146Y1019692D03*
G01X4500146Y1930282D03*
G54D15*
G01X2299989Y1124987D03*
G54D16*
G01X2299989Y875000D03*
G01X2299989Y624988D03*
G54D17*
G01X3050000Y375001D03*
G01X3050000Y1374999D03*
G54D18*
G01X500000Y5098007D03*
G54D19*
G01X500000Y4844007D03*
G01X500000Y4590007D03*
G54D20*
G01X4529997Y2775009D03*
G01X4270003Y2775009D03*
G01X4529997Y5224991D03*
G01X4270003Y5224991D03*
G54D11*
G01X919718Y549854D03*
G01X1830308Y549854D03*
G01X1830308Y1000146D03*
G01X919718Y1000146D03*
G54D21*
G01X4054000Y5675000D03*
G01X3800000Y5675000D03*
G54D22*
G01X3546000Y5675000D03*
G54D23*
G01X400000Y5600000D03*
G01X4550000Y5600000D03*
G01X400000Y350000D03*
G01X4550000Y350000D03*
G54D24*
G01X4750000Y700000D03*
G04 Pad End*

M02*

