G04 Layer: BottomSolderMaskLayer*
G04 EasyEDA Pro v2.2.27.1, 2024-09-03 10:08:37*
G04 Gerber Generator version 0.3*
G04 Scale: 100 percent, Rotated: No, Reflected: No*
G04 Dimensions in millimeters*
G04 Leading zeros omitted, absolute positions, 3 integers and 5 decimals*
%FSLAX35Y35*%
%MOMM*%
%AMRoundRect*1,1,$1,$2,$3*1,1,$1,$4,$5*1,1,$1,0-$2,0-$3*1,1,$1,0-$4,0-$5*20,1,$1,$2,$3,$4,$5,0*20,1,$1,$4,$5,0-$2,0-$3,0*20,1,$1,0-$2,0-$3,0-$4,0-$5,0*20,1,$1,0-$4,0-$5,$2,$3,0*4,1,4,$2,$3,$4,$5,0-$2,0-$3,0-$4,0-$5,$2,$3,0*%
%ADD10RoundRect,0.18181X-0.77269X0.77269X0.77269X0.77269*%
%ADD11C,1.7272*%
%ADD12RoundRect,0.09138X-0.43712X-0.40835X-0.43712X0.40835*%
%ADD13RoundRect,0.09138X0.43712X0.40835X0.43712X-0.40835*%
%ADD14RoundRect,0.09144X-0.55118X-0.41148X-0.55118X0.41148*%
%ADD15RoundRect,0.09144X0.55118X0.41148X0.55118X-0.41148*%
%ADD16RoundRect,0.09571X0.77795X0.77795X0.77795X-0.77795*%
%ADD17C,1.65161*%
%ADD18O,4.10159X2.5016*%
%ADD19C,2.6016*%
%ADD20O,2.6016X1.9016*%
%ADD21RoundRect,0.09131X-0.45514X-0.40514X-0.45514X0.40514*%
%ADD22R,1.016X0.8128*%
%ADD23RoundRect,0.09138X-0.40835X0.43712X0.40835X0.43712*%
%ADD24RoundRect,0.09144X0.55118X0.41148X0.55118X-0.41148*%
%ADD25RoundRect,0.09144X-0.41148X0.55118X0.41148X0.55118*%
%ADD26O,2.07259X0.70361*%
%ADD27RoundRect,0.09838X-1.50161X-1.75161X-1.50161X1.75161*%
%ADD28RoundRect,0.09838X-1.50161X-2.50161X-1.50161X2.50161*%
%ADD29C,11.10158*%
%ADD30O,0.7316X1.9666*%
%ADD31C,1.6764*%
%ADD32RoundRect,0.09579X-0.7903X0.7903X0.7903X0.7903*%
%ADD33C,2.1016*%
G75*


G04 Pad Start*
G54D10*
G01X2119000Y5370000D03*
G54D11*
G01X2373000Y5370000D03*
G01X2627000Y5370000D03*
G01X2881000Y5370000D03*
G54D12*
G01X2875000Y5750337D03*
G01X2875000Y5599664D03*
G01X2625000Y5750337D03*
G01X2625000Y5599664D03*
G54D13*
G01X4200000Y2124664D03*
G01X4200000Y2275337D03*
G01X4400000Y2124664D03*
G01X4400000Y2275337D03*
G01X4600000Y2124664D03*
G01X4600000Y2275337D03*
G54D14*
G01X1525000Y1096260D03*
G01X1525000Y1253740D03*
G54D15*
G01X1525000Y853740D03*
G01X1525000Y696260D03*
G01X4275000Y1628740D03*
G01X4275000Y1471260D03*
G54D16*
G01X2299989Y1124987D03*
G54D17*
G01X2299989Y875000D03*
G01X2299989Y624988D03*
G54D18*
G01X3050000Y375001D03*
G01X3050000Y1374999D03*
G54D19*
G01X500000Y5098007D03*
G54D20*
G01X500000Y4844007D03*
G01X500000Y4590007D03*
G54D21*
G01X775000Y5529998D03*
G01X775000Y5670003D03*
G01X1000000Y5529998D03*
G01X1000000Y5670003D03*
G54D22*
G01X721920Y4154750D03*
G01X478080Y4250000D03*
G01X721920Y4345250D03*
G54D23*
G01X499664Y3450000D03*
G01X650337Y3450000D03*
G54D24*
G01X1275000Y696260D03*
G01X1275000Y853740D03*
G54D25*
G01X653740Y3725000D03*
G01X496260Y3725000D03*
G54D26*
G01X873558Y2944500D03*
G01X873558Y2817500D03*
G01X873558Y2690500D03*
G01X873558Y2563500D03*
G01X873558Y2436500D03*
G01X873558Y2309500D03*
G01X873558Y2182500D03*
G01X873558Y2055500D03*
G01X326442Y2944500D03*
G01X326442Y2817500D03*
G01X326442Y2690500D03*
G01X326442Y2563500D03*
G01X326442Y2436500D03*
G01X326442Y2309500D03*
G01X326442Y2182500D03*
G01X326442Y2055500D03*
G54D27*
G01X3693400Y4250000D03*
G54D28*
G01X1356600Y4250000D03*
G54D29*
G01X2525000Y4250000D03*
G54D27*
G01X3668400Y2150000D03*
G54D28*
G01X1331600Y2150000D03*
G54D29*
G01X2500000Y2150000D03*
G54D30*
G01X4590500Y3781751D03*
G01X4463500Y3781751D03*
G01X4336500Y3781751D03*
G01X4209500Y3781751D03*
G01X4590500Y4318249D03*
G01X4463500Y4318249D03*
G01X4336500Y4318249D03*
G01X4209500Y4318249D03*
G54D31*
G01X4054000Y5675000D03*
G01X3800000Y5675000D03*
G54D32*
G01X3546000Y5675000D03*
G54D33*
G01X400000Y5600000D03*
G01X4550000Y5600000D03*
G01X400000Y350000D03*
G01X4550000Y350000D03*
G04 Pad End*

M02*

