G04 Layer: BottomLayer*
G04 EasyEDA Pro v2.2.27.1, 2024-09-03 10:08:37*
G04 Gerber Generator version 0.3*
G04 Scale: 100 percent, Rotated: No, Reflected: No*
G04 Dimensions in millimeters*
G04 Leading zeros omitted, absolute positions, 3 integers and 5 decimals*
%FSLAX35Y35*%
%MOMM*%
%ADD10C,0.2032*%
%ADD11C,0.79248*%
%ADD12C,0.78008*%
%ADD13C,0.76708*%
%ADD14C,0.32008*%
%ADD15C,0.93758*%
%ADD16C,0.40832*%
%ADD17C,0.4436*%
%ADD18C,0.43708*%
%ADD19C,0.41148*%
%ADD20C,0.55118*%
%ADD21C,1.75508*%
%ADD22C,1.50508*%
%ADD23C,2.50507*%
%ADD24C,0.40508*%
%ADD25C,0.45508*%
%ADD26C,0.30608*%
%ADD27R,1.524X1.524*%
%ADD28C,1.524*%
%ADD29R,0.86401X0.80648*%
%ADD30R,0.86401X0.80648*%
%ADD31R,1.0922X0.8128*%
%ADD32R,1.0922X0.8128*%
%ADD33R,1.55001X1.55001*%
%ADD34C,1.55001*%
%ADD35O,3.99999X2.4*%
%ADD36C,2.49999*%
%ADD37O,2.49999X1.8*%
%ADD38R,0.9X0.8*%
%ADD39R,1.016X0.8128*%
%ADD40R,0.80648X0.86401*%
%ADD41R,1.0922X0.8128*%
%ADD42R,0.8128X1.0922*%
%ADD43O,1.97099X0.60201*%
%ADD44R,2.99999X3.49999*%
%ADD45R,2.99999X4.99999*%
%ADD46C,10.99998*%
%ADD47O,0.63X1.865*%
%ADD48C,1.5748*%
%ADD49R,1.5748X1.5748*%
%ADD50C,2.0*%
%ADD51C,0.61001*%
%ADD52C,0.6096*%
%ADD53C,0.254*%
%ADD54C,0.6*%
%ADD55C,0.5*%
G75*


G04 Copper Start*
G36*
G01X25654Y5500000D02*
G02X500000Y5974346I474346J0D01*
G01X4450000Y5974346D01*
G02X4924346Y5500000I0J-474346D01*
G01X4924346Y500000D01*
G02X4450000Y25654I-474346J0D01*
G01X505310Y25654D01*
G03X499282Y26372I-6028J-24936D01*
G02X25654Y500000I0J473628D01*
G01X25654Y5500000D01*
G37*
%LPC*%
G36*
G01X460406Y2683256D02*
G03X394891Y2756414I-65515J7244D01*
G01X257993Y2756414D01*
G03X257993Y2624586I0J-65914D01*
G01X394891Y2624586D01*
G03X402136Y2624985I0J65914D01*
G01X396385Y2619234D01*
G01X394891Y2619254D01*
G01X257993Y2619254D01*
G03X257993Y2507746I0J-55754D01*
G01X394891Y2507746D01*
G03X450626Y2564994I0J55754D01*
G01X677457Y2791825D01*
G03X686646Y2806590I-27120J27120D01*
G01X686646Y2600000D01*
G03X697880Y2572880I38354J0D01*
G01X734380Y2536380D01*
G03X761500Y2525146I27120J27120D01*
G01X764643Y2525146D01*
G03X805109Y2507746I40466J38354D01*
G01X942007Y2507746D01*
G03X962494Y2511646I0J55754D01*
G01X1333984Y2511646D01*
G03X1431154Y2550000I41016J38354D01*
G03X1333984Y2588354I-56154J0D01*
G01X991915Y2588354D01*
G03X942007Y2619254I-49908J-24854D01*
G01X805109Y2619254D01*
G03X771361Y2607880I0J-55754D01*
G01X763354Y2615887D01*
G01X763354Y2653553D01*
G03X805109Y2634746I41755J36947D01*
G01X942007Y2634746D01*
G03X942007Y2746254I0J55754D01*
G01X805109Y2746254D01*
G03X763354Y2727447I0J-55754D01*
G01X763354Y2780553D01*
G03X805109Y2761746I41755J36947D01*
G01X942007Y2761746D01*
G03X982473Y2779146I0J55754D01*
G01X1017500Y2779146D01*
G03X1044621Y2790380I0J38354D01*
G01X1085618Y2831377D01*
G03X1143102Y2895354I1882J56123D01*
G03X1070147Y2940906I-55602J-7854D01*
G01X1073118Y2943877D01*
G03X1114707Y3039707I1882J56123D01*
G03X1018877Y2998118I-39707J-39707D01*
G01X1003613Y2982854D01*
G01X982473Y2982854D01*
G03X942007Y3000254I-40466J-38354D01*
G01X805109Y3000254D01*
G03X763354Y2981447I0J-55754D01*
G01X763354Y3625000D01*
G03X752120Y3652120I-38354J0D01*
G01X720034Y3684207D01*
G01X720034Y3779610D01*
G03X694380Y3805264I-25654J0D01*
G01X613100Y3805264D01*
G03X587446Y3779610I0J-25654D01*
G01X587446Y3670390D01*
G03X613100Y3644736I25654J0D01*
G01X651023Y3644736D01*
G01X686646Y3609113D01*
G01X686646Y3518855D01*
G01X610013Y3518855D01*
G03X584359Y3493201I0J-25654D01*
G01X584359Y3406800D01*
G03X610013Y3381146I25654J0D01*
G01X611983Y3381146D01*
G01X611983Y2834832D01*
G01X460406Y2683256D01*
G37*
G36*
G01X257993Y2253746D02*
G01X394891Y2253746D01*
G03X394891Y2365254I0J55754D01*
G01X257993Y2365254D01*
G03X257993Y2253746I0J-55754D01*
G37*
G36*
G01X257993Y2380746D02*
G01X394891Y2380746D01*
G03X394891Y2492254I0J55754D01*
G01X257993Y2492254D01*
G03X257993Y2380746I0J-55754D01*
G37*
G36*
G01X430860Y2860101D02*
G03X394891Y2873254I-35969J-42601D01*
G01X257993Y2873254D01*
G03X257993Y2761746I0J-55754D01*
G01X394891Y2761746D01*
G03X435357Y2779146I0J55754D01*
G01X442500Y2779146D01*
G03X469620Y2790380I0J38354D01*
G01X498118Y2818877D01*
G03X539707Y2914707I1882J56123D01*
G03X443877Y2873118I-39707J-39707D01*
G01X430860Y2860101D01*
G37*
G36*
G01X257993Y2888746D02*
G01X394891Y2888746D01*
G03X394891Y3000254I0J55754D01*
G01X257993Y3000254D01*
G03X257993Y2888746I0J-55754D01*
G37*
G36*
G01X450626Y2181007D02*
G03X394891Y2238254I-55734J1494D01*
G01X257993Y2238254D01*
G03X257993Y2126746I0J-55754D01*
G01X394891Y2126746D01*
G01X396385Y2126766D01*
G01X416079Y2107072D01*
G03X394891Y2111254I-21188J-51571D01*
G01X257993Y2111254D01*
G03X257993Y1999746I0J-55754D01*
G01X394891Y1999746D01*
G01X396385Y1999766D01*
G01X420212Y1975939D01*
G03X423267Y1972492I30176J23674D01*
G01X922880Y1472880D01*
G03X938682Y1463354I27120J27120D01*
G01X865887Y1463354D01*
G01X556123Y1773118D01*
G03X460293Y1814707I-56123J1882D01*
G03X501882Y1718877I39707J-39707D01*
G01X822880Y1397880D01*
G03X850000Y1386646I27120J27120D01*
G01X1482451Y1386646D01*
G03X1477510Y1320034I42549J-36646D01*
G01X1470390Y1320034D01*
G03X1444736Y1294380I0J-25654D01*
G01X1444736Y1213100D01*
G03X1470390Y1187446I25654J0D01*
G01X1579610Y1187446D01*
G03X1605264Y1213100I0J25654D01*
G01X1605264Y1294380D01*
G03X1579610Y1320034I-25654J0D01*
G01X1572490Y1320034D01*
G03X1567549Y1386646I-47490J29966D01*
G01X1857405Y1386646D01*
G01X1605373Y1134614D01*
G01X1605112Y1134614D01*
G01X1605264Y1136900D01*
G03X1579610Y1162554I-25654J0D01*
G01X1470390Y1162554D01*
G03X1444736Y1136900I0J-25654D01*
G01X1444736Y1055620D01*
G03X1470390Y1029966I25654J0D01*
G01X1486646Y1029966D01*
G01X1486646Y920034D01*
G01X1470390Y920034D01*
G03X1444736Y894380I0J-25654D01*
G01X1444736Y838354D01*
G01X1378740Y838354D01*
G03X1355264Y830330I0J-38354D01*
G01X1355264Y894380D01*
G03X1329610Y920034I-25654J0D01*
G01X1313354Y920034D01*
G01X1313354Y958984D01*
G03X1275000Y1056154I-38354J41016D01*
G03X1236646Y958984I0J-56154D01*
G01X1236646Y920034D01*
G01X1220390Y920034D01*
G03X1194736Y894380I0J-25654D01*
G01X1194736Y813100D01*
G03X1220390Y787446I25654J0D01*
G01X1311945Y787446D01*
G01X1287053Y762554D01*
G01X1220390Y762554D01*
G03X1194736Y736900I0J-25654D01*
G01X1194736Y655620D01*
G03X1220390Y629966I25654J0D01*
G01X1329610Y629966D01*
G03X1355264Y655620I0J25654D01*
G01X1355264Y722283D01*
G01X1394627Y761646D01*
G01X1463625Y761646D01*
G03X1444736Y736900I6765J-24746D01*
G01X1444736Y655620D01*
G03X1470390Y629966I25654J0D01*
G01X1579610Y629966D01*
G03X1605264Y655620I0J25654D01*
G01X1605264Y657906D01*
G01X1633984Y657906D01*
G03X1731154Y696260I41016J38354D01*
G03X1633984Y734614I-56154J0D01*
G01X1605264Y734614D01*
G01X1605264Y736900D01*
G03X1579610Y762554I-25654J0D01*
G01X1479556Y762554D01*
G03X1498380Y772880I-8296J37446D01*
G01X1512947Y787446D01*
G01X1579610Y787446D01*
G03X1605264Y813100I0J25654D01*
G01X1605264Y894380D01*
G03X1579610Y920034I-25654J0D01*
G01X1563354Y920034D01*
G01X1563354Y1029966D01*
G01X1579610Y1029966D01*
G03X1605264Y1055620I0J25654D01*
G01X1605264Y1057906D01*
G01X1621260Y1057906D01*
G03X1648381Y1069140I0J38354D01*
G01X1952120Y1372880D01*
G03X1956998Y1378854I-27120J27120D01*
G03X1975554Y1449446I-31998J46146D01*
G03X2050554Y1524446I24446J50554D01*
G03X2117549Y1611646I24446J50554D01*
G01X2154607Y1611646D01*
G01X2154607Y982028D01*
G03X2165840Y954908I38354J0D01*
G01X2205156Y915592D01*
G03X2372930Y802059I94832J-40592D01*
G03X2259397Y969832I-72941J72941D01*
G01X2231315Y997915D01*
G01X2231315Y1021832D01*
G01X2377489Y1021832D01*
G03X2403143Y1047486I0J25654D01*
G01X2403143Y1086633D01*
G01X3274987Y1086633D01*
G03X3302107Y1097866I0J38354D01*
G01X3952120Y1747880D01*
G03X3963354Y1775000I-27120J27120D01*
G01X3963354Y2233984D01*
G03X3925000Y2331154I-38354J41016D01*
G03X3886646Y2233984I0J-56154D01*
G01X3886646Y1790887D01*
G01X3259100Y1163341D01*
G01X2403143Y1163341D01*
G01X2403143Y1202487D01*
G03X2377489Y1228141I-25654J0D01*
G01X2231315Y1228141D01*
G01X2231315Y1632040D01*
G03X2230122Y1641530I-38354J0D01*
G03X2944495Y2515788I269878J508470D01*
G01X3084064Y2655358D01*
G03X3089707Y2739707I-34064J44642D01*
G03X3005358Y2734064I-39707J-39707D01*
G01X2865788Y2594495D01*
G03X2046797Y2504942I-365788J-444495D01*
G03X2156112Y1688354I453203J-354942D01*
G01X1363394Y1688354D01*
G01X1187562Y1864187D01*
G01X1481600Y1864187D01*
G03X1517414Y1900001I0J35814D01*
G01X1517414Y2400000D01*
G03X1481600Y2435814I-35814J0D01*
G01X1181600Y2435814D01*
G01X1179314Y2435740D01*
G03X1109423Y2503951I-54314J14260D01*
G03X1086646Y2408985I15577J-53951D01*
G01X1086646Y2381380D01*
G01X993579Y2288312D01*
G03X942007Y2365254I-51571J21188D01*
G01X805109Y2365254D01*
G03X805109Y2253746I0J-55754D01*
G01X942007Y2253746D01*
G03X963195Y2257929I0J55754D01*
G01X943501Y2238234D01*
G01X942007Y2238254D01*
G01X805109Y2238254D01*
G03X805109Y2126746I0J-55754D01*
G01X942007Y2126746D01*
G03X997742Y2183994I0J55754D01*
G01X1145786Y2332038D01*
G01X1145786Y1905962D01*
G01X997742Y2054007D01*
G03X942007Y2111254I-55734J1494D01*
G01X805109Y2111254D01*
G03X805109Y1999746I0J-55754D01*
G01X942007Y1999746D01*
G01X943501Y1999766D01*
G01X1320387Y1622880D01*
G03X1336189Y1613354I27120J27120D01*
G01X1018278Y1613354D01*
G01X450626Y2181007D01*
G37*
G36*
G01X433686Y3464614D02*
G01X433686Y3406800D01*
G03X459340Y3381146I25654J0D01*
G01X539987Y3381146D01*
G03X565641Y3406800I0J25654D01*
G01X565641Y3493201D01*
G03X539987Y3518855I-25654J0D01*
G01X487927Y3518855D01*
G01X320394Y3686387D01*
G01X320394Y4306896D01*
G01X407434Y4306896D01*
G03X401626Y4290640I19846J-16256D01*
G01X401626Y4209360D01*
G03X427280Y4183706I25654J0D01*
G01X442074Y4183706D01*
G03X450960Y4169800I36006J13214D01*
G01X668877Y3951882D01*
G03X764707Y3910293I56123J-1882D01*
G03X723118Y4006123I-39707J39707D01*
G01X541954Y4187287D01*
G03X554534Y4209360I-13073J22073D01*
G01X554534Y4290640D01*
G03X548726Y4306896I-25654J0D01*
G01X645466Y4306896D01*
G01X645466Y4304610D01*
G03X671120Y4278956I25654J0D01*
G01X772720Y4278956D01*
G03X798374Y4304610I0J25654D01*
G01X798374Y4385890D01*
G03X772720Y4411544I-25654J0D01*
G01X671120Y4411544D01*
G03X645466Y4385890I0J-25654D01*
G01X645466Y4383604D01*
G01X300000Y4383604D01*
G03X272879Y4372370I0J-38354D01*
G01X254919Y4354410D01*
G03X243686Y4327290I27121J-27120D01*
G01X243686Y3670501D01*
G03X254919Y3643380I38354J0D01*
G01X433686Y3464614D01*
G37*
G36*
G01X274346Y5600000D02*
G03X525654Y5600000I125654J0D01*
G03X274346Y5600000I-125654J0D01*
G37*
G36*
G01X274346Y350000D02*
G03X525654Y350000I125654J0D01*
G03X274346Y350000I-125654J0D01*
G37*
G36*
G01X798374Y4193104D02*
G01X798374Y4195390D01*
G03X772720Y4221044I-25654J0D01*
G01X671120Y4221044D01*
G03X645466Y4195390I0J-25654D01*
G01X645466Y4114110D01*
G03X671120Y4088456I25654J0D01*
G01X772720Y4088456D01*
G03X798374Y4114110I0J25654D01*
G01X798374Y4116396D01*
G01X980010Y4116396D01*
G03X1062457Y4108164I44990J33604D01*
G03X1063354Y4191016I-37457J41836D01*
G01X1063354Y5439598D01*
G03X1053132Y5465667I-38354J0D01*
G03X1068337Y5479344I-8132J24331D01*
G01X2029230Y5479344D01*
G03X2006986Y5446200I13570J-33144D01*
G01X2006986Y5293800D01*
G03X2042800Y5257986I35814J0D01*
G01X2195200Y5257986D01*
G03X2231014Y5293800I0J35814D01*
G01X2231014Y5440351D01*
G01X2274699Y5396666D01*
G03X2379841Y5268376I98301J-26666D01*
G03X2466841Y5409600I-6841J101624D01*
G01X2477121Y5419880D01*
G03X2488354Y5447000I-27120J27120D01*
G01X2488354Y5659113D01*
G01X2541223Y5711983D01*
G01X2556146Y5711983D01*
G01X2556146Y5710013D01*
G03X2581800Y5684359I25654J0D01*
G01X2668200Y5684359D01*
G03X2693854Y5710013I0J25654D01*
G01X2693854Y5711983D01*
G01X2806146Y5711983D01*
G01X2806146Y5710013D01*
G03X2831800Y5684359I25654J0D01*
G01X2918200Y5684359D01*
G03X2943854Y5710013I0J25654D01*
G01X2943854Y5790661D01*
G03X2918200Y5816315I-25654J0D01*
G01X2831800Y5816315D01*
G03X2806146Y5790661I0J-25654D01*
G01X2806146Y5788691D01*
G01X2693854Y5788691D01*
G01X2693854Y5790661D01*
G03X2668200Y5816315I-25654J0D01*
G01X2581800Y5816315D01*
G03X2556146Y5790661I0J-25654D01*
G01X2556146Y5788691D01*
G01X2525337Y5788691D01*
G03X2498216Y5777457I0J-38354D01*
G01X2422880Y5702120D01*
G03X2411646Y5675000I27120J-27120D01*
G01X2411646Y5464238D01*
G03X2346334Y5468302I-38646J-94238D01*
G01X2263656Y5550979D01*
G01X2263656Y5642021D01*
G01X2470982Y5849346D01*
G01X3229019Y5849346D01*
G01X3439182Y5639182D01*
G03X3441606Y5636913I35818J35818D01*
G01X3441606Y5596260D01*
G03X3467260Y5570606I25654J0D01*
G01X3624740Y5570606D01*
G03X3650394Y5596260I0J25654D01*
G01X3650394Y5753740D01*
G03X3624740Y5779394I-25654J0D01*
G01X3467260Y5779394D01*
G03X3449441Y5772195I0J-25654D01*
G01X3285818Y5935818D01*
G03X3250000Y5950654I-35818J-35818D01*
G01X2450000Y5950654D01*
G03X2414182Y5935818I0J-50654D01*
G01X2177185Y5698820D01*
G03X2162348Y5663002I35818J-35818D01*
G01X2162348Y5584149D01*
G03X2153567Y5580652I9691J-37110D01*
G01X1068337Y5580652D01*
G03X1051569Y5594796I-23337J-10654D01*
G03X1080814Y5630003I-6569J35206D01*
G01X1080814Y5710003D01*
G03X1045000Y5745817I-35814J0D01*
G01X955000Y5745817D01*
G03X919186Y5710003I0J-35814D01*
G01X919186Y5630003D01*
G03X948431Y5594796I35814J0D01*
G03X934676Y5585652I6569J-24799D01*
G01X840324Y5585652D01*
G03X826569Y5594796I-20324J-15654D01*
G03X855814Y5630003I-6569J35206D01*
G01X855814Y5710003D01*
G03X820000Y5745817I-35814J0D01*
G01X730000Y5745817D01*
G03X694186Y5710003I0J-35814D01*
G01X694186Y5630003D01*
G03X723431Y5594796I35814J0D01*
G03X704346Y5569998I6569J-24799D01*
G01X704346Y5543050D01*
G01X460647Y5299351D01*
G03X444346Y5259998I39353J-39353D01*
G01X444346Y5238004D01*
G03X444708Y4957866I55654J-139997D01*
G03X465000Y4728353I20292J-113860D01*
G01X535000Y4728353D01*
G03X555292Y4957866I0J115654D01*
G03X556410Y5237701I-55292J140140D01*
G01X783053Y5464344D01*
G01X820000Y5464344D01*
G03X840324Y5474344I0J25654D01*
G01X934676Y5474344D01*
G03X955000Y5464344I20324J15654D01*
G01X961647Y5464344D01*
G03X972880Y5437478I38353J254D01*
G01X986646Y5423711D01*
G01X986646Y4193104D01*
G01X798374Y4193104D01*
G37*
G36*
G01X465000Y4474353D02*
G01X535000Y4474353D01*
G03X535000Y4705661I0J115654D01*
G01X465000Y4705661D01*
G03X465000Y4474353I0J-115654D01*
G37*
G36*
G01X419806Y3670390D02*
G03X455620Y3634576I35814J0D01*
G01X536900Y3634576D01*
G03X572714Y3670390I0J35814D01*
G01X572714Y3779610D01*
G03X536900Y3815424I-35814J0D01*
G01X455620Y3815424D01*
G03X419806Y3779610I0J-35814D01*
G01X419806Y3670390D01*
G37*
G36*
G01X805109Y2380746D02*
G01X942007Y2380746D01*
G03X942007Y2492254I0J55754D01*
G01X805109Y2492254D01*
G03X805109Y2380746I0J-55754D01*
G37*
G36*
G01X1506600Y3964187D02*
G03X1542414Y4000001I0J35814D01*
G01X1542414Y4500000D01*
G03X1506600Y4535814I-35814J0D01*
G01X1206600Y4535814D01*
G03X1170786Y4500000I0J-35814D01*
G01X1170786Y4000001D01*
G03X1206600Y3964187I35814J0D01*
G01X1506600Y3964187D01*
G37*
G36*
G01X1452250Y5289990D02*
G03X1197742Y5289990I-127254J0D01*
G03X1452250Y5289990I127254J0D01*
G37*
G36*
G01X1452250Y2910010D02*
G03X1197742Y2910010I-127254J0D01*
G03X1452250Y2910010I127254J0D01*
G37*
G36*
G01X1863354Y2258984D02*
G03X1825000Y2356154I-38354J41016D01*
G03X1786646Y2258984I0J-56154D01*
G01X1786646Y2140887D01*
G01X1451882Y1806123D01*
G03X1410293Y1710293I-1882J-56123D01*
G03X1506123Y1751882I39707J39707D01*
G01X1852121Y2097880D01*
G03X1863354Y2125000I-27120J27120D01*
G01X1863354Y2258984D01*
G37*
G36*
G01X2080506Y4615788D02*
G03X2917442Y3828852I444494J-365788D01*
G01X3005358Y3740936D01*
G03X3089707Y3735293I44642J34064D01*
G03X3084064Y3819642I-39707J39707D01*
G01X2991282Y3912425D01*
G03X2159212Y4694495I-466282J337576D01*
G01X2114353Y4739354D01*
G03X2075000Y4755654I-39353J-39353D01*
G01X2057480Y4755654D01*
G03X1993904Y4702552I-7480J-55654D01*
G03X2052397Y4643897I56096J-2551D01*
G01X2080506Y4615788D01*
G37*
G36*
G01X2299989Y738302D02*
G03X2299989Y511673I0J-113314D01*
G03X2299989Y738302I0J113314D01*
G37*
G36*
G01X2943877Y5001882D02*
G03X3039707Y4960293I56123J-1882D01*
G03X2998118Y5056123I-39707J39707D01*
G01X2721711Y5332530D01*
G03X2665354Y5464357I-94711J37470D01*
G01X2665354Y5533686D01*
G01X2668200Y5533686D01*
G03X2693854Y5559340I0J25654D01*
G01X2693854Y5639988D01*
G03X2668200Y5665642I-25654J0D01*
G01X2581800Y5665642D01*
G03X2556146Y5639988I0J-25654D01*
G01X2556146Y5559340D01*
G03X2581800Y5533686I25654J0D01*
G01X2588646Y5533686D01*
G01X2588646Y5464357D01*
G03X2533341Y5329972I38354J-94357D01*
G03X2668690Y5277069I93659J40028D01*
G01X2943877Y5001882D01*
G37*
G36*
G01X3082121Y5397121D02*
G03X3055000Y5408354I-27120J-27120D01*
G01X2975357Y5408354D01*
G03X2919354Y5464357I-94357J-38354D01*
G01X2919354Y5533712D01*
G03X2943854Y5559340I-1154J25628D01*
G01X2943854Y5639988D01*
G03X2918200Y5665642I-25654J0D01*
G01X2831800Y5665642D01*
G03X2806146Y5639988I0J-25654D01*
G01X2806146Y5559340D01*
G03X2831800Y5533686I25654J0D01*
G01X2842646Y5533686D01*
G01X2842646Y5464357D01*
G03X2808978Y5297979I38354J-94357D01*
G03X2975357Y5331646I72022J72022D01*
G01X3039113Y5331646D01*
G01X4079630Y4291129D01*
G03X4106751Y4279895I27120J27120D01*
G01X4152346Y4279895D01*
G01X4152346Y4256499D01*
G03X4266654Y4256499I57154J0D01*
G01X4266654Y4379999D01*
G03X4237885Y4429607I-57154J0D01*
G01X4298146Y4429607D01*
G01X4298146Y4422373D01*
G03X4279346Y4379999I38354J-42374D01*
G01X4279346Y4256499D01*
G03X4393654Y4256499I57154J0D01*
G01X4393654Y4379999D01*
G03X4374854Y4422373I-57154J0D01*
G01X4374854Y4450000D01*
G03X4363620Y4477121I-38354J0D01*
G01X4345660Y4495081D01*
G03X4318540Y4506315I-27120J-27120D01*
G01X4147926Y4506315D01*
G01X3627121Y5027121D01*
G03X3621146Y5031998I-27120J-27120D01*
G03X3521003Y5015416I-46146J-31998D01*
G03X3597297Y4948462I53997J-15415D01*
G01X4104919Y4440840D01*
G03X4132040Y4429607I27120J27120D01*
G01X4181116Y4429607D01*
G03X4152346Y4379999I28385J-49607D01*
G01X4152346Y4356603D01*
G01X4122637Y4356603D01*
G01X3082121Y5397121D01*
G37*
G36*
G01X2970000Y229347D02*
G01X3130000Y229347D01*
G03X3130000Y520655I0J145654D01*
G01X2970000Y520655D01*
G03X2970000Y229347I0J-145654D01*
G37*
G36*
G01X2970000Y1229345D02*
G01X3130000Y1229345D01*
G03X3130000Y1520653I0J145654D01*
G01X2970000Y1520653D01*
G03X2970000Y1229345I0J-145654D01*
G37*
G36*
G01X3818400Y1939186D02*
G03X3854214Y1975000I0J35814D01*
G01X3854214Y2325000D01*
G03X3818400Y2360814I-35814J0D01*
G01X3518400Y2360814D01*
G03X3482586Y2325000I0J-35814D01*
G01X3482586Y1975000D01*
G03X3518400Y1939186I35814J0D01*
G01X3818400Y1939186D01*
G37*
G36*
G01X3843400Y4039186D02*
G03X3879214Y4075000I0J35814D01*
G01X3879214Y4425000D01*
G03X3843400Y4460814I-35814J0D01*
G01X3543400Y4460814D01*
G03X3507586Y4425000I0J-35814D01*
G01X3507586Y4075000D01*
G03X3543400Y4039186I35814J0D01*
G01X3843400Y4039186D01*
G37*
G36*
G01X4725000Y2893846D02*
G03X4763354Y2991016I0J56154D01*
G01X4763354Y4122000D01*
G03X4752121Y4149120I-38354J0D01*
G01X4647583Y4253657D01*
G03X4647654Y4256499I-57083J2842D01*
G01X4647654Y4379999D01*
G03X4587658Y4437082I-57154J0D01*
G01X4438354Y4586386D01*
G01X4438354Y4750000D01*
G03X4427120Y4777121I-38354J0D01*
G01X3763354Y5440887D01*
G01X3763354Y5458985D01*
G03X3725000Y5556154I-38354J41016D01*
G03X3686646Y5458985I0J-56154D01*
G01X3686646Y5425000D01*
G03X3687572Y5416622I38354J0D01*
G03X3581888Y5203256I-12568J-126632D01*
G03X3802208Y5293551I93117J86735D01*
G01X4361646Y4734113D01*
G01X4361646Y4570499D01*
G03X4372880Y4543379I38354J0D01*
G01X4482279Y4433980D01*
G03X4406346Y4379999I-18778J-53981D01*
G01X4406346Y4256499D01*
G03X4520654Y4256499I57154J0D01*
G01X4520654Y4379999D01*
G03X4517481Y4398778I-57154J0D01*
G01X4533417Y4382842D01*
G03X4533346Y4379999I57083J-2842D01*
G01X4533346Y4256499D01*
G03X4593342Y4199416I57154J0D01*
G01X4686646Y4106113D01*
G01X4686646Y3444819D01*
G03X4499352Y3365000I-76639J-79819D01*
G03X4686646Y3285181I110655J0D01*
G01X4686646Y2991016D01*
G03X4725000Y2893846I38354J-41016D01*
G37*
G36*
G01X3802258Y2910010D02*
G03X3547750Y2910010I-127254J0D01*
G03X3802258Y2910010I127254J0D01*
G37*
G36*
G01X3695606Y5675000D02*
G03X3904394Y5675000I104394J0D01*
G03X3695606Y5675000I-104394J0D01*
G37*
G36*
G01X3939446Y5675000D02*
G03X4168554Y5675000I114554J0D01*
G03X3939446Y5675000I-114554J0D01*
G37*
G36*
G01X4300648Y4635000D02*
G03X4079338Y4635000I-110655J0D01*
G03X4300648Y4635000I110655J0D01*
G37*
G36*
G01X4161646Y2341314D02*
G01X4156800Y2341314D01*
G03X4131146Y2315660I0J-25654D01*
G01X4131146Y2235013D01*
G03X4156800Y2209359I25654J0D01*
G01X4243201Y2209359D01*
G03X4268855Y2235013I0J25654D01*
G01X4268855Y2315660D01*
G03X4243201Y2341314I-25654J0D01*
G01X4238354Y2341314D01*
G01X4238354Y3134114D01*
G01X4361646Y3257405D01*
G01X4361646Y2341314D01*
G01X4356800Y2341314D01*
G03X4331146Y2315660I0J-25654D01*
G01X4331146Y2235013D01*
G03X4356800Y2209359I25654J0D01*
G01X4443200Y2209359D01*
G03X4468854Y2235013I0J25654D01*
G01X4468854Y2315660D01*
G03X4443200Y2341314I-25654J0D01*
G01X4438354Y2341314D01*
G01X4438354Y3257405D01*
G01X4561646Y3134113D01*
G01X4561646Y2341314D01*
G01X4556800Y2341314D01*
G03X4531146Y2315660I0J-25654D01*
G01X4531146Y2235013D01*
G03X4556800Y2209359I25654J0D01*
G01X4643201Y2209359D01*
G03X4668855Y2235013I0J25654D01*
G01X4668855Y2315660D01*
G03X4643201Y2341314I-25654J0D01*
G01X4638354Y2341314D01*
G01X4638354Y3150000D01*
G03X4627121Y3177120I-38354J0D01*
G01X4488354Y3315887D01*
G01X4488354Y3563614D01*
G01X4587658Y3662918D01*
G03X4647654Y3720001I2842J57083D01*
G01X4647654Y3843501D01*
G03X4533346Y3843501I-57154J0D01*
G01X4533346Y3720001D01*
G03X4533417Y3717158I57154J0D01*
G01X4517481Y3701222D01*
G03X4520654Y3720001I-53981J18778D01*
G01X4520654Y3843501D01*
G03X4406346Y3843501I-57154J0D01*
G01X4406346Y3720001D01*
G03X4406417Y3717158I57154J0D01*
G01X4390481Y3701222D01*
G03X4393654Y3720001I-53981J18778D01*
G01X4393654Y3843501D01*
G03X4279346Y3843501I-57154J0D01*
G01X4279346Y3720001D01*
G03X4298146Y3677627I57154J0D01*
G01X4298146Y3388397D01*
G03X4079338Y3365000I-108153J-23397D01*
G03X4298146Y3341603I110655J0D01*
G01X4298146Y3302387D01*
G01X4172880Y3177121D01*
G03X4161646Y3150000I27120J-27120D01*
G01X4161646Y2341314D01*
G37*
G36*
G01X4156800Y2200802D02*
G03X4120986Y2164988I0J-35814D01*
G01X4120986Y2084340D01*
G03X4156800Y2048526I35814J0D01*
G01X4243201Y2048526D01*
G03X4279015Y2084340I0J35814D01*
G01X4279015Y2164988D01*
G03X4243201Y2200802I-35814J0D01*
G01X4156800Y2200802D01*
G37*
G36*
G01X4142186Y3843501D02*
G01X4142186Y3720001D01*
G03X4276814Y3720001I67314J0D01*
G01X4276814Y3843501D01*
G03X4142186Y3843501I-67314J0D01*
G37*
G36*
G01X4220390Y1705194D02*
G03X4184576Y1669380I0J-35814D01*
G01X4184576Y1588100D01*
G03X4220390Y1552286I35814J0D01*
G01X4329610Y1552286D01*
G03X4365424Y1588100I0J35814D01*
G01X4365424Y1669380D01*
G03X4329610Y1705194I-35814J0D01*
G01X4220390Y1705194D01*
G37*
G36*
G01X4354572Y1424703D02*
G03X4355264Y1430620I-24962J5917D01*
G01X4355264Y1511900D01*
G03X4329610Y1537554I-25654J0D01*
G01X4220390Y1537554D01*
G03X4194736Y1511900I0J-25654D01*
G01X4194736Y1430620D01*
G03X4220390Y1404966I25654J0D01*
G01X4265805Y1404966D01*
G01X4444022Y1226864D01*
G03X4539866Y1185306I56123J-1864D01*
G03X4498246Y1281122I-39720J39694D01*
G01X4354572Y1424703D01*
G37*
G36*
G01X4356800Y2200802D02*
G03X4320986Y2164988I0J-35814D01*
G01X4320986Y2084340D01*
G03X4356800Y2048526I35814J0D01*
G01X4443200Y2048526D01*
G03X4479014Y2084340I0J35814D01*
G01X4479014Y2164988D01*
G03X4443200Y2200802I-35814J0D01*
G01X4356800Y2200802D01*
G37*
G36*
G01X4424346Y5600000D02*
G03X4675654Y5600000I125654J0D01*
G03X4424346Y5600000I-125654J0D01*
G37*
G36*
G01X4424346Y350000D02*
G03X4675654Y350000I125654J0D01*
G03X4424346Y350000I-125654J0D01*
G37*
G36*
G01X4720662Y4635000D02*
G03X4499352Y4635000I-110655J0D01*
G03X4720662Y4635000I110655J0D01*
G37*
G36*
G01X4556800Y2200802D02*
G03X4520986Y2164988I0J-35814D01*
G01X4520986Y2084340D01*
G03X4556800Y2048526I35814J0D01*
G01X4643201Y2048526D01*
G03X4679015Y2084340I0J35814D01*
G01X4679015Y2164988D01*
G03X4643201Y2200802I-35814J0D01*
G01X4556800Y2200802D01*
G37*
%LPD*%
G54D10*
G01X25654Y5500000D02*
G02X500000Y5974346I474346J0D01*
G01X4450000Y5974346D01*
G02X4924346Y5500000I0J-474346D01*
G01X4924346Y500000D01*
G02X4450000Y25654I-474346J0D01*
G01X505310Y25654D01*
G03X499282Y26372I-6028J-24936D01*
G02X25654Y500000I0J473628D01*
G01X25654Y5500000D01*
G01X460406Y2683256D02*
G03X394891Y2756414I-65515J7244D01*
G01X257993Y2756414D01*
G03X257993Y2624586I0J-65914D01*
G01X394891Y2624586D01*
G03X402136Y2624985I0J65914D01*
G01X396385Y2619234D01*
G01X394891Y2619254D01*
G01X257993Y2619254D01*
G03X257993Y2507746I0J-55754D01*
G01X394891Y2507746D01*
G03X450626Y2564994I0J55754D01*
G01X677457Y2791825D01*
G03X686646Y2806590I-27120J27120D01*
G01X686646Y2600000D01*
G03X697880Y2572880I38354J0D01*
G01X734380Y2536380D01*
G03X761500Y2525146I27120J27120D01*
G01X764643Y2525146D01*
G03X805109Y2507746I40466J38354D01*
G01X942007Y2507746D01*
G03X962494Y2511646I0J55754D01*
G01X1333984Y2511646D01*
G03X1431154Y2550000I41016J38354D01*
G03X1333984Y2588354I-56154J0D01*
G01X991915Y2588354D01*
G03X942007Y2619254I-49908J-24854D01*
G01X805109Y2619254D01*
G03X771361Y2607880I0J-55754D01*
G01X763354Y2615887D01*
G01X763354Y2653553D01*
G03X805109Y2634746I41755J36947D01*
G01X942007Y2634746D01*
G03X942007Y2746254I0J55754D01*
G01X805109Y2746254D01*
G03X763354Y2727447I0J-55754D01*
G01X763354Y2780553D01*
G03X805109Y2761746I41755J36947D01*
G01X942007Y2761746D01*
G03X982473Y2779146I0J55754D01*
G01X1017500Y2779146D01*
G03X1044621Y2790380I0J38354D01*
G01X1085618Y2831377D01*
G03X1143102Y2895354I1882J56123D01*
G03X1070147Y2940906I-55602J-7854D01*
G01X1073118Y2943877D01*
G03X1114707Y3039707I1882J56123D01*
G03X1018877Y2998118I-39707J-39707D01*
G01X1003613Y2982854D01*
G01X982473Y2982854D01*
G03X942007Y3000254I-40466J-38354D01*
G01X805109Y3000254D01*
G03X763354Y2981447I0J-55754D01*
G01X763354Y3625000D01*
G03X752120Y3652120I-38354J0D01*
G01X720034Y3684207D01*
G01X720034Y3779610D01*
G03X694380Y3805264I-25654J0D01*
G01X613100Y3805264D01*
G03X587446Y3779610I0J-25654D01*
G01X587446Y3670390D01*
G03X613100Y3644736I25654J0D01*
G01X651023Y3644736D01*
G01X686646Y3609113D01*
G01X686646Y3518855D01*
G01X610013Y3518855D01*
G03X584359Y3493201I0J-25654D01*
G01X584359Y3406800D01*
G03X610013Y3381146I25654J0D01*
G01X611983Y3381146D01*
G01X611983Y2834832D01*
G01X460406Y2683256D01*
G01X257993Y2253746D02*
G01X394891Y2253746D01*
G03X394891Y2365254I0J55754D01*
G01X257993Y2365254D01*
G03X257993Y2253746I0J-55754D01*
G01X257993Y2380746D02*
G01X394891Y2380746D01*
G03X394891Y2492254I0J55754D01*
G01X257993Y2492254D01*
G03X257993Y2380746I0J-55754D01*
G01X430860Y2860101D02*
G03X394891Y2873254I-35969J-42601D01*
G01X257993Y2873254D01*
G03X257993Y2761746I0J-55754D01*
G01X394891Y2761746D01*
G03X435357Y2779146I0J55754D01*
G01X442500Y2779146D01*
G03X469620Y2790380I0J38354D01*
G01X498118Y2818877D01*
G03X539707Y2914707I1882J56123D01*
G03X443877Y2873118I-39707J-39707D01*
G01X430860Y2860101D01*
G01X257993Y2888746D02*
G01X394891Y2888746D01*
G03X394891Y3000254I0J55754D01*
G01X257993Y3000254D01*
G03X257993Y2888746I0J-55754D01*
G01X450626Y2181007D02*
G03X394891Y2238254I-55734J1494D01*
G01X257993Y2238254D01*
G03X257993Y2126746I0J-55754D01*
G01X394891Y2126746D01*
G01X396385Y2126766D01*
G01X416079Y2107072D01*
G03X394891Y2111254I-21188J-51571D01*
G01X257993Y2111254D01*
G03X257993Y1999746I0J-55754D01*
G01X394891Y1999746D01*
G01X396385Y1999766D01*
G01X420212Y1975939D01*
G03X423267Y1972492I30176J23674D01*
G01X922880Y1472880D01*
G03X938682Y1463354I27120J27120D01*
G01X865887Y1463354D01*
G01X556123Y1773118D01*
G03X460293Y1814707I-56123J1882D01*
G03X501882Y1718877I39707J-39707D01*
G01X822880Y1397880D01*
G03X850000Y1386646I27120J27120D01*
G01X1482451Y1386646D01*
G03X1477510Y1320034I42549J-36646D01*
G01X1470390Y1320034D01*
G03X1444736Y1294380I0J-25654D01*
G01X1444736Y1213100D01*
G03X1470390Y1187446I25654J0D01*
G01X1579610Y1187446D01*
G03X1605264Y1213100I0J25654D01*
G01X1605264Y1294380D01*
G03X1579610Y1320034I-25654J0D01*
G01X1572490Y1320034D01*
G03X1567549Y1386646I-47490J29966D01*
G01X1857405Y1386646D01*
G01X1605373Y1134614D01*
G01X1605112Y1134614D01*
G01X1605264Y1136900D01*
G03X1579610Y1162554I-25654J0D01*
G01X1470390Y1162554D01*
G03X1444736Y1136900I0J-25654D01*
G01X1444736Y1055620D01*
G03X1470390Y1029966I25654J0D01*
G01X1486646Y1029966D01*
G01X1486646Y920034D01*
G01X1470390Y920034D01*
G03X1444736Y894380I0J-25654D01*
G01X1444736Y838354D01*
G01X1378740Y838354D01*
G03X1355264Y830330I0J-38354D01*
G01X1355264Y894380D01*
G03X1329610Y920034I-25654J0D01*
G01X1313354Y920034D01*
G01X1313354Y958984D01*
G03X1275000Y1056154I-38354J41016D01*
G03X1236646Y958984I0J-56154D01*
G01X1236646Y920034D01*
G01X1220390Y920034D01*
G03X1194736Y894380I0J-25654D01*
G01X1194736Y813100D01*
G03X1220390Y787446I25654J0D01*
G01X1311945Y787446D01*
G01X1287053Y762554D01*
G01X1220390Y762554D01*
G03X1194736Y736900I0J-25654D01*
G01X1194736Y655620D01*
G03X1220390Y629966I25654J0D01*
G01X1329610Y629966D01*
G03X1355264Y655620I0J25654D01*
G01X1355264Y722283D01*
G01X1394627Y761646D01*
G01X1463625Y761646D01*
G03X1444736Y736900I6765J-24746D01*
G01X1444736Y655620D01*
G03X1470390Y629966I25654J0D01*
G01X1579610Y629966D01*
G03X1605264Y655620I0J25654D01*
G01X1605264Y657906D01*
G01X1633984Y657906D01*
G03X1731154Y696260I41016J38354D01*
G03X1633984Y734614I-56154J0D01*
G01X1605264Y734614D01*
G01X1605264Y736900D01*
G03X1579610Y762554I-25654J0D01*
G01X1479556Y762554D01*
G03X1498380Y772880I-8296J37446D01*
G01X1512947Y787446D01*
G01X1579610Y787446D01*
G03X1605264Y813100I0J25654D01*
G01X1605264Y894380D01*
G03X1579610Y920034I-25654J0D01*
G01X1563354Y920034D01*
G01X1563354Y1029966D01*
G01X1579610Y1029966D01*
G03X1605264Y1055620I0J25654D01*
G01X1605264Y1057906D01*
G01X1621260Y1057906D01*
G03X1648381Y1069140I0J38354D01*
G01X1952120Y1372880D01*
G03X1956998Y1378854I-27120J27120D01*
G03X1975554Y1449446I-31998J46146D01*
G03X2050554Y1524446I24446J50554D01*
G03X2117549Y1611646I24446J50554D01*
G01X2154607Y1611646D01*
G01X2154607Y982028D01*
G03X2165840Y954908I38354J0D01*
G01X2205156Y915592D01*
G03X2372930Y802059I94832J-40592D01*
G03X2259397Y969832I-72941J72941D01*
G01X2231315Y997915D01*
G01X2231315Y1021832D01*
G01X2377489Y1021832D01*
G03X2403143Y1047486I0J25654D01*
G01X2403143Y1086633D01*
G01X3274987Y1086633D01*
G03X3302107Y1097866I0J38354D01*
G01X3952120Y1747880D01*
G03X3963354Y1775000I-27120J27120D01*
G01X3963354Y2233984D01*
G03X3925000Y2331154I-38354J41016D01*
G03X3886646Y2233984I0J-56154D01*
G01X3886646Y1790887D01*
G01X3259100Y1163341D01*
G01X2403143Y1163341D01*
G01X2403143Y1202487D01*
G03X2377489Y1228141I-25654J0D01*
G01X2231315Y1228141D01*
G01X2231315Y1632040D01*
G03X2230122Y1641530I-38354J0D01*
G03X2944495Y2515788I269878J508470D01*
G01X3084064Y2655358D01*
G03X3089707Y2739707I-34064J44642D01*
G03X3005358Y2734064I-39707J-39707D01*
G01X2865788Y2594495D01*
G03X2046797Y2504942I-365788J-444495D01*
G03X2156112Y1688354I453203J-354942D01*
G01X1363394Y1688354D01*
G01X1187562Y1864187D01*
G01X1481600Y1864187D01*
G03X1517414Y1900001I0J35814D01*
G01X1517414Y2400000D01*
G03X1481600Y2435814I-35814J0D01*
G01X1181600Y2435814D01*
G01X1179314Y2435740D01*
G03X1109423Y2503951I-54314J14260D01*
G03X1086646Y2408985I15577J-53951D01*
G01X1086646Y2381380D01*
G01X993579Y2288312D01*
G03X942007Y2365254I-51571J21188D01*
G01X805109Y2365254D01*
G03X805109Y2253746I0J-55754D01*
G01X942007Y2253746D01*
G03X963195Y2257929I0J55754D01*
G01X943501Y2238234D01*
G01X942007Y2238254D01*
G01X805109Y2238254D01*
G03X805109Y2126746I0J-55754D01*
G01X942007Y2126746D01*
G03X997742Y2183994I0J55754D01*
G01X1145786Y2332038D01*
G01X1145786Y1905962D01*
G01X997742Y2054007D01*
G03X942007Y2111254I-55734J1494D01*
G01X805109Y2111254D01*
G03X805109Y1999746I0J-55754D01*
G01X942007Y1999746D01*
G01X943501Y1999766D01*
G01X1320387Y1622880D01*
G03X1336189Y1613354I27120J27120D01*
G01X1018278Y1613354D01*
G01X450626Y2181007D01*
G01X433686Y3464614D02*
G01X433686Y3406800D01*
G03X459340Y3381146I25654J0D01*
G01X539987Y3381146D01*
G03X565641Y3406800I0J25654D01*
G01X565641Y3493201D01*
G03X539987Y3518855I-25654J0D01*
G01X487927Y3518855D01*
G01X320394Y3686387D01*
G01X320394Y4306896D01*
G01X407434Y4306896D01*
G03X401626Y4290640I19846J-16256D01*
G01X401626Y4209360D01*
G03X427280Y4183706I25654J0D01*
G01X442074Y4183706D01*
G03X450960Y4169800I36006J13214D01*
G01X668877Y3951882D01*
G03X764707Y3910293I56123J-1882D01*
G03X723118Y4006123I-39707J39707D01*
G01X541954Y4187287D01*
G03X554534Y4209360I-13073J22073D01*
G01X554534Y4290640D01*
G03X548726Y4306896I-25654J0D01*
G01X645466Y4306896D01*
G01X645466Y4304610D01*
G03X671120Y4278956I25654J0D01*
G01X772720Y4278956D01*
G03X798374Y4304610I0J25654D01*
G01X798374Y4385890D01*
G03X772720Y4411544I-25654J0D01*
G01X671120Y4411544D01*
G03X645466Y4385890I0J-25654D01*
G01X645466Y4383604D01*
G01X300000Y4383604D01*
G03X272879Y4372370I0J-38354D01*
G01X254919Y4354410D01*
G03X243686Y4327290I27121J-27120D01*
G01X243686Y3670501D01*
G03X254919Y3643380I38354J0D01*
G01X433686Y3464614D01*
G01X274346Y5600000D02*
G03X525654Y5600000I125654J0D01*
G03X274346Y5600000I-125654J0D01*
G01X274346Y350000D02*
G03X525654Y350000I125654J0D01*
G03X274346Y350000I-125654J0D01*
G01X798374Y4193104D02*
G01X798374Y4195390D01*
G03X772720Y4221044I-25654J0D01*
G01X671120Y4221044D01*
G03X645466Y4195390I0J-25654D01*
G01X645466Y4114110D01*
G03X671120Y4088456I25654J0D01*
G01X772720Y4088456D01*
G03X798374Y4114110I0J25654D01*
G01X798374Y4116396D01*
G01X980010Y4116396D01*
G03X1062457Y4108164I44990J33604D01*
G03X1063354Y4191016I-37457J41836D01*
G01X1063354Y5439598D01*
G03X1053132Y5465667I-38354J0D01*
G03X1068337Y5479344I-8132J24331D01*
G01X2029230Y5479344D01*
G03X2006986Y5446200I13570J-33144D01*
G01X2006986Y5293800D01*
G03X2042800Y5257986I35814J0D01*
G01X2195200Y5257986D01*
G03X2231014Y5293800I0J35814D01*
G01X2231014Y5440351D01*
G01X2274699Y5396666D01*
G03X2379841Y5268376I98301J-26666D01*
G03X2466841Y5409600I-6841J101624D01*
G01X2477121Y5419880D01*
G03X2488354Y5447000I-27120J27120D01*
G01X2488354Y5659113D01*
G01X2541223Y5711983D01*
G01X2556146Y5711983D01*
G01X2556146Y5710013D01*
G03X2581800Y5684359I25654J0D01*
G01X2668200Y5684359D01*
G03X2693854Y5710013I0J25654D01*
G01X2693854Y5711983D01*
G01X2806146Y5711983D01*
G01X2806146Y5710013D01*
G03X2831800Y5684359I25654J0D01*
G01X2918200Y5684359D01*
G03X2943854Y5710013I0J25654D01*
G01X2943854Y5790661D01*
G03X2918200Y5816315I-25654J0D01*
G01X2831800Y5816315D01*
G03X2806146Y5790661I0J-25654D01*
G01X2806146Y5788691D01*
G01X2693854Y5788691D01*
G01X2693854Y5790661D01*
G03X2668200Y5816315I-25654J0D01*
G01X2581800Y5816315D01*
G03X2556146Y5790661I0J-25654D01*
G01X2556146Y5788691D01*
G01X2525337Y5788691D01*
G03X2498216Y5777457I0J-38354D01*
G01X2422880Y5702120D01*
G03X2411646Y5675000I27120J-27120D01*
G01X2411646Y5464238D01*
G03X2346334Y5468302I-38646J-94238D01*
G01X2263656Y5550979D01*
G01X2263656Y5642021D01*
G01X2470982Y5849346D01*
G01X3229019Y5849346D01*
G01X3439182Y5639182D01*
G03X3441606Y5636913I35818J35818D01*
G01X3441606Y5596260D01*
G03X3467260Y5570606I25654J0D01*
G01X3624740Y5570606D01*
G03X3650394Y5596260I0J25654D01*
G01X3650394Y5753740D01*
G03X3624740Y5779394I-25654J0D01*
G01X3467260Y5779394D01*
G03X3449441Y5772195I0J-25654D01*
G01X3285818Y5935818D01*
G03X3250000Y5950654I-35818J-35818D01*
G01X2450000Y5950654D01*
G03X2414182Y5935818I0J-50654D01*
G01X2177185Y5698820D01*
G03X2162348Y5663002I35818J-35818D01*
G01X2162348Y5584149D01*
G03X2153567Y5580652I9691J-37110D01*
G01X1068337Y5580652D01*
G03X1051569Y5594796I-23337J-10654D01*
G03X1080814Y5630003I-6569J35206D01*
G01X1080814Y5710003D01*
G03X1045000Y5745817I-35814J0D01*
G01X955000Y5745817D01*
G03X919186Y5710003I0J-35814D01*
G01X919186Y5630003D01*
G03X948431Y5594796I35814J0D01*
G03X934676Y5585652I6569J-24799D01*
G01X840324Y5585652D01*
G03X826569Y5594796I-20324J-15654D01*
G03X855814Y5630003I-6569J35206D01*
G01X855814Y5710003D01*
G03X820000Y5745817I-35814J0D01*
G01X730000Y5745817D01*
G03X694186Y5710003I0J-35814D01*
G01X694186Y5630003D01*
G03X723431Y5594796I35814J0D01*
G03X704346Y5569998I6569J-24799D01*
G01X704346Y5543050D01*
G01X460647Y5299351D01*
G03X444346Y5259998I39353J-39353D01*
G01X444346Y5238004D01*
G03X444708Y4957866I55654J-139997D01*
G03X465000Y4728353I20292J-113860D01*
G01X535000Y4728353D01*
G03X555292Y4957866I0J115654D01*
G03X556410Y5237701I-55292J140140D01*
G01X783053Y5464344D01*
G01X820000Y5464344D01*
G03X840324Y5474344I0J25654D01*
G01X934676Y5474344D01*
G03X955000Y5464344I20324J15654D01*
G01X961647Y5464344D01*
G03X972880Y5437478I38353J254D01*
G01X986646Y5423711D01*
G01X986646Y4193104D01*
G01X798374Y4193104D01*
G01X465000Y4474353D02*
G01X535000Y4474353D01*
G03X535000Y4705661I0J115654D01*
G01X465000Y4705661D01*
G03X465000Y4474353I0J-115654D01*
G01X419806Y3670390D02*
G03X455620Y3634576I35814J0D01*
G01X536900Y3634576D01*
G03X572714Y3670390I0J35814D01*
G01X572714Y3779610D01*
G03X536900Y3815424I-35814J0D01*
G01X455620Y3815424D01*
G03X419806Y3779610I0J-35814D01*
G01X419806Y3670390D01*
G01X805109Y2380746D02*
G01X942007Y2380746D01*
G03X942007Y2492254I0J55754D01*
G01X805109Y2492254D01*
G03X805109Y2380746I0J-55754D01*
G01X1506600Y3964187D02*
G03X1542414Y4000001I0J35814D01*
G01X1542414Y4500000D01*
G03X1506600Y4535814I-35814J0D01*
G01X1206600Y4535814D01*
G03X1170786Y4500000I0J-35814D01*
G01X1170786Y4000001D01*
G03X1206600Y3964187I35814J0D01*
G01X1506600Y3964187D01*
G01X1452250Y5289990D02*
G03X1197742Y5289990I-127254J0D01*
G03X1452250Y5289990I127254J0D01*
G01X1452250Y2910010D02*
G03X1197742Y2910010I-127254J0D01*
G03X1452250Y2910010I127254J0D01*
G01X1863354Y2258984D02*
G03X1825000Y2356154I-38354J41016D01*
G03X1786646Y2258984I0J-56154D01*
G01X1786646Y2140887D01*
G01X1451882Y1806123D01*
G03X1410293Y1710293I-1882J-56123D01*
G03X1506123Y1751882I39707J39707D01*
G01X1852121Y2097880D01*
G03X1863354Y2125000I-27120J27120D01*
G01X1863354Y2258984D01*
G01X2080506Y4615788D02*
G03X2917442Y3828852I444494J-365788D01*
G01X3005358Y3740936D01*
G03X3089707Y3735293I44642J34064D01*
G03X3084064Y3819642I-39707J39707D01*
G01X2991282Y3912425D01*
G03X2159212Y4694495I-466282J337576D01*
G01X2114353Y4739354D01*
G03X2075000Y4755654I-39353J-39353D01*
G01X2057480Y4755654D01*
G03X1993904Y4702552I-7480J-55654D01*
G03X2052397Y4643897I56096J-2551D01*
G01X2080506Y4615788D01*
G01X2299989Y738302D02*
G03X2299989Y511673I0J-113314D01*
G03X2299989Y738302I0J113314D01*
G01X2943877Y5001882D02*
G03X3039707Y4960293I56123J-1882D01*
G03X2998118Y5056123I-39707J39707D01*
G01X2721711Y5332530D01*
G03X2665354Y5464357I-94711J37470D01*
G01X2665354Y5533686D01*
G01X2668200Y5533686D01*
G03X2693854Y5559340I0J25654D01*
G01X2693854Y5639988D01*
G03X2668200Y5665642I-25654J0D01*
G01X2581800Y5665642D01*
G03X2556146Y5639988I0J-25654D01*
G01X2556146Y5559340D01*
G03X2581800Y5533686I25654J0D01*
G01X2588646Y5533686D01*
G01X2588646Y5464357D01*
G03X2533341Y5329972I38354J-94357D01*
G03X2668690Y5277069I93659J40028D01*
G01X2943877Y5001882D01*
G01X3082121Y5397121D02*
G03X3055000Y5408354I-27120J-27120D01*
G01X2975357Y5408354D01*
G03X2919354Y5464357I-94357J-38354D01*
G01X2919354Y5533712D01*
G03X2943854Y5559340I-1154J25628D01*
G01X2943854Y5639988D01*
G03X2918200Y5665642I-25654J0D01*
G01X2831800Y5665642D01*
G03X2806146Y5639988I0J-25654D01*
G01X2806146Y5559340D01*
G03X2831800Y5533686I25654J0D01*
G01X2842646Y5533686D01*
G01X2842646Y5464357D01*
G03X2808978Y5297979I38354J-94357D01*
G03X2975357Y5331646I72022J72022D01*
G01X3039113Y5331646D01*
G01X4079630Y4291129D01*
G03X4106751Y4279895I27120J27120D01*
G01X4152346Y4279895D01*
G01X4152346Y4256499D01*
G03X4266654Y4256499I57154J0D01*
G01X4266654Y4379999D01*
G03X4237885Y4429607I-57154J0D01*
G01X4298146Y4429607D01*
G01X4298146Y4422373D01*
G03X4279346Y4379999I38354J-42374D01*
G01X4279346Y4256499D01*
G03X4393654Y4256499I57154J0D01*
G01X4393654Y4379999D01*
G03X4374854Y4422373I-57154J0D01*
G01X4374854Y4450000D01*
G03X4363620Y4477121I-38354J0D01*
G01X4345660Y4495081D01*
G03X4318540Y4506315I-27120J-27120D01*
G01X4147926Y4506315D01*
G01X3627121Y5027121D01*
G03X3621146Y5031998I-27120J-27120D01*
G03X3521003Y5015416I-46146J-31998D01*
G03X3597297Y4948462I53997J-15415D01*
G01X4104919Y4440840D01*
G03X4132040Y4429607I27120J27120D01*
G01X4181116Y4429607D01*
G03X4152346Y4379999I28385J-49607D01*
G01X4152346Y4356603D01*
G01X4122637Y4356603D01*
G01X3082121Y5397121D01*
G01X2970000Y229347D02*
G01X3130000Y229347D01*
G03X3130000Y520655I0J145654D01*
G01X2970000Y520655D01*
G03X2970000Y229347I0J-145654D01*
G01X2970000Y1229345D02*
G01X3130000Y1229345D01*
G03X3130000Y1520653I0J145654D01*
G01X2970000Y1520653D01*
G03X2970000Y1229345I0J-145654D01*
G01X3818400Y1939186D02*
G03X3854214Y1975000I0J35814D01*
G01X3854214Y2325000D01*
G03X3818400Y2360814I-35814J0D01*
G01X3518400Y2360814D01*
G03X3482586Y2325000I0J-35814D01*
G01X3482586Y1975000D01*
G03X3518400Y1939186I35814J0D01*
G01X3818400Y1939186D01*
G01X3843400Y4039186D02*
G03X3879214Y4075000I0J35814D01*
G01X3879214Y4425000D01*
G03X3843400Y4460814I-35814J0D01*
G01X3543400Y4460814D01*
G03X3507586Y4425000I0J-35814D01*
G01X3507586Y4075000D01*
G03X3543400Y4039186I35814J0D01*
G01X3843400Y4039186D01*
G01X4725000Y2893846D02*
G03X4763354Y2991016I0J56154D01*
G01X4763354Y4122000D01*
G03X4752121Y4149120I-38354J0D01*
G01X4647583Y4253657D01*
G03X4647654Y4256499I-57083J2842D01*
G01X4647654Y4379999D01*
G03X4587658Y4437082I-57154J0D01*
G01X4438354Y4586386D01*
G01X4438354Y4750000D01*
G03X4427120Y4777121I-38354J0D01*
G01X3763354Y5440887D01*
G01X3763354Y5458985D01*
G03X3725000Y5556154I-38354J41016D01*
G03X3686646Y5458985I0J-56154D01*
G01X3686646Y5425000D01*
G03X3687572Y5416622I38354J0D01*
G03X3581888Y5203256I-12568J-126632D01*
G03X3802208Y5293551I93117J86735D01*
G01X4361646Y4734113D01*
G01X4361646Y4570499D01*
G03X4372880Y4543379I38354J0D01*
G01X4482279Y4433980D01*
G03X4406346Y4379999I-18778J-53981D01*
G01X4406346Y4256499D01*
G03X4520654Y4256499I57154J0D01*
G01X4520654Y4379999D01*
G03X4517481Y4398778I-57154J0D01*
G01X4533417Y4382842D01*
G03X4533346Y4379999I57083J-2842D01*
G01X4533346Y4256499D01*
G03X4593342Y4199416I57154J0D01*
G01X4686646Y4106113D01*
G01X4686646Y3444819D01*
G03X4499352Y3365000I-76639J-79819D01*
G03X4686646Y3285181I110655J0D01*
G01X4686646Y2991016D01*
G03X4725000Y2893846I38354J-41016D01*
G01X3802258Y2910010D02*
G03X3547750Y2910010I-127254J0D01*
G03X3802258Y2910010I127254J0D01*
G01X3695606Y5675000D02*
G03X3904394Y5675000I104394J0D01*
G03X3695606Y5675000I-104394J0D01*
G01X3939446Y5675000D02*
G03X4168554Y5675000I114554J0D01*
G03X3939446Y5675000I-114554J0D01*
G01X4300648Y4635000D02*
G03X4079338Y4635000I-110655J0D01*
G03X4300648Y4635000I110655J0D01*
G01X4161646Y2341314D02*
G01X4156800Y2341314D01*
G03X4131146Y2315660I0J-25654D01*
G01X4131146Y2235013D01*
G03X4156800Y2209359I25654J0D01*
G01X4243201Y2209359D01*
G03X4268855Y2235013I0J25654D01*
G01X4268855Y2315660D01*
G03X4243201Y2341314I-25654J0D01*
G01X4238354Y2341314D01*
G01X4238354Y3134114D01*
G01X4361646Y3257405D01*
G01X4361646Y2341314D01*
G01X4356800Y2341314D01*
G03X4331146Y2315660I0J-25654D01*
G01X4331146Y2235013D01*
G03X4356800Y2209359I25654J0D01*
G01X4443200Y2209359D01*
G03X4468854Y2235013I0J25654D01*
G01X4468854Y2315660D01*
G03X4443200Y2341314I-25654J0D01*
G01X4438354Y2341314D01*
G01X4438354Y3257405D01*
G01X4561646Y3134113D01*
G01X4561646Y2341314D01*
G01X4556800Y2341314D01*
G03X4531146Y2315660I0J-25654D01*
G01X4531146Y2235013D01*
G03X4556800Y2209359I25654J0D01*
G01X4643201Y2209359D01*
G03X4668855Y2235013I0J25654D01*
G01X4668855Y2315660D01*
G03X4643201Y2341314I-25654J0D01*
G01X4638354Y2341314D01*
G01X4638354Y3150000D01*
G03X4627121Y3177120I-38354J0D01*
G01X4488354Y3315887D01*
G01X4488354Y3563614D01*
G01X4587658Y3662918D01*
G03X4647654Y3720001I2842J57083D01*
G01X4647654Y3843501D01*
G03X4533346Y3843501I-57154J0D01*
G01X4533346Y3720001D01*
G03X4533417Y3717158I57154J0D01*
G01X4517481Y3701222D01*
G03X4520654Y3720001I-53981J18778D01*
G01X4520654Y3843501D01*
G03X4406346Y3843501I-57154J0D01*
G01X4406346Y3720001D01*
G03X4406417Y3717158I57154J0D01*
G01X4390481Y3701222D01*
G03X4393654Y3720001I-53981J18778D01*
G01X4393654Y3843501D01*
G03X4279346Y3843501I-57154J0D01*
G01X4279346Y3720001D01*
G03X4298146Y3677627I57154J0D01*
G01X4298146Y3388397D01*
G03X4079338Y3365000I-108153J-23397D01*
G03X4298146Y3341603I110655J0D01*
G01X4298146Y3302387D01*
G01X4172880Y3177121D01*
G03X4161646Y3150000I27120J-27120D01*
G01X4161646Y2341314D01*
G01X4156800Y2200802D02*
G03X4120986Y2164988I0J-35814D01*
G01X4120986Y2084340D01*
G03X4156800Y2048526I35814J0D01*
G01X4243201Y2048526D01*
G03X4279015Y2084340I0J35814D01*
G01X4279015Y2164988D01*
G03X4243201Y2200802I-35814J0D01*
G01X4156800Y2200802D01*
G01X4142186Y3843501D02*
G01X4142186Y3720001D01*
G03X4276814Y3720001I67314J0D01*
G01X4276814Y3843501D01*
G03X4142186Y3843501I-67314J0D01*
G01X4220390Y1705194D02*
G03X4184576Y1669380I0J-35814D01*
G01X4184576Y1588100D01*
G03X4220390Y1552286I35814J0D01*
G01X4329610Y1552286D01*
G03X4365424Y1588100I0J35814D01*
G01X4365424Y1669380D01*
G03X4329610Y1705194I-35814J0D01*
G01X4220390Y1705194D01*
G01X4354572Y1424703D02*
G03X4355264Y1430620I-24962J5917D01*
G01X4355264Y1511900D01*
G03X4329610Y1537554I-25654J0D01*
G01X4220390Y1537554D01*
G03X4194736Y1511900I0J-25654D01*
G01X4194736Y1430620D01*
G03X4220390Y1404966I25654J0D01*
G01X4265805Y1404966D01*
G01X4444022Y1226864D01*
G03X4539866Y1185306I56123J-1864D01*
G03X4498246Y1281122I-39720J39694D01*
G01X4354572Y1424703D01*
G01X4356800Y2200802D02*
G03X4320986Y2164988I0J-35814D01*
G01X4320986Y2084340D01*
G03X4356800Y2048526I35814J0D01*
G01X4443200Y2048526D01*
G03X4479014Y2084340I0J35814D01*
G01X4479014Y2164988D01*
G03X4443200Y2200802I-35814J0D01*
G01X4356800Y2200802D01*
G01X4424346Y5600000D02*
G03X4675654Y5600000I125654J0D01*
G03X4424346Y5600000I-125654J0D01*
G01X4424346Y350000D02*
G03X4675654Y350000I125654J0D01*
G03X4424346Y350000I-125654J0D01*
G01X4720662Y4635000D02*
G03X4499352Y4635000I-110655J0D01*
G03X4720662Y4635000I110655J0D01*
G01X4556800Y2200802D02*
G03X4520986Y2164988I0J-35814D01*
G01X4520986Y2084340D01*
G03X4556800Y2048526I35814J0D01*
G01X4643201Y2048526D01*
G03X4679015Y2084340I0J35814D01*
G01X4679015Y2164988D01*
G03X4643201Y2200802I-35814J0D01*
G01X4556800Y2200802D01*
G54D11*
G01X4054000Y5596514D02*
G01X4054000Y5570606D01*
G01X4054000Y5753486D02*
G01X4054000Y5779394D01*
G01X4132486Y5675000D02*
G01X4158394Y5675000D01*
G01X3975514Y5675000D02*
G01X3949606Y5675000D01*
G54D12*
G01X2222742Y624988D02*
G01X2196834Y624988D01*
G01X2377235Y624988D02*
G01X2403143Y624988D01*
G01X2299989Y547741D02*
G01X2299989Y521833D01*
G01X2299989Y702234D02*
G01X2299989Y728142D01*
G54D13*
G01X2119000Y5294054D02*
G01X2119000Y5268146D01*
G01X2194946Y5370000D02*
G01X2220854Y5370000D01*
G01X2043054Y5370000D02*
G01X2017146Y5370000D01*
G54D14*
G01X4209500Y3688755D02*
G01X4209500Y3662847D01*
G01X4209500Y3874746D02*
G01X4209500Y3900654D01*
G54D15*
G01X4178254Y3781751D02*
G01X4152346Y3781751D01*
G54D16*
G01X4557054Y2124664D02*
G01X4531146Y2124664D01*
G01X4642947Y2124664D02*
G01X4668855Y2124664D01*
G54D18*
G01X4600000Y2084594D02*
G01X4600000Y2058686D01*
G01X4600000Y2164734D02*
G01X4600000Y2190642D01*
G54D16*
G01X4157054Y2124664D02*
G01X4131146Y2124664D01*
G01X4242947Y2124664D02*
G01X4268855Y2124664D01*
G54D18*
G01X4200000Y2084594D02*
G01X4200000Y2058686D01*
G01X4200000Y2164734D02*
G01X4200000Y2190642D01*
G54D16*
G01X4357054Y2124664D02*
G01X4331146Y2124664D01*
G01X4442946Y2124664D02*
G01X4468854Y2124664D01*
G54D18*
G01X4400000Y2084594D02*
G01X4400000Y2058686D01*
G01X4400000Y2164734D02*
G01X4400000Y2190642D01*
G54D19*
G01X4220644Y1628740D02*
G01X4194736Y1628740D01*
G01X4329356Y1628740D02*
G01X4355264Y1628740D01*
G54D20*
G01X4275000Y1588354D02*
G01X4275000Y1562446D01*
G01X4275000Y1669126D02*
G01X4275000Y1695034D01*
G54D21*
G01X3518654Y2150000D02*
G01X3492746Y2150000D01*
G54D22*
G01X3668400Y2324746D02*
G01X3668400Y2350654D01*
G01X3668400Y1975254D02*
G01X3668400Y1949346D01*
G54D21*
G01X3843146Y4250000D02*
G01X3869054Y4250000D01*
G01X3543654Y4250000D02*
G01X3517746Y4250000D01*
G54D22*
G01X3693400Y4424746D02*
G01X3693400Y4450654D01*
G01X3693400Y4075254D02*
G01X3693400Y4049346D01*
G54D23*
G01X1506346Y4250000D02*
G01X1532254Y4250000D01*
G01X1206854Y4250000D02*
G01X1180946Y4250000D01*
G54D22*
G01X1356600Y4499746D02*
G01X1356600Y4525654D01*
G01X1356600Y4000255D02*
G01X1356600Y3974347D01*
G54D24*
G01X1044746Y5670003D02*
G01X1070654Y5670003D01*
G01X955254Y5670003D02*
G01X929346Y5670003D01*
G54D25*
G01X1000000Y5709749D02*
G01X1000000Y5735657D01*
G54D24*
G01X819746Y5670003D02*
G01X845654Y5670003D01*
G01X730254Y5670003D02*
G01X704346Y5670003D01*
G54D25*
G01X775000Y5709749D02*
G01X775000Y5735657D01*
G54D23*
G01X1481346Y2150000D02*
G01X1507254Y2150000D01*
G01X1181854Y2150000D02*
G01X1155946Y2150000D01*
G54D22*
G01X1331600Y2399746D02*
G01X1331600Y2425654D01*
G01X1331600Y1900255D02*
G01X1331600Y1874347D01*
G54D26*
G01X424738Y2690500D02*
G01X450646Y2690500D01*
G01X228147Y2690500D02*
G01X202239Y2690500D01*
G54D19*
G01X496260Y3670644D02*
G01X496260Y3644736D01*
G01X496260Y3779356D02*
G01X496260Y3805264D01*
G54D20*
G01X536646Y3725000D02*
G01X562554Y3725000D01*
G01X455874Y3725000D02*
G01X429966Y3725000D01*
G04 Copper End*

G04 Pad Start*
G54D27*
G01X2119000Y5370000D03*
G54D28*
G01X2373000Y5370000D03*
G01X2627000Y5370000D03*
G01X2881000Y5370000D03*
G54D29*
G01X2875000Y5750337D03*
G01X2875000Y5599664D03*
G01X2625000Y5750337D03*
G01X2625000Y5599664D03*
G54D30*
G01X4200000Y2124664D03*
G01X4200000Y2275337D03*
G01X4400000Y2124664D03*
G01X4400000Y2275337D03*
G01X4600000Y2124664D03*
G01X4600000Y2275337D03*
G54D31*
G01X1525000Y1096260D03*
G01X1525000Y1253740D03*
G54D32*
G01X1525000Y853740D03*
G01X1525000Y696260D03*
G01X4275000Y1628740D03*
G01X4275000Y1471260D03*
G54D33*
G01X2299989Y1124987D03*
G54D34*
G01X2299989Y875000D03*
G01X2299989Y624988D03*
G54D35*
G01X3050000Y375001D03*
G01X3050000Y1374999D03*
G54D36*
G01X500000Y5098007D03*
G54D37*
G01X500000Y4844007D03*
G01X500000Y4590007D03*
G54D38*
G01X775000Y5529998D03*
G01X775000Y5670003D03*
G01X1000000Y5529998D03*
G01X1000000Y5670003D03*
G54D39*
G01X721920Y4154750D03*
G01X478080Y4250000D03*
G01X721920Y4345250D03*
G54D40*
G01X499664Y3450000D03*
G01X650337Y3450000D03*
G54D41*
G01X1275000Y696260D03*
G01X1275000Y853740D03*
G54D42*
G01X653740Y3725000D03*
G01X496260Y3725000D03*
G54D43*
G01X873558Y2944500D03*
G01X873558Y2817500D03*
G01X873558Y2690500D03*
G01X873558Y2563500D03*
G01X873558Y2436500D03*
G01X873558Y2309500D03*
G01X873558Y2182500D03*
G01X873558Y2055500D03*
G01X326442Y2944500D03*
G01X326442Y2817500D03*
G01X326442Y2690500D03*
G01X326442Y2563500D03*
G01X326442Y2436500D03*
G01X326442Y2309500D03*
G01X326442Y2182500D03*
G01X326442Y2055500D03*
G54D44*
G01X3693400Y4250000D03*
G54D45*
G01X1356600Y4250000D03*
G54D46*
G01X2525000Y4250000D03*
G54D44*
G01X3668400Y2150000D03*
G54D45*
G01X1331600Y2150000D03*
G54D46*
G01X2500000Y2150000D03*
G54D47*
G01X4590500Y3781751D03*
G01X4463500Y3781751D03*
G01X4336500Y3781751D03*
G01X4209500Y3781751D03*
G01X4590500Y4318249D03*
G01X4463500Y4318249D03*
G01X4336500Y4318249D03*
G01X4209500Y4318249D03*
G54D48*
G01X4054000Y5675000D03*
G01X3800000Y5675000D03*
G54D49*
G01X3546000Y5675000D03*
G54D50*
G01X400000Y5600000D03*
G01X4550000Y5600000D03*
G01X400000Y350000D03*
G01X4550000Y350000D03*
G04 Pad End*

G04 Via Start*
G54D51*
G01X2050000Y4700000D03*
G01X1075000Y3000000D03*
G01X3000000Y5000000D03*
G01X3575000Y5000000D03*
G01X3050000Y2700000D03*
G01X3050000Y3775000D03*
G01X2075000Y1575000D03*
G01X1675000Y696260D03*
G01X1275000Y1000000D03*
G01X1087500Y2887500D03*
G01X1125000Y2450000D03*
G01X725000Y3950000D03*
G01X1375000Y2550000D03*
G01X2000000Y1500000D03*
G01X4500146Y1225000D03*
G01X500000Y2875000D03*
G01X3725000Y5500000D03*
G01X4725000Y2950000D03*
G01X3925000Y2275000D03*
G01X1450000Y1750000D03*
G01X1825000Y2300000D03*
G01X1925000Y1425000D03*
G01X1525000Y1350000D03*
G01X500000Y1775000D03*
G01X1025000Y4150000D03*
G54D52*
G01X2978480Y5561520D03*
G01X3994480Y5561520D03*
G01X946480Y5053520D03*
G01X1454480Y5053520D03*
G01X1962480Y5053520D03*
G01X2470480Y5053520D03*
G01X3994480Y5053520D03*
G01X946480Y4545520D03*
G01X1454480Y4545520D03*
G01X1962480Y4545520D03*
G01X3486480Y4545520D03*
G01X438480Y4037520D03*
G01X946480Y4037520D03*
G01X3486480Y4037520D03*
G01X3994480Y4037520D03*
G01X4502480Y4037520D03*
G01X1454480Y3529520D03*
G01X1962480Y3529520D03*
G01X2470480Y3529520D03*
G01X3486480Y3529520D03*
G01X3994480Y3529520D03*
G01X438480Y3021520D03*
G01X1454480Y3021520D03*
G01X1962480Y3021520D03*
G01X2470480Y3021520D03*
G01X3486480Y3021520D03*
G01X3994480Y3021520D03*
G01X4502480Y3021520D03*
G01X3486480Y2513520D03*
G01X4502480Y2513520D03*
G01X438480Y1497520D03*
G01X3486480Y1497520D03*
G01X3994480Y1497520D03*
G01X4502480Y1497520D03*
G01X438480Y989520D03*
G01X1454480Y989520D03*
G01X2470480Y989520D03*
G01X1454480Y481520D03*
G01X2470480Y481520D03*
G01X3486480Y481520D03*
G01X3994480Y481520D03*
G04 Via End*

G04 Track Start*
G54D53*
G01X326442Y2051042D02*
G01X326442Y2055500D01*
G01X2881000Y5370000D02*
G01X2881000Y5593664D01*
G01X2875000Y5599664D01*
G01X2627000Y5370000D02*
G01X2627000Y5597664D01*
G01X2625000Y5599664D01*
G54D54*
G01X770000Y5529998D02*
G01X775000Y5529998D01*
G01X1000000Y5529998D01*
G54D55*
G01X2213002Y5529998D02*
G01X2373000Y5370000D01*
G54D54*
G01X2525000Y4250000D02*
G01X2075000Y4700000D01*
G01X2050000Y4700000D01*
G54D53*
G01X2373000Y5370000D02*
G01X2450000Y5447000D01*
G01X2450000Y5675000D01*
G01X2525337Y5750337D01*
G01X2625000Y5750337D01*
G01X2875000Y5750337D02*
G01X2625000Y5750337D01*
G01X873558Y2944500D02*
G01X1019500Y2944500D01*
G01X1075000Y3000000D01*
G01X3000000Y5000000D02*
G01X2630000Y5370000D01*
G01X2627000Y5370000D01*
G01X4209500Y4318249D02*
G01X4106751Y4318249D01*
G01X3055000Y5370000D02*
G01X2881000Y5370000D01*
G01X4106751Y4318249D02*
G01X3055000Y5370000D01*
G54D54*
G01X2500000Y2150000D02*
G01X3050000Y2700000D01*
G01X3050000Y3775000D02*
G01X2575000Y4250000D01*
G01X2525000Y4250000D01*
G54D53*
G01X2075000Y1575000D02*
G01X1002391Y1575000D01*
G01X394891Y2182500D02*
G01X326442Y2182500D01*
G01X1002391Y1575000D02*
G01X394891Y2182500D01*
G01X1525000Y696260D02*
G01X1675000Y696260D01*
G01X1275000Y853740D02*
G01X1275000Y1000000D01*
G01X650337Y3450000D02*
G01X650337Y2818945D01*
G01X394891Y2563500D01*
G01X326442Y2563500D01*
G01X1087500Y2887500D02*
G01X1017500Y2817500D01*
G01X873558Y2817500D01*
G01X1125000Y2450000D02*
G01X1125000Y2365493D01*
G01X942007Y2182500D02*
G01X873558Y2182500D01*
G01X1125000Y2365493D02*
G01X942007Y2182500D01*
G01X478080Y4196920D02*
G01X478080Y4250000D01*
G01X725000Y3950000D02*
G01X478080Y4196920D01*
G01X2000000Y1500000D02*
G01X950000Y1500000D01*
G01X450388Y1999612D02*
G01X450388Y2000004D01*
G01X394891Y2055500D01*
G01X326442Y2055500D01*
G01X950000Y1500000D02*
G01X450388Y1999612D01*
G01X4275000Y1450000D02*
G01X4275000Y1471260D01*
G01X4500146Y1225000D02*
G01X4275000Y1450000D01*
G01X500000Y2875000D02*
G01X442500Y2817500D01*
G01X721920Y4154750D02*
G01X1018565Y4154750D01*
G01X1525000Y1096260D02*
G01X1525000Y853740D01*
G01X1471260Y800000D01*
G01X1378740Y800000D02*
G01X1275000Y696260D01*
G01X1471260Y800000D02*
G01X1378740Y800000D01*
G01X2299989Y1124987D02*
G01X3274987Y1124987D01*
G01X3925000Y1775000D02*
G01X3925000Y2275000D01*
G01X3274987Y1124987D02*
G01X3925000Y1775000D01*
G01X1450000Y1750000D02*
G01X1825000Y2125000D01*
G01X1825000Y2300000D01*
G01X442500Y2817500D02*
G01X326442Y2817500D01*
G01X887058Y2550000D02*
G01X873558Y2563500D01*
G01X1375000Y2550000D02*
G01X887058Y2550000D01*
G01X653740Y3725000D02*
G01X653740Y3696260D01*
G01X725000Y3625000D01*
G01X725000Y2600000D01*
G01X761500Y2563500D01*
G01X873558Y2563500D01*
G01X721920Y4345250D02*
G01X300000Y4345250D01*
G01X282040Y4327290D01*
G01X282040Y3670501D01*
G01X499664Y3452877D01*
G01X499664Y3450000D01*
G01X873558Y2055500D02*
G01X942007Y2055500D01*
G01X1347507Y1650000D01*
G01X2175000Y1650000D01*
G01X2192961Y1632040D01*
G01X2192961Y982028D01*
G01X2299989Y875000D01*
G01X1525000Y1350000D02*
G01X1525000Y1253740D01*
G01X850000Y1425000D02*
G01X500000Y1775000D01*
G01X1925000Y1425000D02*
G01X850000Y1425000D01*
G01X1025000Y4150000D02*
G01X1025000Y5439598D01*
G01X1000000Y5464598D01*
G01X1000000Y5529998D01*
G01X1525000Y1096260D02*
G01X1621260Y1096260D01*
G01X1925000Y1400000D02*
G01X1925000Y1425000D01*
G01X1621260Y1096260D02*
G01X1925000Y1400000D01*
G01X4200000Y2275337D02*
G01X4200000Y3150000D01*
G01X4336500Y3286500D02*
G01X4336500Y3781751D01*
G01X4200000Y3150000D02*
G01X4336500Y3286500D01*
G01X4400000Y2275337D02*
G01X4400000Y3656501D01*
G01X4463500Y3720001D01*
G01X4463500Y3781751D01*
G01X4600000Y2275337D02*
G01X4600000Y3150000D01*
G01X4450000Y3300000D01*
G01X4450000Y3579501D01*
G01X4590500Y3720001D01*
G01X4590500Y3781751D01*
G01X4336500Y4318249D02*
G01X4336500Y4450000D01*
G01X4318540Y4467961D01*
G01X4132040Y4467961D01*
G01X3600000Y5000000D02*
G01X3575000Y5000000D01*
G01X4132040Y4467961D02*
G01X3600000Y5000000D01*
G01X4590500Y4318249D02*
G01X4590500Y4379999D01*
G01X4400000Y4570499D01*
G01X4400000Y4750000D01*
G01X3725000Y5425000D01*
G01X3725000Y5500000D01*
G01X4725000Y2950000D02*
G01X4725000Y4122000D01*
G01X4590500Y4256499D02*
G01X4590500Y4318249D01*
G01X4725000Y4122000D02*
G01X4590500Y4256499D01*
G54D55*
G01X1000000Y5529998D02*
G01X2172039Y5529998D01*
G01X2213002Y5529998D01*
G54D53*
G01X2172039Y5547039D02*
G01X2172039Y5529998D01*
G54D55*
G01X2213002Y5529998D02*
G01X2213002Y5663002D01*
G01X2450000Y5900000D01*
G01X3250000Y5900000D01*
G01X3475000Y5675000D01*
G01X3546000Y5675000D01*
G54D54*
G01X525000Y5173007D02*
G01X500000Y5198007D01*
G01X500000Y5259998D01*
G01X770000Y5529998D01*
G04 Track End*

M02*

